<svg width="322" height="911" viewBox="0 0 322 911" fill="none" xmlns="http://www.w3.org/2000/svg">
<g id="bodyFrame">
<g id="body">
<g id="bodyOutline">
<path d="M150.709 1.5043C156.353 0.919377 159.709 1.0043 160.709 1.0043H161C162 1.0043 165.356 0.919377 171 1.5043C174.447 1.86157 179.17 3.31776 183.422 5.40579C187.076 7.20003 189.776 11.0747 192.341 14.189C194.991 17.4054 199.183 24.9483 202.314 31.0063C204.176 34.6096 204.524 38.183 205 43.0807L205.009 43.1749C205.544 48.6754 202.568 55 202.568 58.8146L206.709 64.5C208.425 65.4807 209.379 70.9764 209.199 72.9312C208.869 76.498 206.51 79.3206 204.993 82.4386C203.472 85.5629 202.139 89.0044 199.257 90.7882C197.751 91.7204 196.253 92.3963 195.442 93.8856C193.704 97.0795 194.204 100.905 192.908 104.055C192.067 106.098 190.809 108.011 189.168 110.092V112.672C189.168 114.829 188.954 118.976 188.897 125.361C188.858 129.788 189.685 133.75 190.853 137.258C192.182 141.252 196.771 142.823 199.825 144.122C203.624 145.738 209.172 147.4 213.619 149.028C217.576 150.478 220.748 152.509 223.979 153.883C227.63 155.435 231.932 156.75 236.596 158.011C243.651 159.919 247.069 161.392 250.557 162.709C253.905 163.974 257.532 165.402 260.721 167.527L265.29 170.726C266.034 171.3 266.584 172.08 266.78 172.323L269.047 175.13C272.183 178.757 274.514 182.064 276.175 185.176C277.875 188.361 278.737 191.513 279.79 194.751C281.502 200.012 280.798 207.897 280.801 211.222C280.807 215.965 280.946 223.581 281.156 235.087C281.295 242.712 281.116 251.101 282.135 254.211C283.197 257.451 285.165 260.448 286.08 264.535C287.136 269.255 288.497 272.802 289.574 276.205C290.58 279.383 290.41 283.685 291.007 287.771C291.571 291.636 292.415 295.199 292.847 303.751C293.065 308.084 295.332 311.12 296.601 314.315C297.915 317.621 299.336 320.975 300.541 324.082C301.731 327.152 303.123 331.864 304.359 336.477C305.308 340.016 305.955 343.819 306.531 347.549C307.637 354.707 307.279 363.986 308.009 367.873C308.241 373.896 308.327 381.561 308.715 383.221C308.848 384.12 308.848 385.134 308.848 386.179L308.709 390C308.709 394.406 308.723 396.201 309.019 399.06C309.348 402.236 310.401 406.402 311.214 409.62L311.338 410.11C312.218 413.598 312.475 420.845 312.296 426.124C312.101 431.869 312.807 434.747 313.346 437.455C313.862 440.045 313.965 446.341 314.222 450.667C314.407 453.782 315.387 457.865 316.172 461.115C317.121 465.042 317.853 467.469 318.157 471.37C318.357 473.941 319.045 476.705 319.592 479.275C320.108 481.698 320.781 483.836 320.703 486.451C320.581 490.513 319.413 493.985 317.812 498.413C316.822 501.15 317.14 504.56 316.069 507.824C315.047 510.941 312.592 513.636 310.858 517.109C309.684 519.459 309.214 522.087 308.21 524.838C307.019 528.103 305.065 530.637 303.284 532.769C302.658 533.518 301.694 534.517 301.071 534.698C298.505 535.444 298.972 529.158 299.046 524.657C299.116 520.422 301.093 518.33 302.067 515.311C302.868 512.828 303.756 510.604 304.394 507.664C304.963 505.043 305.018 502.572 305.12 495.981C305.198 490.94 304.833 484.751 304.608 480.293C304.489 477.912 303.086 476.167 302.375 475.907C299.083 474.706 299.557 480.944 298.715 483.483L298.676 483.602C297.651 486.691 296.695 489.57 296.033 492.923C295.473 495.759 295.275 498.37 295.004 500.749C294.838 502.205 294.641 503.479 293.923 504.331C293.563 504.758 293.117 505.087 292.661 504.998C290.378 504.552 289.944 501.079 289.145 497.31C288.282 493.234 288.261 490.438 287.999 487.961C287.716 485.284 287.426 482.944 286.935 480.441C286.473 478.079 285.811 475.668 285.22 472.866C284.553 469.701 286.255 467.174 286.958 465.026C287.727 462.674 288.952 460.481 289.806 458.47C290.706 456.351 291.382 454.144 292.776 452.109C294.047 449.866 294.97 447.28 295.112 444.856C294.994 444.295 294.7 443.812 294.396 442.8L292.661 441.5C292.433 440.608 290.469 437.563 289.519 434.837C288.779 432.713 287.857 429.908 286.632 427.087C285.578 424.661 284.853 421.89 284.437 419.44C284.063 417.237 283.252 414.962 281.885 411.577C280.824 408.949 279.87 406.498 279.125 403.358C278.534 400.864 277.293 398.435 276.122 395.934L275.961 395.588L275.96 395.587C274.575 392.627 273.254 389.806 272.498 387.073C271.821 384.627 270.901 381.824 269.747 378.782C268.823 376.345 267.173 373.854 265.809 371.111C264.255 367.983 263.462 364.974 262.895 362.66C262.193 359.796 262.158 356.794 262.006 352.6C261.907 349.864 261.201 347.359 260.794 344.47C260.454 342.054 260.017 339.214 259.807 336.51C259.629 334.207 259.159 329.931 258.918 322.967C258.779 318.95 257.726 314.766 256.718 311.372C256.038 309.085 255.026 307.112 252.372 301.304C250.943 298.178 249.767 295.823 248.804 293.58C247.614 290.806 247.098 288.619 246.674 286.41C246.212 284.006 246.082 281.237 245.5 278.554C244.891 275.745 244.237 272.756 243.559 270.024C242.969 267.643 242.124 265.36 241.097 261.801C240.323 259.119 239.994 256.388 239.717 253.907L237.991 249.397C237.209 248 237.249 254.355 237.051 257.483C236.605 264.526 237.591 266.691 238.092 269.135C238.737 272.28 238.605 277.223 238.002 281.152C237.602 283.758 237.116 285.918 236.592 288.064C236.057 290.252 235.013 292.968 234.335 295.63C233.744 297.953 232.928 300.459 231.991 303.207C231.176 305.597 230.56 307.663 229.872 310.795C229.3 313.4 228.987 315.91 228.638 320.338C228.016 328.232 228.943 332.589 229.403 335.304C229.989 338.771 230.998 341.559 231.524 344.005C232.003 346.23 232.724 348.426 233.294 350.972C233.941 353.859 234.506 356.299 234.937 358.789C235.416 361.557 236.031 364.072 236.285 367.417C236.745 373.471 236.015 376.2 235.734 378.734C235.482 381.005 235.088 383.793 236.421 387.772C237.279 390.333 238.708 393.244 239.788 395.953C240.927 398.811 241.153 401.771 242.002 404.504L242.209 407L242.884 409.744C243.112 410.389 242.835 410.456 243.099 414.393C243.296 417.342 244.632 419.497 245.53 421.877C246.553 424.589 247.063 427.198 247.906 429.747C248.884 432.705 250.209 437.106 250.882 440.277L250.978 440.725C251.592 443.618 252.231 446.625 252.57 449.168C252.913 451.741 253.203 453.966 253.381 457.405C253.605 461.722 253.368 467.125 253.225 472.224C252.987 480.701 253.597 483.604 253.921 486.326C254.383 490.21 253.705 496.575 253.526 501.268C253.419 504.068 253.613 506.448 254.073 509.436C254.538 512.462 253.758 516.046 252.529 520.358C251.429 524.219 251.083 528.345 250.673 531.193C250.327 533.594 250.111 536.245 249.528 538.476C248.823 541.179 248.454 545.959 248.174 549.029C247.919 551.826 246.801 555.703 246.347 558.878C245.905 561.969 245.103 565.186 244.677 568.381C244.167 572.21 243.128 575.613 242.244 578.803C241.3 582.211 240.55 584.997 239.677 588.274C238.625 592.223 237.847 594.649 236.467 597.753C234.352 602.51 234.4 605.874 234.069 609.635C233.83 612.356 233.136 614.577 232.655 617.188C232.231 619.485 231.86 622.271 231.402 625.141C231.033 627.454 230.821 631.72 231.248 635.97C231.656 640.027 231.758 642.212 231.875 646.003C231.968 649.038 232.94 652.888 233.319 656.062C233.949 661.342 234.084 667.657 234.446 670.658C234.805 673.632 235.294 680.501 235.829 684.995C236.2 688.122 237.002 690.629 237.555 693.536C237.991 695.83 238.178 698.107 238.434 701.228L238.435 701.243C238.969 707.751 239.173 711.048 238.788 713.846L238.949 716.914C239.709 719.5 239.197 724.108 238.76 726.894C238.215 730.37 237.459 732.79 237.085 735.55C236.716 738.272 236.632 741.357 236.447 750.049C236.372 753.558 235.029 756.007 234.599 759.189C234.168 762.376 233.852 765.98 233.655 768.762C233.496 771.022 232.394 773.37 231.196 776.171C230.237 778.414 229.928 780.749 229.513 783.232C228.97 786.476 228.121 788.575 227.799 790.881C227.415 793.631 226.59 796.297 225.392 799.086C224.481 801.21 223.723 803.474 223.509 805.917C223.258 808.802 222.691 813.039 221.469 816.578C220.331 819.875 219.91 822.536 219.791 828.145C219.715 831.739 220.675 834.472 221.32 836.554C221.977 838.673 221.468 841.019 221.211 846.208C221.059 849.262 219.392 851.384 219.508 853.578C219.625 855.767 221.824 857.89 223.268 860.131C224.527 862.083 224.418 864.79 225.464 867.547C226.401 870.017 228.004 872.208 229.295 874.575C231.333 878.31 232.3 880.337 233.472 882.552C234.599 884.684 236.369 886.937 237.788 889.24C239.398 891.852 240.072 895.901 240.744 898.317C241.042 899.39 241.156 900.567 241.181 901.737C241.205 902.865 240.387 903.817 239.433 904.52C237.395 906.022 234.86 906.611 232.197 908.014C230.117 909.109 225.145 909.582 221.625 908.514C218.85 907.671 216.694 906.909 214.266 907.447C211.851 907.983 209.541 908.639 206.876 909.102C203.511 909.686 200.864 908.793 198.468 908.058C197.252 907.685 196.051 907.444 195.159 906.932C193.133 905.771 194.206 901.833 193.756 898.728C193.205 894.926 193.812 892.645 193.139 890.18C192.441 887.624 191.701 884.913 190.963 882.648C189.992 879.668 188.341 877.937 186.763 875.717C185.374 873.764 184.951 870.344 185.349 867.445C185.722 864.725 187.841 862.032 188.454 859.506C189.053 857.038 188.471 854.135 187.819 851.519C187.094 848.612 186.756 846.261 186.249 844.086C185.506 840.897 186.026 837.021 186.485 834.716C186.916 832.55 188.284 829.48 189.129 826.676C189.813 824.404 190.079 822.015 190.44 819.61L190.452 819.53C190.873 816.729 191.261 814.144 191.639 811.739C192.01 809.372 192.048 806.428 191.647 803.721C191.236 800.94 191.071 798.288 190.588 795.804C190.153 793.569 189.64 791.393 189.245 789.035C188.722 785.92 188.152 783.483 187.722 781.146C187.309 778.896 186.386 776.766 185.705 774.571C185.025 772.384 184.468 770.016 183.723 767.487C182.984 764.974 182.471 762.521 181.84 759.919C181.246 757.471 181.102 755.266 180.936 745.25C180.869 741.228 180.429 738.237 180.175 735.61C179.896 732.723 179.38 728.501 178.925 724.79C178.467 721.06 178.553 717.778 178.588 711.719C178.611 707.627 179.463 704.676 179.841 701.947C180.241 699.065 180.479 695.927 181.646 690.925C182.435 687.545 182.744 684.288 183.217 681.25C183.795 677.538 183.843 674.263 183.715 667.026C183.594 660.214 181.881 657.933 181.149 655.36C180.345 652.537 179.169 650.029 178.616 647.621C178.059 645.194 176.594 641.869 175.63 638.445C174.778 635.415 174.312 632.021 173.633 628.174C172.884 623.931 173.101 618.086 172.724 614.715C172.33 611.192 172.378 608.436 171.973 604.196C170.861 592.544 169.635 590.341 169.782 587.935C169.862 586.627 170.12 585.36 170.314 580.546C170.804 568.412 170.309 559.722 170.174 557.913C169.734 552.05 169.735 549.021 169.444 546.047C169.157 543.108 168.624 539.935 168.13 537.282C167.626 534.575 167.144 531.445 166.562 528.372C165.972 525.257 165.422 519.621 165.059 514.364C164.544 506.91 165.422 496.259 165.074 489.335C164.988 488.307 164.988 486.776 165.016 485.704L164.801 483.25C164.624 482.764 164.275 482.134 163.977 480.09H157.732C157.434 482.134 157.085 482.764 156.908 483.25L156.693 485.704C156.721 486.776 156.721 488.307 156.635 489.335C156.287 496.259 157.165 506.91 156.65 514.364C156.286 519.621 155.737 525.257 155.147 528.372C154.565 531.445 154.083 534.575 153.579 537.282C153.085 539.935 152.552 543.108 152.265 546.047C151.974 549.021 151.975 552.05 151.535 557.913C151.4 559.722 150.905 568.412 151.395 580.546C151.589 585.36 151.847 586.627 151.927 587.935C152.074 590.341 150.848 592.544 149.736 604.196C149.331 608.436 149.379 611.192 148.985 614.715C148.608 618.086 148.825 623.931 148.076 628.174C147.397 632.021 146.931 635.415 146.079 638.445C145.115 641.869 143.65 645.194 143.093 647.621C142.54 650.029 141.364 652.537 140.56 655.36C139.828 657.933 138.115 660.214 137.994 667.026C137.866 674.263 137.914 677.538 138.492 681.25C138.964 684.288 139.274 687.545 140.063 690.925C141.23 695.927 141.468 699.065 141.868 701.947C142.246 704.676 143.098 707.627 143.121 711.719C143.156 717.778 143.242 721.06 142.784 724.79C142.329 728.501 141.813 732.723 141.534 735.61C141.28 738.237 140.84 741.228 140.773 745.25C140.607 755.266 140.462 757.471 139.869 759.919C139.238 762.521 138.725 764.974 137.986 767.487C137.241 770.016 136.684 772.384 136.004 774.571C135.323 776.766 134.4 778.896 133.986 781.146C133.556 783.483 132.987 785.92 132.464 789.035C132.069 791.393 131.556 793.569 131.121 795.804C130.637 798.288 130.473 800.94 130.062 803.721C129.661 806.428 129.699 809.372 130.07 811.739C130.447 814.141 130.835 816.722 131.255 819.519L131.257 819.53L131.269 819.61C131.63 822.015 131.896 824.404 132.58 826.676C133.425 829.48 134.793 832.55 135.224 834.716C135.683 837.021 136.203 840.897 135.46 844.086C134.953 846.261 134.615 848.612 133.89 851.519C133.238 854.135 132.656 857.038 133.255 859.506C133.868 862.032 135.987 864.725 136.36 867.445C136.758 870.344 136.334 873.764 134.946 875.717C133.368 877.937 131.717 879.668 130.746 882.648C130.008 884.913 129.268 887.624 128.57 890.18C127.897 892.645 128.504 894.926 127.953 898.728C127.503 901.833 128.576 905.771 126.55 906.932C125.657 907.444 124.457 907.685 123.241 908.058C120.845 908.793 118.198 909.686 114.833 909.102C112.168 908.639 109.858 907.983 107.443 907.447C105.015 906.909 102.859 907.671 100.084 908.514C96.5637 909.582 91.592 909.109 89.5122 908.014C86.849 906.611 84.3138 906.022 82.2758 904.52C81.3219 903.817 80.5045 902.865 80.5285 901.737C80.5534 900.567 80.6669 899.39 80.9651 898.317C81.6369 895.901 82.3113 891.852 83.9212 889.24C85.3403 886.937 87.1102 884.684 88.2375 882.552C89.4089 880.337 90.376 878.31 92.4137 874.575C93.7048 872.208 95.3078 870.017 96.2448 867.547C97.2906 864.79 97.1821 862.083 98.4407 860.131C99.8855 857.89 102.084 855.767 102.201 853.578C102.317 851.384 100.65 849.262 100.498 846.208C100.241 841.019 99.7316 838.673 100.389 836.554C101.034 834.472 101.994 831.739 101.918 828.145C101.799 822.536 101.378 819.875 100.24 816.578C99.0181 813.039 98.4514 808.802 98.1996 805.917C97.9864 803.474 97.2282 801.21 96.3165 799.086C95.1194 796.297 94.2937 793.631 93.9102 790.881C93.5884 788.575 92.739 786.476 92.1961 783.232C91.7805 780.749 91.472 778.414 90.513 776.171C89.315 773.37 88.2132 771.022 88.0536 768.762C87.8572 765.98 87.5412 762.376 87.1105 759.189C86.6804 756.007 85.3368 753.558 85.2621 750.049C85.0772 741.357 84.9925 738.272 84.6236 735.55C84.2495 732.79 83.4937 730.37 82.9491 726.894C82.5125 724.108 82 719.5 82.7602 716.914L82.9209 713.846C82.5355 711.048 82.7396 707.751 83.2737 701.243L83.2749 701.228C83.5311 698.107 83.7179 695.83 84.1542 693.536C84.7069 690.629 85.5086 688.122 85.8804 684.995C86.4147 680.501 86.9043 673.632 87.2628 670.658C87.6246 667.657 87.7599 661.342 88.3898 656.062C88.7686 652.888 89.7408 649.038 89.8345 646.003C89.9514 642.212 90.0528 640.027 90.4607 635.97C90.888 631.72 90.6762 627.454 90.3072 625.141C89.8492 622.271 89.4775 619.485 89.0543 617.188C88.5731 614.577 87.8791 612.356 87.6395 609.635C87.3085 605.874 87.3566 602.51 85.2417 597.753C83.8615 594.649 83.084 592.223 82.0321 588.274C81.159 584.997 80.409 582.211 79.4649 578.803C78.5809 575.613 77.5422 572.21 77.0317 568.381C76.6057 565.186 75.8042 561.969 75.3622 558.878C74.9082 555.703 73.7897 551.826 73.5348 549.029C73.255 545.959 72.8861 541.179 72.1806 538.476C71.5984 536.245 71.3817 533.594 71.0358 531.193C70.6256 528.345 70.2799 524.219 69.1797 520.358C67.951 516.046 67.1712 512.462 67.6363 509.436C68.0956 506.448 68.2897 504.068 68.1831 501.268C68.0044 496.575 67.326 490.21 67.7879 486.326C68.1117 483.604 68.7216 480.701 68.4838 472.224C68.3407 467.125 68.1044 461.722 68.3279 457.405C68.5061 453.966 68.7957 451.741 69.1388 449.168C69.4779 446.625 70.1166 443.619 70.7313 440.726L70.8266 440.277C71.4998 437.106 72.8246 432.705 73.8033 429.747C74.6464 427.198 75.1559 424.589 76.1788 421.877C77.0769 419.497 78.4131 417.342 78.6104 414.393C78.8739 410.456 78.5971 410.389 78.825 409.744L79.5003 407L79.707 404.504C80.5564 401.771 80.7822 398.811 81.9212 395.953C83.0011 393.244 84.4299 390.333 85.288 387.772C86.6212 383.793 86.2272 381.005 85.9753 378.734C85.6943 376.2 84.9636 373.471 85.424 367.417C85.6783 364.072 86.2934 361.557 86.7724 358.789C87.2031 356.299 87.7684 353.859 88.4147 350.972C88.9848 348.426 89.7056 346.23 90.1847 344.005C90.7113 341.559 91.7196 338.771 92.3065 335.304C92.7661 332.589 93.6927 328.232 93.0711 320.338C92.7224 315.91 92.4088 313.4 91.8365 310.795C91.1486 307.663 90.5326 305.597 89.7178 303.207C88.7813 300.459 87.9652 297.953 87.3738 295.63C86.6963 292.968 85.652 290.252 85.1173 288.064C84.5927 285.918 84.107 283.758 83.7071 281.152C83.1043 277.223 82.9719 272.28 83.6167 269.135C84.1177 266.691 85.1041 264.526 84.658 257.483C84.4599 254.355 84.5 248 83.7184 249.397L81.9917 253.907C81.715 256.388 81.3861 259.119 80.6122 261.801C79.5849 265.36 78.7403 267.643 78.1496 270.024C77.4719 272.756 76.8181 275.745 76.2089 278.554C75.6272 281.237 75.497 284.006 75.0355 286.41C74.6113 288.619 74.0953 290.806 72.9048 293.58C71.9421 295.823 70.7659 298.178 69.3372 301.304C66.683 307.112 65.671 309.085 64.9913 311.372C63.9827 314.766 62.9302 318.95 62.7911 322.967C62.5499 329.931 62.0804 334.207 61.9017 336.51C61.6918 339.214 61.2549 342.054 60.9146 344.47C60.5078 347.359 59.8021 349.864 59.7028 352.6C59.5505 356.794 59.5165 359.796 58.8144 362.66C58.2472 364.974 57.4544 367.983 55.8998 371.111C54.536 373.854 52.8857 376.345 51.9616 378.782C50.8082 381.824 49.888 384.627 49.2111 387.073C48.4547 389.806 47.1343 392.627 45.7487 395.587L45.7484 395.588L45.5865 395.934C44.4164 398.435 43.1753 400.864 42.5837 403.358C41.839 406.498 40.8851 408.949 39.824 411.577C38.4569 414.962 37.6459 417.237 37.2719 419.44C36.8559 421.89 36.1305 424.661 35.0771 427.087C33.8522 429.908 32.93 432.713 32.19 434.837C31.2404 437.563 29.2762 440.608 29.0478 441.5L27.3127 442.8C27.0092 443.812 26.7147 444.295 26.5965 444.856C26.7394 447.28 27.6621 449.866 28.9332 452.109C30.3267 454.144 31.0033 456.351 31.9031 458.47C32.7569 460.481 33.9821 462.674 34.7513 465.026C35.4535 467.174 37.1555 469.701 36.4886 472.866C35.8981 475.668 35.2361 478.079 34.7736 480.441C34.2833 482.944 33.9925 485.284 33.7099 487.961C33.4484 490.438 33.4272 493.234 32.5638 497.31C31.7653 501.079 31.331 504.552 29.0482 504.998C28.5917 505.087 28.1456 504.758 27.7861 504.331C27.0682 503.479 26.8709 502.205 26.7049 500.749C26.4336 498.37 26.236 495.759 25.676 492.923C25.0137 489.57 24.0583 486.691 23.0335 483.602L22.994 483.483C22.1517 480.944 22.6255 474.706 19.3344 475.907C18.6225 476.167 17.2204 477.912 17.1006 480.293C16.8762 484.751 16.5106 490.94 16.5888 495.981C16.691 502.572 16.7459 505.043 17.3148 507.664C17.9527 510.604 18.8408 512.828 19.6419 515.311C20.6159 518.33 22.5928 520.422 22.6628 524.657C22.7371 529.158 23.2036 535.444 20.6382 534.698C20.015 534.517 19.0507 533.518 18.4254 532.769C16.6442 530.637 14.6902 528.103 13.4988 524.838C12.4949 522.087 12.0246 519.459 10.8513 517.109C9.11716 513.636 6.66246 510.941 5.6399 507.824C4.56881 504.56 4.88709 501.15 3.89698 498.413C2.29571 493.985 1.12848 490.513 1.00631 486.451C0.927664 483.836 1.60063 481.698 2.11677 479.275C2.6643 476.705 3.35238 473.941 3.55234 471.37C3.85568 467.469 4.58793 465.042 5.53669 461.115C6.32183 457.865 7.30245 453.782 7.48733 450.667C7.7441 446.341 7.84722 440.045 8.3629 437.455C8.90182 434.747 9.60756 431.869 9.41311 426.124C9.23442 420.845 9.49067 413.598 10.3708 410.11L10.4946 409.621C11.3081 406.402 12.3612 402.237 12.6901 399.06C12.986 396.201 13 394.406 13 390L12.8613 386.179C12.8613 385.134 12.8613 384.12 12.9936 383.221C13.3825 381.561 13.4676 373.896 13.6995 367.873C14.4304 363.986 14.0718 354.707 15.1779 347.549C15.7542 343.819 16.4013 340.016 17.3498 336.477C18.586 331.864 19.9779 327.152 21.1682 324.082C22.3727 320.975 23.7939 317.621 25.1075 314.315C26.3774 311.12 28.6435 308.084 28.8622 303.751C29.2939 295.199 30.138 291.636 30.7024 287.771C31.299 283.685 31.1294 279.383 32.1354 276.205C33.2124 272.802 34.5731 269.255 35.6292 264.535C36.5437 260.448 38.5121 257.451 39.5737 254.211C40.593 251.101 40.4142 242.712 40.5534 235.087C40.7635 223.581 40.9024 215.965 40.9076 211.222C40.9112 207.897 40.2072 200.012 41.9187 194.751C42.9721 191.513 43.8335 188.361 45.534 185.176C47.1954 182.064 49.5255 178.757 52.6618 175.13L54.9289 172.323C55.1252 172.08 55.6745 171.3 56.4192 170.726L60.9878 167.527C64.1771 165.402 67.8039 163.974 71.152 162.709C74.6402 161.392 78.0584 159.919 85.1129 158.011C89.777 156.75 94.0787 155.435 97.7295 153.883C100.961 152.509 104.133 150.478 108.09 149.028C112.537 147.4 118.085 145.738 121.884 144.122C124.938 142.823 129.527 141.252 130.856 137.258C132.024 133.75 132.851 129.788 132.812 125.361C132.755 118.976 132.54 114.829 132.54 112.672V110.092C130.9 108.011 129.642 106.098 128.801 104.055C127.505 100.905 128.005 97.0795 126.267 93.8856C125.456 92.3963 123.958 91.7204 122.452 90.7882C119.57 89.0044 118.237 85.5629 116.716 82.4386C115.199 79.3206 112.84 76.498 112.51 72.9312C112.33 70.9764 113.284 65.4807 115 64.5L119.141 58.8146C119.141 55 116.165 48.6754 116.7 43.1749L116.709 43.0807C117.185 38.183 117.533 34.6096 119.395 31.0063C122.526 24.9483 126.718 17.4054 129.368 14.189C131.933 11.0747 134.632 7.20003 138.287 5.40579C142.539 3.31776 147.262 1.86157 150.709 1.5043Z" fill="white" fill-opacity="0.01"/>
<path d="M135.295 113.389C134.284 112.222 133.364 111.136 132.54 110.092M132.54 110.092C130.9 108.011 129.642 106.098 128.801 104.055C127.505 100.905 128.005 97.0795 126.267 93.8856C125.456 92.3963 123.958 91.7204 122.452 90.7882C119.57 89.0044 118.237 85.5629 116.716 82.4386C115.199 79.3206 112.84 76.498 112.51 72.9312C112.33 70.9764 113.284 65.4807 115 64.5L119.141 58.8146C119.141 55 116.165 48.6754 116.7 43.1749L116.709 43.0807C117.185 38.183 117.533 34.6096 119.395 31.0063C122.526 24.9483 126.718 17.4054 129.368 14.189C131.933 11.0747 134.632 7.20003 138.287 5.40579C142.539 3.31776 147.262 1.86157 150.709 1.5043C156.353 0.919377 159.709 1.0043 160.709 1.0043H161C162 1.0043 165.356 0.919377 171 1.5043C174.447 1.86157 179.17 3.31776 183.422 5.40579C187.076 7.20003 189.776 11.0747 192.341 14.189C194.991 17.4054 199.183 24.9483 202.314 31.0063C204.176 34.6096 204.524 38.183 205 43.0807L205.009 43.1749C205.544 48.6754 202.568 55 202.568 58.8146L206.709 64.5C208.425 65.4807 209.379 70.9764 209.199 72.9312C208.869 76.498 206.51 79.3206 204.993 82.4386C203.472 85.5629 202.139 89.0044 199.257 90.7882C197.751 91.7204 196.253 92.3963 195.442 93.8856C193.704 97.0795 194.204 100.905 192.908 104.055C192.067 106.098 190.809 108.011 189.168 110.092M132.54 110.092V112.672C132.54 114.829 132.755 118.976 132.812 125.361C132.851 129.788 132.024 133.75 130.856 137.258C129.527 141.252 124.938 142.823 121.884 144.122C118.085 145.738 112.537 147.4 108.09 149.028C104.133 150.478 100.961 152.509 97.7295 153.883C94.0787 155.435 89.777 156.75 85.1129 158.011C78.0584 159.919 74.6402 161.392 71.152 162.709C67.8039 163.974 64.1771 165.402 60.9878 167.527L56.4192 170.726C55.6745 171.3 55.1252 172.08 54.9289 172.323L52.6618 175.13C49.5255 178.757 47.1954 182.064 45.534 185.176C43.8335 188.361 42.9721 191.513 41.9187 194.751C40.2072 200.012 40.9112 207.897 40.9076 211.222C40.9024 215.965 40.7635 223.581 40.5534 235.087C40.4142 242.712 40.593 251.101 39.5737 254.211C38.5121 257.451 36.5437 260.448 35.6292 264.535C34.5731 269.255 33.2124 272.802 32.1354 276.205C31.1294 279.383 31.299 283.685 30.7024 287.771C30.138 291.636 29.2939 295.199 28.8622 303.751C28.6435 308.084 26.3774 311.12 25.1075 314.315C23.7939 317.621 22.3727 320.975 21.1682 324.082C19.9779 327.152 18.586 331.864 17.3498 336.477C16.4013 340.016 15.7542 343.819 15.1779 347.549C14.0718 354.707 14.4304 363.986 13.6995 367.873C13.4676 373.896 13.3825 381.561 12.9936 383.221C12.8613 384.12 12.8613 385.134 12.8613 386.179L13 390C13 394.406 12.986 396.201 12.6901 399.06C12.3442 402.4 11.1976 406.834 10.3708 410.11C9.49067 413.598 9.23442 420.845 9.41311 426.124C9.60756 431.869 8.90182 434.747 8.3629 437.455C7.84722 440.045 7.7441 446.341 7.48733 450.667C7.30245 453.782 6.32183 457.865 5.53669 461.115C4.58793 465.042 3.85568 467.469 3.55234 471.37C3.35238 473.941 2.6643 476.705 2.11677 479.275C1.60063 481.698 0.927664 483.836 1.00631 486.451C1.12848 490.513 2.29571 493.985 3.89698 498.413C4.88709 501.15 4.56881 504.56 5.6399 507.824C6.66246 510.941 9.11716 513.637 10.8513 517.109C12.0246 519.459 12.4949 522.087 13.4988 524.838C14.6902 528.103 16.6442 530.637 18.4254 532.769C19.0507 533.518 20.015 534.517 20.6382 534.698C23.2036 535.444 22.7371 529.158 22.6628 524.657C22.5928 520.422 20.6159 518.33 19.6419 515.311C18.8408 512.828 17.9527 510.604 17.3148 507.664C16.7459 505.043 16.691 502.572 16.5888 495.981C16.5106 490.94 16.8762 484.751 17.1006 480.293C17.2204 477.912 18.6225 476.167 19.3344 475.907C22.6255 474.706 22.1517 480.944 22.994 483.483L23.0335 483.602C24.0583 486.691 25.0137 489.57 25.676 492.923C26.236 495.759 26.4336 498.37 26.7049 500.749C26.8709 502.205 27.0682 503.479 27.7861 504.331C28.1456 504.758 28.5917 505.087 29.0482 504.998C31.331 504.552 31.7653 501.079 32.5638 497.31C33.4272 493.234 33.4484 490.438 33.7099 487.961C33.9925 485.284 34.2833 482.944 34.7736 480.441C35.2361 478.079 35.8981 475.668 36.4886 472.866C37.1555 469.701 35.4535 467.174 34.7513 465.026C33.9821 462.674 32.7569 460.481 31.9031 458.47C31.0033 456.351 30.3267 454.144 28.9332 452.109C27.6621 449.866 26.7394 447.28 26.5965 444.856C26.7147 444.295 27.0092 443.812 27.3127 442.8L29.0478 441.5C29.2762 440.608 31.2404 437.563 32.19 434.837C32.93 432.713 33.8522 429.908 35.0771 427.087C36.1305 424.661 36.8559 421.89 37.2719 419.44C37.6459 417.237 38.4569 414.962 39.824 411.577C40.8851 408.949 41.839 406.498 42.5837 403.358C43.1753 400.864 44.4164 398.435 45.5865 395.934L45.7484 395.588C47.1341 392.628 48.4547 389.807 49.2111 387.073C49.888 384.627 50.8082 381.824 51.9616 378.782C52.8857 376.345 54.536 373.854 55.8998 371.111C57.4544 367.983 58.2472 364.974 58.8144 362.66C59.5165 359.796 59.5505 356.794 59.7028 352.6C59.8021 349.864 60.5078 347.359 60.9146 344.47C61.2549 342.054 61.6918 339.214 61.9017 336.51C62.0804 334.207 62.5499 329.931 62.7911 322.967C62.9302 318.95 63.9827 314.766 64.9913 311.372C65.671 309.085 66.683 307.112 69.3372 301.304C70.7659 298.178 71.9421 295.823 72.9048 293.58C74.0953 290.806 74.6113 288.619 75.0355 286.41C75.497 284.006 75.6272 281.237 76.2089 278.554C76.8181 275.745 77.4719 272.756 78.1496 270.024C78.7403 267.643 79.5849 265.36 80.6122 261.801C81.3861 259.119 81.715 256.388 81.9917 253.907L83.7184 249.397C84.5 248 84.4599 254.355 84.658 257.483C85.1041 264.526 84.1177 266.691 83.6167 269.135C82.9719 272.28 83.1043 277.223 83.7071 281.152C84.107 283.758 84.5927 285.918 85.1173 288.064C85.652 290.252 86.6963 292.968 87.3738 295.63C87.9652 297.953 88.7813 300.459 89.7178 303.207C90.5326 305.597 91.1486 307.663 91.8365 310.795C92.4088 313.4 92.7224 315.91 93.0711 320.338C93.6927 328.232 92.7661 332.589 92.3065 335.304C91.7196 338.771 90.7113 341.559 90.1847 344.005C89.7056 346.23 88.9848 348.426 88.4147 350.972C87.7684 353.859 87.2031 356.299 86.7724 358.789C86.2934 361.557 85.6783 364.072 85.424 367.417C84.9636 373.471 85.6943 376.2 85.9753 378.734C86.2272 381.005 86.6212 383.793 85.288 387.772C84.4299 390.333 83.0011 393.244 81.9212 395.953C80.7822 398.811 80.5564 401.771 79.707 404.504L79.5003 407L78.825 409.744C78.5971 410.389 78.8739 410.456 78.6104 414.393C78.4131 417.342 77.0769 419.497 76.1788 421.877C75.1559 424.589 74.6464 427.198 73.8033 429.747C72.8246 432.705 71.4998 437.106 70.8266 440.277C70.1836 443.306 69.4955 446.493 69.1388 449.168C68.7957 451.741 68.506 453.966 68.3279 457.405C68.1044 461.722 68.3407 467.125 68.4838 472.224C68.7216 480.701 68.1117 483.604 67.7879 486.326C67.326 490.21 68.0044 496.575 68.1831 501.268C68.2897 504.068 68.0956 506.448 67.6363 509.436C67.1712 512.462 67.951 516.046 69.1797 520.358C70.2799 524.219 70.6256 528.345 71.0358 531.193C71.3817 533.594 71.5984 536.245 72.1806 538.476C72.8861 541.179 73.255 545.959 73.5348 549.029C73.7897 551.826 74.9082 555.703 75.3622 558.878C75.8042 561.969 76.6057 565.186 77.0317 568.381C77.5422 572.21 78.5809 575.613 79.4649 578.803C80.409 582.211 81.1591 584.997 82.0321 588.274C83.084 592.223 83.8615 594.649 85.2417 597.753C87.3566 602.511 87.3085 605.874 87.6395 609.635C87.8791 612.356 88.5731 614.577 89.0543 617.188C89.4775 619.485 89.8492 622.271 90.3072 625.141C90.6762 627.454 90.888 631.72 90.4607 635.97C90.0528 640.027 89.9514 642.212 89.8345 646.003C89.7408 649.038 88.7686 652.888 88.3898 656.062C87.7599 661.342 87.6246 667.657 87.2628 670.658C86.9043 673.632 86.4147 680.501 85.8804 684.995C85.5086 688.122 84.7069 690.629 84.1542 693.536C83.7179 695.83 83.5311 698.107 83.2749 701.228L83.2737 701.243C82.7396 707.751 82.5355 711.048 82.9209 713.846L82.7602 716.914C82 719.5 82.5125 724.108 82.9491 726.894C83.4937 730.369 84.2495 732.79 84.6236 735.55C84.9925 738.272 85.0772 741.357 85.2621 750.049C85.3368 753.558 86.6804 756.007 87.1105 759.189C87.5412 762.376 87.8572 765.98 88.0536 768.762C88.2132 771.022 89.315 773.37 90.513 776.171C91.472 778.414 91.7806 780.749 92.1961 783.232C92.739 786.476 93.5884 788.575 93.9102 790.881C94.2937 793.631 95.1194 796.297 96.3165 799.086C97.2282 801.21 97.9864 803.474 98.1996 805.917C98.4514 808.803 99.0181 813.039 100.24 816.578C101.378 819.875 101.799 822.536 101.918 828.145C101.994 831.739 101.034 834.472 100.389 836.554C99.7316 838.673 100.241 841.019 100.498 846.208C100.65 849.262 102.317 851.384 102.201 853.578C102.084 855.767 99.8855 857.89 98.4407 860.131C97.1821 862.083 97.2906 864.79 96.2448 867.547C95.3078 870.017 93.7048 872.208 92.4137 874.575C90.376 878.31 89.4089 880.337 88.2375 882.552C87.1102 884.684 85.3403 886.937 83.9212 889.24C82.3113 891.852 81.6369 895.901 80.9651 898.317C80.6669 899.39 80.5534 900.567 80.5285 901.737C80.5045 902.865 81.3219 903.817 82.2758 904.52C84.3138 906.022 86.8489 906.611 89.5122 908.014C91.592 909.109 96.5637 909.582 100.084 908.514C102.859 907.671 105.015 906.909 107.443 907.447C109.858 907.983 112.168 908.639 114.833 909.102C118.198 909.686 120.845 908.793 123.241 908.058C124.457 907.685 125.657 907.444 126.55 906.932C128.576 905.771 127.503 901.833 127.953 898.728C128.504 894.926 127.897 892.645 128.57 890.18C129.268 887.624 130.008 884.913 130.746 882.648C131.717 879.668 133.368 877.937 134.946 875.717C136.334 873.764 136.758 870.344 136.36 867.445C135.987 864.725 133.868 862.032 133.255 859.506C132.656 857.038 133.238 854.135 133.89 851.519C134.615 848.612 134.953 846.261 135.46 844.086C136.203 840.897 135.683 837.021 135.224 834.716C134.793 832.55 133.425 829.48 132.58 826.676C131.896 824.404 131.63 822.015 131.269 819.61L131.257 819.53C130.836 816.729 130.448 814.144 130.07 811.739C129.699 809.372 129.661 806.428 130.062 803.721C130.473 800.94 130.638 798.288 131.121 795.804C131.556 793.569 132.069 791.393 132.464 789.035C132.987 785.92 133.556 783.483 133.986 781.146C134.4 778.895 135.323 776.766 136.004 774.571C136.684 772.384 137.241 770.016 137.986 767.487C138.725 764.974 139.238 762.521 139.869 759.919C140.462 757.471 140.607 755.266 140.773 745.25C140.84 741.228 141.28 738.237 141.534 735.61C141.813 732.723 142.329 728.501 142.784 724.79C143.242 721.06 143.156 717.778 143.121 711.719C143.098 707.627 142.246 704.676 141.868 701.947C141.468 699.065 141.23 695.927 140.063 690.925C139.274 687.545 138.964 684.288 138.492 681.25C137.914 677.538 137.866 674.263 137.994 667.026C138.115 660.214 139.828 657.933 140.56 655.36C141.364 652.537 142.54 650.029 143.093 647.621C143.65 645.194 145.115 641.869 146.079 638.445C146.931 635.415 147.397 632.021 148.076 628.174C148.825 623.931 148.608 618.086 148.985 614.715C149.379 611.192 149.331 608.436 149.736 604.196C150.848 592.544 152.074 590.341 151.927 587.935C151.847 586.627 151.589 585.36 151.395 580.546C150.905 568.412 151.4 559.722 151.535 557.913C151.975 552.05 151.974 549.021 152.265 546.047C152.552 543.108 153.085 539.935 153.579 537.282C154.083 534.575 154.565 531.445 155.147 528.372C155.737 525.257 156.286 519.621 156.65 514.364C157.165 506.91 156.287 496.259 156.635 489.335C156.721 488.307 156.721 486.776 156.693 485.704L156.908 483.25C157.085 482.764 157.434 482.134 157.732 480.09H163.977C164.275 482.134 164.624 482.764 164.801 483.25L165.016 485.704C164.988 486.776 164.988 488.307 165.074 489.335C165.422 496.259 164.544 506.91 165.059 514.364C165.422 519.621 165.972 525.257 166.562 528.372C167.144 531.445 167.626 534.575 168.13 537.282C168.624 539.935 169.157 543.108 169.444 546.047C169.735 549.021 169.734 552.05 170.174 557.913C170.309 559.722 170.804 568.412 170.314 580.546C170.12 585.36 169.862 586.627 169.782 587.935C169.635 590.341 170.861 592.544 171.973 604.196C172.378 608.436 172.33 611.192 172.724 614.715C173.101 618.086 172.884 623.931 173.633 628.174C174.312 632.021 174.778 635.415 175.63 638.445C176.594 641.869 178.059 645.194 178.616 647.621C179.169 650.029 180.345 652.537 181.149 655.36C181.881 657.933 183.594 660.214 183.715 667.026C183.843 674.263 183.795 677.538 183.217 681.25C182.744 684.288 182.435 687.545 181.646 690.925C180.479 695.927 180.241 699.065 179.841 701.947C179.463 704.676 178.611 707.627 178.588 711.719C178.553 717.778 178.467 721.06 178.925 724.79C179.38 728.501 179.896 732.723 180.175 735.61C180.429 738.237 180.869 741.228 180.936 745.25C181.102 755.266 181.246 757.471 181.84 759.919C182.471 762.521 182.984 764.974 183.723 767.487C184.468 770.016 185.025 772.384 185.705 774.571C186.386 776.766 187.309 778.895 187.722 781.146C188.152 783.483 188.722 785.92 189.245 789.035C189.64 791.393 190.153 793.569 190.588 795.804C191.071 798.288 191.236 800.94 191.647 803.721C192.048 806.428 192.01 809.372 191.639 811.739C191.261 814.144 190.873 816.729 190.452 819.53L190.44 819.61C190.079 822.015 189.813 824.404 189.129 826.676C188.284 829.48 186.916 832.55 186.485 834.716C186.026 837.021 185.506 840.897 186.249 844.086C186.756 846.261 187.094 848.612 187.819 851.519C188.471 854.135 189.053 857.038 188.454 859.506C187.841 862.032 185.722 864.725 185.349 867.445C184.951 870.344 185.374 873.764 186.763 875.717C188.341 877.937 189.992 879.668 190.963 882.648C191.701 884.913 192.441 887.624 193.139 890.18C193.812 892.645 193.205 894.926 193.756 898.728C194.206 901.833 193.133 905.771 195.159 906.932C196.052 907.444 197.252 907.685 198.468 908.058C200.864 908.793 203.511 909.686 206.876 909.102C209.541 908.639 211.851 907.983 214.266 907.447C216.694 906.909 218.85 907.671 221.625 908.514C225.145 909.582 230.117 909.109 232.197 908.014C234.86 906.611 237.395 906.022 239.433 904.52C240.387 903.817 241.205 902.865 241.181 901.737C241.156 900.567 241.042 899.39 240.744 898.317C240.072 895.901 239.398 891.852 237.788 889.24C236.369 886.937 234.599 884.684 233.472 882.552C232.3 880.337 231.333 878.31 229.295 874.575C228.004 872.208 226.401 870.017 225.464 867.547C224.418 864.79 224.527 862.083 223.268 860.131C221.824 857.89 219.625 855.767 219.508 853.578C219.392 851.384 221.059 849.262 221.211 846.208C221.468 841.019 221.977 838.673 221.32 836.554C220.675 834.472 219.715 831.739 219.791 828.145C219.91 822.536 220.331 819.875 221.469 816.578C222.691 813.039 223.258 808.803 223.509 805.917C223.723 803.474 224.481 801.21 225.392 799.086C226.59 796.297 227.415 793.631 227.799 790.881C228.121 788.575 228.97 786.476 229.513 783.232C229.928 780.749 230.237 778.414 231.196 776.171C232.394 773.37 233.496 771.022 233.655 768.762C233.852 765.98 234.168 762.376 234.599 759.189C235.029 756.007 236.372 753.558 236.447 750.049C236.632 741.357 236.716 738.272 237.085 735.55C237.459 732.79 238.215 730.369 238.76 726.894C239.197 724.108 239.709 719.5 238.949 716.914L238.788 713.846C239.173 711.048 238.969 707.751 238.435 701.243L238.434 701.228C238.178 698.107 237.991 695.83 237.555 693.536C237.002 690.629 236.2 688.122 235.829 684.995C235.294 680.501 234.805 673.632 234.446 670.658C234.084 667.657 233.949 661.342 233.319 656.062C232.94 652.888 231.968 649.038 231.875 646.003C231.758 642.212 231.656 640.027 231.248 635.97C230.821 631.72 231.033 627.454 231.402 625.141C231.86 622.271 232.231 619.485 232.655 617.188C233.136 614.577 233.83 612.356 234.069 609.635C234.4 605.874 234.352 602.511 236.467 597.753C237.847 594.649 238.625 592.223 239.677 588.274C240.55 584.997 241.3 582.211 242.244 578.803C243.128 575.613 244.167 572.21 244.677 568.381C245.103 565.186 245.905 561.969 246.347 558.878C246.801 555.703 247.919 551.826 248.174 549.029C248.454 545.959 248.823 541.179 249.528 538.476C250.111 536.245 250.327 533.594 250.673 531.193C251.083 528.345 251.429 524.219 252.529 520.358C253.758 516.046 254.538 512.462 254.073 509.436C253.613 506.448 253.419 504.068 253.526 501.268C253.705 496.575 254.383 490.21 253.921 486.326C253.597 483.604 252.987 480.701 253.225 472.224C253.368 467.125 253.605 461.722 253.381 457.405C253.203 453.966 252.913 451.741 252.57 449.168C252.214 446.493 251.525 443.306 250.882 440.277C250.209 437.106 248.884 432.705 247.906 429.747C247.063 427.198 246.553 424.589 245.53 421.877C244.632 419.497 243.296 417.342 243.099 414.393C242.835 410.456 243.112 410.389 242.884 409.744L242.209 407L242.002 404.504C241.153 401.771 240.927 398.811 239.788 395.953C238.708 393.244 237.279 390.333 236.421 387.772C235.088 383.793 235.482 381.005 235.734 378.734C236.015 376.2 236.745 373.471 236.285 367.417C236.031 364.072 235.416 361.557 234.937 358.789C234.506 356.299 233.941 353.859 233.294 350.972C232.724 348.426 232.003 346.23 231.524 344.005C230.998 341.559 229.989 338.771 229.403 335.304C228.943 332.589 228.016 328.232 228.638 320.338C228.987 315.91 229.3 313.4 229.872 310.795C230.56 307.663 231.176 305.597 231.991 303.207C232.928 300.459 233.744 297.953 234.335 295.63C235.013 292.968 236.057 290.252 236.592 288.064C237.116 285.918 237.602 283.758 238.002 281.152C238.605 277.223 238.737 272.28 238.092 269.135C237.591 266.691 236.605 264.526 237.051 257.483C237.249 254.355 237.209 248 237.991 249.397L239.717 253.907C239.994 256.388 240.323 259.119 241.097 261.801C242.124 265.36 242.969 267.643 243.559 270.024C244.237 272.756 244.891 275.745 245.5 278.554C246.082 281.237 246.212 284.006 246.674 286.41C247.098 288.619 247.614 290.806 248.804 293.58C249.767 295.823 250.943 298.178 252.372 301.304C255.026 307.112 256.038 309.085 256.718 311.372C257.726 314.766 258.779 318.95 258.918 322.967C259.159 329.931 259.629 334.207 259.807 336.51C260.017 339.214 260.454 342.054 260.794 344.47C261.201 347.359 261.907 349.864 262.006 352.6C262.158 356.794 262.193 359.796 262.895 362.66C263.462 364.974 264.255 367.983 265.809 371.111C267.173 373.854 268.823 376.345 269.747 378.782C270.901 381.824 271.821 384.627 272.498 387.073C273.254 389.807 274.575 392.628 275.961 395.588L276.122 395.934C277.293 398.435 278.534 400.864 279.125 403.358C279.87 406.498 280.824 408.949 281.885 411.577C283.252 414.962 284.063 417.237 284.437 419.44C284.853 421.89 285.578 424.661 286.632 427.087C287.857 429.908 288.779 432.713 289.519 434.837C290.469 437.563 292.433 440.608 292.661 441.5L294.396 442.8C294.7 443.812 294.994 444.295 295.112 444.856C294.97 447.28 294.047 449.866 292.776 452.109C291.382 454.144 290.706 456.351 289.806 458.47C288.952 460.481 287.727 462.674 286.958 465.026C286.255 467.174 284.553 469.701 285.22 472.866C285.811 475.668 286.473 478.079 286.935 480.441C287.426 482.944 287.716 485.284 287.999 487.961C288.261 490.438 288.282 493.234 289.145 497.31C289.944 501.079 290.378 504.552 292.661 504.998C293.117 505.087 293.563 504.758 293.923 504.331C294.641 503.479 294.838 502.205 295.004 500.749C295.275 498.37 295.473 495.759 296.033 492.923C296.695 489.57 297.651 486.691 298.676 483.602L298.715 483.483C299.557 480.944 299.083 474.706 302.375 475.907C303.086 476.167 304.489 477.912 304.608 480.293C304.833 484.751 305.198 490.94 305.12 495.981C305.018 502.572 304.963 505.043 304.394 507.664C303.756 510.604 302.868 512.828 302.067 515.311C301.093 518.33 299.116 520.422 299.046 524.657C298.972 529.158 298.505 535.444 301.071 534.698C301.694 534.517 302.658 533.518 303.284 532.769C305.065 530.637 307.019 528.103 308.21 524.838C309.214 522.087 309.684 519.459 310.858 517.109C312.592 513.637 315.047 510.941 316.069 507.824C317.14 504.56 316.822 501.15 317.812 498.413C319.413 493.985 320.58 490.513 320.703 486.451C320.781 483.836 320.108 481.698 319.592 479.275C319.045 476.705 318.357 473.941 318.157 471.37C317.853 467.469 317.121 465.042 316.172 461.115C315.387 457.865 314.407 453.782 314.222 450.667C313.965 446.341 313.862 440.045 313.346 437.455C312.807 434.747 312.101 431.869 312.296 426.124C312.475 420.845 312.218 413.598 311.338 410.11C310.511 406.834 309.365 402.4 309.019 399.06C308.723 396.201 308.709 394.406 308.709 390L308.848 386.179C308.848 385.134 308.848 384.12 308.715 383.221C308.326 381.561 308.241 373.896 308.009 367.873C307.279 363.986 307.637 354.707 306.531 347.549C305.955 343.819 305.308 340.016 304.359 336.477C303.123 331.864 301.731 327.152 300.541 324.082C299.336 320.975 297.915 317.621 296.601 314.315C295.332 311.12 293.066 308.084 292.847 303.751C292.415 295.199 291.571 291.636 291.007 287.771C290.41 283.685 290.58 279.383 289.574 276.205C288.497 272.802 287.136 269.255 286.08 264.535C285.165 260.448 283.197 257.451 282.135 254.211C281.116 251.101 281.295 242.712 281.156 235.087C280.946 223.581 280.807 215.965 280.801 211.222C280.798 207.897 281.502 200.012 279.79 194.751C278.737 191.513 277.875 188.361 276.175 185.176C274.514 182.064 272.183 178.757 269.047 175.13L266.78 172.323C266.584 172.08 266.034 171.3 265.29 170.726L260.721 167.527C257.532 165.402 253.905 163.974 250.557 162.709C247.069 161.392 243.651 159.919 236.596 158.011C231.932 156.75 227.63 155.435 223.979 153.883C220.748 152.509 217.576 150.478 213.619 149.028C209.172 147.4 203.624 145.738 199.825 144.122C196.771 142.823 192.182 141.252 190.853 137.258C189.685 133.75 188.858 129.788 188.897 125.361C188.954 118.976 189.168 114.829 189.168 112.672V110.092M186.414 113.389C187.425 112.222 188.345 111.136 189.168 110.092" stroke="black" stroke-width="2" stroke-linecap="round"/>
</g>
</g>
<g id="parts">
<g id="right">
<path id="leg-right" d="M233.721 402.532C234.649 402.823 235.443 403.319 236.704 404.114L242.209 407L242.884 409.744C243.112 410.389 242.835 410.456 243.099 414.393C243.296 417.342 244.632 419.497 245.53 421.877C246.553 424.589 247.063 427.198 247.906 429.747C248.885 432.705 250.209 437.106 250.883 440.277C251.526 443.306 252.214 446.493 252.57 449.168C252.914 451.741 253.203 453.966 253.381 457.405C253.605 461.722 253.368 467.125 253.225 472.224C252.988 480.701 253.598 483.604 253.921 486.326C254.383 490.21 253.705 496.575 253.526 501.268C253.42 504.068 253.614 506.448 254.073 509.436C254.538 512.462 253.758 516.046 252.53 520.358C251.429 524.219 251.084 528.345 250.673 531.193C250.328 533.594 250.111 536.245 249.529 538.476C248.823 541.179 248.454 545.959 248.174 549.029C247.92 551.826 246.801 555.703 246.347 558.878C245.905 561.969 245.104 565.186 244.678 568.381C244.167 572.21 243.128 575.613 242.244 578.803C241.3 582.211 240.55 584.997 239.677 588.274C238.625 592.223 237.848 594.649 236.468 597.753C234.353 602.511 234.401 605.874 234.07 609.635C233.83 612.356 233.136 614.577 232.655 617.188C232.232 619.485 231.86 622.271 231.402 625.141C231.033 627.454 230.821 631.72 231.249 635.97C231.656 640.027 231.758 642.212 231.875 646.003C231.968 649.038 232.941 652.888 233.319 656.063C233.949 661.342 234.085 667.657 234.446 670.658C234.805 673.632 235.295 680.501 235.829 684.995C236.201 688.122 237.002 690.629 237.555 693.536C237.991 695.83 238.178 698.107 238.434 701.228L238.436 701.243C238.97 707.751 239.174 711.048 238.788 713.846C238.635 714.962 238.121 715.856 237.776 716.367C237.653 716.549 238.563 716.615 238.949 716.914C241.262 718.703 239.197 724.108 238.76 726.894C238.216 730.369 237.46 732.79 237.086 735.55C236.717 738.272 236.632 741.357 236.447 750.049C236.372 753.558 235.029 756.007 234.599 759.189C234.168 762.376 233.852 765.98 233.656 768.762C233.496 771.022 232.394 773.37 231.196 776.171C230.237 778.414 229.929 780.749 229.513 783.232C228.97 786.476 228.121 788.575 227.799 790.881C227.416 793.631 226.59 796.297 225.393 799.086C224.481 801.21 223.723 803.474 223.51 805.917C223.258 808.803 222.691 813.039 221.47 816.578C220.331 819.875 219.91 822.536 219.791 828.145C219.715 831.739 220.675 834.472 221.321 836.554C221.978 838.673 221.469 841.019 221.211 846.208C221.059 849.262 219.392 851.384 219.509 853.578C219.625 855.767 221.824 857.89 223.269 860.131C224.527 862.083 224.419 864.79 225.464 867.547C226.401 870.017 228.004 872.208 229.296 874.575C231.333 878.31 232.3 880.337 233.472 882.552C234.599 884.684 236.369 886.937 237.788 889.24C239.398 891.852 240.072 895.901 240.744 898.317C241.042 899.39 241.156 900.567 241.181 901.737C241.205 902.865 240.387 903.817 239.433 904.52C237.395 906.022 234.86 906.611 232.197 908.014C230.117 909.109 225.146 909.582 221.626 908.514C218.85 907.671 216.694 906.909 214.266 907.447C211.851 907.983 209.541 908.639 206.877 909.102C203.511 909.686 200.864 908.793 198.468 908.058C197.252 907.685 196.052 907.444 195.159 906.932C193.133 905.771 194.206 901.833 193.756 898.728C193.205 894.926 193.812 892.645 193.139 890.18C192.441 887.624 191.701 884.913 190.963 882.648C189.992 879.668 188.341 877.937 186.763 875.717C185.375 873.764 184.952 870.344 185.349 867.445C185.722 864.725 187.841 862.032 188.454 859.506C189.053 857.038 188.472 854.135 187.819 851.519C187.094 848.612 186.757 846.261 186.249 844.086C185.506 840.897 186.026 837.022 186.485 834.716C186.916 832.55 188.285 829.48 189.129 826.676C189.813 824.404 190.079 822.015 190.44 819.61L190.453 819.53C190.873 816.729 191.262 814.144 191.639 811.739C192.01 809.372 192.048 806.429 191.647 803.721C191.236 800.94 191.072 798.288 190.588 795.804C190.153 793.569 189.64 791.393 189.245 789.035C188.723 785.92 188.153 783.483 187.723 781.146C187.309 778.896 186.387 776.766 185.705 774.571C185.025 772.384 184.468 770.016 183.724 767.487C182.984 764.974 182.472 762.521 181.841 759.919C181.247 757.471 181.103 755.266 180.936 745.25C180.869 741.228 180.429 738.237 180.175 735.61C179.896 732.723 179.38 728.501 178.925 724.79C178.467 721.06 178.553 717.778 178.588 711.719C178.611 707.627 179.463 704.676 179.842 701.947C180.241 699.065 180.479 695.927 181.646 690.925C182.435 687.545 182.745 684.288 183.218 681.25C183.795 677.538 183.843 674.263 183.715 667.026C183.595 660.214 181.881 657.933 181.149 655.36C180.345 652.537 179.169 650.029 178.616 647.621C178.059 645.195 176.594 641.869 175.631 638.445C174.778 635.415 174.313 632.021 173.633 628.174C172.884 623.931 173.101 618.086 172.724 614.715C172.331 611.192 172.378 608.436 171.973 604.196C170.861 592.544 169.636 590.341 169.783 587.935C169.863 586.627 170.12 585.36 170.315 580.546C170.805 568.412 170.31 559.722 170.174 557.913C169.735 552.05 169.735 549.021 169.444 546.047C169.157 543.108 168.624 539.935 168.13 537.282C167.627 534.575 167.144 531.445 166.562 528.372C165.972 525.257 165.423 519.621 165.06 514.364C164.544 506.91 165.422 496.259 165.074 489.335C164.988 488.307 164.988 486.776 165.016 485.704L164.801 483.25C164.624 482.764 164.275 482.134 163.977 480.09C163.894 476.002 163.78 472.617 163.874 471.426L163.879 471.37C163.975 470.15 164.089 468.701 164.416 466.373C164.675 464.532 165.066 462.277 165.272 461.151C165.562 459.56 165.91 458.177 166.489 456.697C166.921 455.592 167.649 454.158 168.606 452.375C168.975 451.688 170.349 449.031 171.85 445.328C172.47 443.797 172.674 443.299 172.917 442.724C173.618 441.069 174.939 437.965 175.772 436.103C176.332 434.852 177.446 433.436 178.625 430.497C179.153 429.179 179.54 428.156 180.408 426.432C181.266 424.729 181.957 423.273 182.726 422.441C183.989 421.073 185.462 418.884 186.683 417.372C188.347 415.309 189.59 414.014 190.432 413.149C191.103 412.459 191.86 411.792 192.581 411.162C193.346 410.494 194.435 409.667 195.779 408.495C197.936 406.614 199.272 405.606 200.597 404.586C201.689 403.745 203.176 402.896 204.225 402.249C205.002 401.771 206.458 400.918 207.776 400.679C208.868 400.481 210.49 399.72 212.617 399.677C213.769 399.654 214.847 399.784 216.255 400.178C217.473 400.518 218.745 400.548 223.253 400.654L223.286 400.655C225.221 400.7 227.048 400.88 228.463 401.212C230.52 401.694 232.274 402.079 233.721 402.532Z" fill="white" fill-opacity="0" stroke-opacity="0" stroke="black" stroke-width="2" stroke-linecap="round" stroke-dasharray="4 4"/>
<path id="arm-right" d="M265.29 170.726C266.034 171.3 266.584 172.081 266.78 172.323L269.047 175.13C272.183 178.758 274.514 182.064 276.175 185.176C277.875 188.361 278.737 191.514 279.79 194.751C281.502 200.012 280.798 207.898 280.801 211.222C280.807 215.966 280.946 223.581 281.156 235.088C281.295 242.713 281.116 251.101 282.135 254.212C283.197 257.451 285.165 260.449 286.08 264.536C287.136 269.255 288.497 272.802 289.574 276.205C290.58 279.384 290.41 283.685 291.007 287.772C291.571 291.637 292.415 295.199 292.847 303.751C293.066 308.085 295.332 311.12 296.601 314.316C297.915 317.621 299.336 320.975 300.541 324.082C301.731 327.152 303.123 331.864 304.359 336.477C305.308 340.017 305.955 343.819 306.531 347.549C307.637 354.707 307.279 363.986 308.009 367.874C308.241 373.897 308.326 381.562 308.715 383.221C308.848 384.12 308.848 385.135 308.848 386.18L308.709 390C308.709 394.406 308.723 396.202 309.019 399.06C309.365 402.401 310.511 406.835 311.338 410.111C312.218 413.598 312.475 420.845 312.296 426.125C312.101 431.87 312.807 434.748 313.346 437.455C313.862 440.046 313.965 446.341 314.222 450.667C314.407 453.783 315.387 457.865 316.172 461.115C317.121 465.043 317.853 467.47 318.157 471.37C318.357 473.941 319.045 476.705 319.592 479.276C320.108 481.699 320.781 483.837 320.703 486.451C320.581 490.513 319.413 493.986 317.812 498.413C316.822 501.151 317.14 504.56 316.069 507.825C315.047 510.942 312.592 513.637 310.858 517.11C309.684 519.459 309.214 522.087 308.21 524.838C307.019 528.103 305.065 530.637 303.284 532.77C302.658 533.518 301.694 534.518 301.071 534.699C298.505 535.444 298.972 529.159 299.046 524.657C299.116 520.423 301.093 518.33 302.067 515.311C302.868 512.828 303.756 510.604 304.394 507.665C304.963 505.043 305.018 502.572 305.12 495.981C305.198 490.941 304.833 484.751 304.608 480.293C304.489 477.912 303.087 476.167 302.375 475.908C299.083 474.706 299.557 480.945 298.715 483.483L298.675 483.603C297.651 486.691 296.695 489.57 296.033 492.923C295.473 495.759 295.275 498.371 295.004 500.75C294.838 502.206 294.641 503.479 293.923 504.331C293.563 504.758 293.117 505.087 292.661 504.998C290.378 504.552 289.944 501.079 289.145 497.31C288.282 493.234 288.261 490.438 287.999 487.961C287.716 485.284 287.426 482.944 286.935 480.441C286.473 478.08 285.811 475.668 285.22 472.866C284.553 469.701 286.255 467.174 286.958 465.027C287.727 462.674 288.952 460.481 289.806 458.471C290.706 456.352 291.382 454.144 292.776 452.11C294.047 449.866 294.97 447.281 295.112 444.857C294.994 444.295 294.7 443.812 294.396 442.8L292.661 441.5C292.433 440.608 290.469 437.564 289.519 434.838C288.779 432.713 287.857 429.908 286.632 427.087C285.578 424.661 284.853 421.89 284.437 419.44C284.063 417.237 283.252 414.963 281.885 411.577C280.824 408.949 279.87 406.499 279.125 403.359C278.534 400.864 277.293 398.435 276.122 395.934L275.961 395.588C274.575 392.628 273.254 389.807 272.498 387.073C271.821 384.627 270.901 381.824 269.747 378.782C268.823 376.345 267.173 373.855 265.809 371.111C264.255 367.983 263.462 364.975 262.895 362.66C262.193 359.796 262.158 356.795 262.006 352.6C261.907 349.864 261.201 347.36 260.794 344.471C260.454 342.054 260.017 339.214 259.807 336.51C259.629 334.207 259.159 329.932 258.918 322.967C258.779 318.951 257.726 314.766 256.718 311.372C256.038 309.085 255.026 307.112 252.372 301.305C250.943 298.178 249.767 295.823 248.804 293.58C247.614 290.806 247.098 288.62 246.674 286.411C246.212 284.007 246.082 281.237 245.5 278.555C244.891 275.746 244.237 272.757 243.559 270.025C242.969 267.644 242.124 265.36 241.097 261.801C240.323 259.12 239.994 256.388 239.717 253.907C239.291 248.256 238.352 248.485 238.914 245.811C239.039 245.148 238.949 240.972 239.007 240.378C238.978 239.721 238.95 239.468 238.914 239.229C238.744 238.331 238.611 237.475 238.376 236.57C238.071 235.535 237.993 233.004 238.058 231.29C238.133 229.301 237.851 226.756 237.857 224.468C237.871 218.406 238.003 217.464 238.137 216.092C238.284 214.595 238.477 213.141 238.55 211.629C238.685 208.825 238.745 206.873 238.879 205.898C239.061 204.567 239.124 202.658 239.335 201.267C239.497 200.209 239.542 199.169 239.712 198.224C239.929 197.017 240.116 196.008 240.303 194.525C240.501 192.943 240.676 190.72 240.805 188.716C240.893 187.339 241.098 186.093 241.445 184.652C241.721 183.511 242.038 182.05 242.447 180.995C243.05 179.44 243.645 177.85 244.57 176.287C245.337 174.992 245.819 173.992 246.571 173.075C247.399 172.064 248.807 170.315 250.022 169.581C251.098 168.931 251.753 167.79 252.949 167.79C254.107 167.789 255.199 168.044 256.539 168.097C258.591 168.177 260.052 168.189 261.224 168.741C262.819 169.492 264.519 170.132 265.29 170.726Z" fill="white" fill-opacity="0" stroke-opacity="0" stroke="black" stroke-width="2" stroke-linecap="round" stroke-dasharray="4 4"/>
<path id="trunk-right" d="M168.259 173.677L167.331 168.418L171.211 122.5L189.211 113V132L191.711 140L198.211 144L228.211 155.5C229.957 155.756 231.632 156.376 233.711 157.204C235.924 158.086 237.763 158.285 239.195 159C240.861 159.832 241.428 161.633 242.111 163.065C242.775 164.454 243.318 165.924 243.961 168.178C244.182 170.53 244.082 173.086 243.931 173.937C243.879 174.369 243.879 174.801 243.76 175.486L243.21 179L241.71 188L240.71 197.5L237.699 212L236.772 218.12C236.891 218.804 237.038 219.997 237.156 221.048C237.291 222.263 237.534 223.592 237.699 224.806C237.928 226.478 237.917 229.595 238.033 231.513C238.118 232.913 238.499 233.977 238.661 235.355C238.835 236.566 238.993 237.657 239.195 238.766L239.196 238.771C239.252 239.04 239.304 239.288 239.358 240.083L239.21 242C238.883 244.304 238.46 246.765 237.991 249.397C237.556 251.83 237.249 254.355 237.051 257.483C236.605 264.526 237.591 266.691 238.092 269.135C238.737 272.28 238.605 277.223 238.002 281.152C237.602 283.758 237.116 285.918 236.592 288.064C236.057 290.252 235.013 292.968 234.335 295.63C233.744 297.953 232.928 300.459 231.991 303.207C231.176 305.597 230.56 307.663 229.872 310.795C229.3 313.4 228.987 315.91 228.638 320.339C228.016 328.232 228.943 332.589 229.403 335.304C229.989 338.771 230.998 341.559 231.524 344.005C232.003 346.23 232.724 348.426 233.294 350.972C233.941 353.859 234.506 356.299 234.937 358.789C235.416 361.557 236.031 364.072 236.285 367.417C236.745 373.471 236.015 376.2 235.734 378.734C235.482 381.005 235.088 383.793 236.421 387.772C237.279 390.333 238.708 393.244 239.788 395.953C240.927 398.811 241.153 401.771 242.002 404.504L237.84 402.754C236.786 402.099 235.274 401.251 233.814 400.654C232.585 400.151 231.253 399.679 229.923 398.981C228.743 398.362 227.31 397.849 226.106 397.48C224.468 396.979 222.766 396.44 221.196 396.095C218.924 395.597 216.42 394.88 214.132 394.917C211.344 394.963 209.339 395.308 207.689 395.434C203.539 395.75 200.421 395.65 197.322 395.465C194.86 395.318 192.461 395.125 190.735 395.451C188.811 395.814 183.216 395.568 180.715 396.542L180.698 396.549C178.509 397.401 175.818 398.449 174.913 399.173C173.784 400.077 172.675 400.934 171.829 401.821C170.957 402.736 170.232 403.835 169.119 404.467C168.851 404.619 168.555 404.71 168.407 403.692C168.259 402.675 168.259 400.611 168.259 363.525V219.284V173.677Z" fill="white" fill-opacity="0" stroke-opacity="0" stroke="black" stroke-width="2" stroke-linecap="round" stroke-dasharray="4 4"/>
</g>
<g id="left">
<path id="leg-left" d="M87.9879 402.532C87.0601 402.823 86.2662 403.319 85.0049 404.114L79.5 407L78.8248 409.744C78.5968 410.389 78.8737 410.456 78.6102 414.393C78.4128 417.342 77.0767 419.497 76.1786 421.877C75.1557 424.589 74.6462 427.198 73.803 429.747C72.8244 432.705 71.4996 437.106 70.8263 440.277C70.1834 443.306 69.4952 446.493 69.1386 449.168C68.7955 451.741 68.5058 453.966 68.3277 457.405C68.1041 461.722 68.3405 467.125 68.4836 472.224C68.7214 480.701 68.1114 483.604 67.7876 486.326C67.3257 490.21 68.0041 496.575 68.1828 501.268C68.2894 504.068 68.0953 506.448 67.636 509.436C67.171 512.462 67.9507 516.046 69.1794 520.358C70.2796 524.219 70.6253 528.345 71.0355 531.193C71.3814 533.594 71.5981 536.245 72.1803 538.476C72.8858 541.179 73.2547 545.959 73.5345 549.029C73.7895 551.826 74.908 555.703 75.3619 558.878C75.8039 561.969 76.6055 565.186 77.0314 568.381C77.542 572.21 78.5806 575.613 79.4646 578.803C80.4088 582.211 81.1588 584.997 82.0318 588.274C83.0838 592.223 83.8612 594.649 85.2414 597.753C87.3564 602.511 87.3083 605.874 87.6393 609.635C87.8788 612.356 88.5728 614.577 89.0541 617.188C89.4773 619.485 89.8489 622.271 90.3069 625.141C90.676 627.454 90.8878 631.72 90.4605 635.97C90.0525 640.027 89.9511 642.212 89.8342 646.003C89.7406 649.038 88.7683 652.888 88.3895 656.063C87.7597 661.342 87.6244 667.657 87.2625 670.658C86.9041 673.632 86.4145 680.501 85.8801 684.995C85.5083 688.122 84.7067 690.629 84.154 693.536C83.7176 695.83 83.5308 698.107 83.2747 701.228L83.2735 701.243C82.7394 707.751 82.5353 711.048 82.9206 713.846C83.0743 714.962 83.5877 715.856 83.9332 716.367C84.0564 716.549 83.1461 716.615 82.7599 716.914C80.447 718.703 82.5122 724.108 82.9488 726.894C83.4935 730.369 84.2493 732.79 84.6233 735.55C84.9922 738.272 85.0769 741.357 85.2619 750.049C85.3365 753.558 86.6802 756.007 87.1102 759.189C87.541 762.376 87.857 765.98 88.0534 768.762C88.2129 771.022 89.3147 773.37 90.5128 776.171C91.4718 778.414 91.7803 780.749 92.1958 783.232C92.7387 786.476 93.5882 788.575 93.9099 790.881C94.2934 793.631 95.1191 796.297 96.3162 799.086C97.2279 801.21 97.9861 803.474 98.1993 805.917C98.4511 808.803 99.0178 813.039 100.239 816.578C101.377 819.875 101.799 822.536 101.918 828.145C101.994 831.739 101.034 834.472 100.388 836.554C99.7314 838.673 100.24 841.019 100.498 846.208C100.65 849.262 102.317 851.384 102.2 853.578C102.084 855.767 99.8852 857.89 98.4404 860.131C97.1818 862.083 97.2903 864.79 96.2446 867.547C95.3075 870.017 93.7045 872.208 92.4134 874.575C90.3757 878.31 89.4087 880.337 88.2372 882.552C87.1099 884.684 85.34 886.937 83.921 889.24C82.311 891.852 81.6367 895.901 80.9649 898.317C80.6666 899.39 80.5531 900.567 80.5282 901.737C80.5042 902.865 81.3216 903.817 82.2755 904.52C84.3135 906.022 86.8487 906.611 89.512 908.014C91.5917 909.109 96.5634 909.582 100.083 908.514C102.859 907.671 105.015 906.909 107.443 907.447C109.858 907.983 112.168 908.639 114.832 909.102C118.198 909.686 120.845 908.793 123.241 908.058C124.457 907.685 125.657 907.444 126.55 906.932C128.576 905.771 127.503 901.833 127.953 898.728C128.504 894.926 127.897 892.645 128.57 890.18C129.268 887.624 130.008 884.913 130.746 882.648C131.717 879.668 133.368 877.937 134.946 875.717C136.334 873.764 136.757 870.344 136.36 867.445C135.987 864.725 133.868 862.032 133.255 859.506C132.656 857.038 133.237 854.135 133.89 851.519C134.615 848.612 134.952 846.261 135.46 844.086C136.203 840.897 135.683 837.022 135.224 834.716C134.793 832.55 133.424 829.48 132.58 826.676C131.896 824.404 131.63 822.015 131.269 819.61L131.256 819.53C130.836 816.729 130.447 814.144 130.07 811.739C129.699 809.372 129.661 806.429 130.062 803.721C130.473 800.94 130.637 798.288 131.121 795.804C131.556 793.569 132.069 791.393 132.464 789.035C132.986 785.92 133.556 783.483 133.986 781.146C134.4 778.896 135.322 776.766 136.004 774.571C136.684 772.384 137.241 770.016 137.985 767.487C138.725 764.974 139.237 762.521 139.868 759.919C140.462 757.471 140.606 755.266 140.773 745.25C140.84 741.228 141.28 738.237 141.534 735.61C141.813 732.723 142.329 728.501 142.784 724.79C143.242 721.06 143.156 717.778 143.121 711.719C143.098 707.627 142.246 704.676 141.867 701.947C141.468 699.065 141.23 695.927 140.063 690.925C139.274 687.545 138.964 684.288 138.491 681.25C137.914 677.538 137.866 674.263 137.994 667.026C138.114 660.214 139.828 657.933 140.56 655.36C141.364 652.537 142.54 650.029 143.093 647.621C143.65 645.195 145.115 641.869 146.078 638.445C146.931 635.415 147.396 632.021 148.076 628.174C148.825 623.931 148.608 618.086 148.985 614.715C149.378 611.192 149.331 608.436 149.736 604.196C150.848 592.544 152.073 590.341 151.926 587.935C151.846 586.627 151.589 585.36 151.394 580.546C150.904 568.412 151.399 559.722 151.535 557.913C151.974 552.05 151.974 549.021 152.265 546.047C152.552 543.108 153.085 539.935 153.579 537.282C154.082 534.575 154.565 531.445 155.147 528.372C155.737 525.257 156.286 519.621 156.649 514.364C157.165 506.91 156.287 496.259 156.635 489.335C156.721 488.307 156.721 486.776 156.693 485.704L156.908 483.25C157.085 482.764 157.434 482.134 157.732 480.09C157.815 476.002 157.929 472.617 157.835 471.426L157.83 471.37C157.734 470.15 157.62 468.701 157.293 466.373C157.034 464.532 156.643 462.277 156.437 461.151C156.147 459.56 155.799 458.177 155.22 456.697C154.788 455.592 154.06 454.158 153.103 452.375C152.734 451.688 151.36 449.031 149.859 445.328C149.238 443.797 149.035 443.299 148.792 442.724C148.091 441.069 146.77 437.965 145.937 436.103C145.377 434.852 144.263 433.436 143.084 430.497C142.556 429.179 142.169 428.156 141.301 426.432C140.443 424.729 139.752 423.273 138.983 422.441C137.72 421.073 136.247 418.884 135.026 417.372C133.362 415.309 132.119 414.014 131.277 413.149C130.606 412.459 129.849 411.792 129.128 411.162C128.363 410.494 127.274 409.667 125.93 408.495C123.773 406.614 122.437 405.606 121.112 404.586C120.02 403.745 118.533 402.896 117.484 402.249C116.707 401.771 115.25 400.918 113.933 400.679C112.841 400.481 111.219 399.72 109.092 399.677C107.94 399.654 106.862 399.784 105.454 400.178C104.236 400.518 102.964 400.548 98.4559 400.654L98.4234 400.655C96.4884 400.7 94.661 400.88 93.2456 401.212C91.1893 401.694 89.4354 402.079 87.9879 402.532Z" fill="white" fill-opacity="0" stroke-opacity="0" stroke="black" stroke-width="2" stroke-linecap="round" stroke-dasharray="4 4"/>
<path id="arm-left" d="M56.4192 170.726C55.6745 171.3 55.1252 172.081 54.9289 172.323L52.6618 175.13C49.5255 178.758 47.1954 182.064 45.534 185.176C43.8335 188.361 42.9721 191.514 41.9187 194.751C40.2072 200.012 40.9112 207.898 40.9076 211.222C40.9024 215.966 40.7635 223.581 40.5534 235.088C40.4142 242.713 40.593 251.101 39.5737 254.212C38.5121 257.451 36.5437 260.449 35.6292 264.536C34.5731 269.255 33.2124 272.802 32.1354 276.205C31.1294 279.384 31.299 283.685 30.7024 287.772C30.138 291.637 29.2939 295.199 28.8622 303.751C28.6435 308.085 26.3774 311.12 25.1075 314.316C23.7939 317.621 22.3727 320.975 21.1682 324.082C19.9779 327.152 18.586 331.864 17.3498 336.477C16.4013 340.017 15.7542 343.819 15.1779 347.549C14.0718 354.707 14.4304 363.986 13.6995 367.874C13.4676 373.897 13.3825 381.562 12.9936 383.221C12.8613 384.12 12.8613 385.135 12.8613 386.18L13 390C13 394.406 12.986 396.202 12.6901 399.06C12.3442 402.401 11.1976 406.835 10.3708 410.111C9.49067 413.598 9.23442 420.845 9.41311 426.125C9.60756 431.87 8.90182 434.748 8.3629 437.455C7.84723 440.046 7.7441 446.341 7.48733 450.667C7.30245 453.783 6.32183 457.865 5.53669 461.115C4.58793 465.043 3.85568 467.47 3.55234 471.37C3.35238 473.941 2.6643 476.705 2.11676 479.276C1.60063 481.699 0.927664 483.837 1.00631 486.451C1.12848 490.513 2.29571 493.986 3.89698 498.413C4.88709 501.151 4.56881 504.56 5.6399 507.825C6.66246 510.942 9.11716 513.637 10.8513 517.11C12.0246 519.459 12.4949 522.087 13.4988 524.838C14.6902 528.103 16.6442 530.637 18.4254 532.77C19.0507 533.518 20.015 534.518 20.6382 534.699C23.2036 535.444 22.7371 529.159 22.6628 524.657C22.5928 520.423 20.6159 518.33 19.6419 515.311C18.8408 512.828 17.9527 510.604 17.3148 507.665C16.7459 505.043 16.691 502.572 16.5888 495.981C16.5106 490.941 16.8762 484.751 17.1006 480.293C17.2204 477.912 18.6225 476.167 19.3344 475.908C22.6255 474.706 22.1517 480.945 22.994 483.483L23.0335 483.603C24.0584 486.691 25.0137 489.57 25.676 492.923C26.236 495.759 26.4336 498.371 26.7049 500.75C26.8709 502.206 27.0682 503.479 27.7862 504.331C28.1456 504.758 28.5917 505.087 29.0482 504.998C31.331 504.552 31.7653 501.079 32.5638 497.31C33.4272 493.234 33.4484 490.438 33.7099 487.961C33.9925 485.284 34.2833 482.944 34.7736 480.441C35.2361 478.08 35.8981 475.668 36.4886 472.866C37.1555 469.701 35.4535 467.174 34.7513 465.027C33.9821 462.674 32.7569 460.481 31.9031 458.471C31.0033 456.352 30.3267 454.144 28.9332 452.11C27.6621 449.866 26.7394 447.281 26.5965 444.857C26.7147 444.295 27.0092 443.812 27.3127 442.8L29.0479 441.5C29.2762 440.608 31.2404 437.564 32.19 434.838C32.93 432.713 33.8522 429.908 35.0771 427.087C36.1305 424.661 36.8559 421.89 37.2719 419.44C37.6459 417.237 38.4569 414.963 39.824 411.577C40.8851 408.949 41.839 406.499 42.5837 403.359C43.1753 400.864 44.4164 398.435 45.5865 395.934L45.7484 395.588C47.1341 392.628 48.4547 389.807 49.2111 387.073C49.888 384.627 50.8082 381.824 51.9616 378.782C52.8857 376.345 54.536 373.855 55.8998 371.111C57.4544 367.983 58.2472 364.975 58.8144 362.66C59.5165 359.796 59.5505 356.795 59.7028 352.6C59.8021 349.864 60.5078 347.36 60.9146 344.471C61.2549 342.054 61.6918 339.214 61.9017 336.51C62.0804 334.207 62.5499 329.932 62.7911 322.967C62.9302 318.951 63.9827 314.766 64.9913 311.372C65.671 309.085 66.683 307.112 69.3372 301.305C70.7659 298.178 71.9421 295.823 72.9048 293.58C74.0953 290.806 74.6113 288.62 75.0355 286.411C75.497 284.007 75.6272 281.237 76.2089 278.555C76.8181 275.746 77.4719 272.757 78.1496 270.025C78.7403 267.644 79.5849 265.36 80.6122 261.801C81.3861 259.12 81.715 256.388 81.9917 253.907C82.4185 248.256 83.3573 248.485 82.7954 245.811C82.6698 245.148 82.7604 240.972 82.7021 240.378C82.7309 239.721 82.7588 239.468 82.7954 239.229C82.9654 238.331 83.0981 237.475 83.3326 236.57C83.6384 235.535 83.7161 233.004 83.651 231.29C83.5755 229.301 83.858 226.756 83.8524 224.468C83.8375 218.406 83.7057 217.464 83.5715 216.092C83.4251 214.595 83.2317 213.141 83.159 211.629C83.0242 208.825 82.9636 206.873 82.83 205.898C82.6476 204.567 82.5854 202.658 82.3735 201.267C82.2124 200.209 82.1673 199.169 81.9973 198.224C81.7802 197.017 81.5928 196.008 81.4064 194.525C81.2076 192.943 81.0327 190.72 80.9042 188.716C80.816 187.339 80.6113 186.093 80.2637 184.652C79.9884 183.511 79.6713 182.05 79.2625 180.995C78.6591 179.44 78.0638 177.85 77.1387 176.287C76.3723 174.992 75.8897 173.992 75.138 173.075C74.31 172.064 72.9024 170.315 71.6871 169.581C70.6106 168.931 69.9565 167.79 68.76 167.79C67.6016 167.789 66.5103 168.044 65.1696 168.097C63.1178 168.177 61.6565 168.189 60.4845 168.741C58.8901 169.492 57.19 170.132 56.4192 170.726Z" fill="white" fill-opacity="0" stroke-opacity="0" stroke="black" stroke-width="2" stroke-linecap="round" stroke-dasharray="4 4"/>
<path id="trunk-left" d="M153.452 173.677L154.38 168.418L150.5 122.5L132.5 113V132L130 140L123.5 144L93.5 155.5C91.7544 155.756 90.0788 156.376 88 157.204C85.7865 158.086 83.9482 158.285 82.516 159C80.8499 159.832 80.2832 161.633 79.5995 163.065C78.9364 164.454 78.3933 165.924 77.7495 168.178C77.5287 170.53 77.6287 173.086 77.7803 173.937C77.8318 174.369 77.8318 174.801 77.951 175.486L78.501 179L80.001 188L81.001 197.5L84.0116 212L84.9394 218.12C84.8203 218.804 84.6727 219.997 84.5554 221.048C84.4197 222.263 84.1774 223.592 84.0116 224.806C83.7829 226.478 83.794 229.595 83.6777 231.513C83.5928 232.913 83.2124 233.977 83.0502 235.355C82.876 236.566 82.7178 237.657 82.516 238.766L82.515 238.771C82.4588 239.04 82.4069 239.288 82.3525 240.083L82.501 242C82.8284 244.304 83.2505 246.765 83.7204 249.397C84.1548 251.83 84.4619 254.355 84.66 257.483C85.1061 264.526 84.1197 266.691 83.6186 269.135C82.9738 272.28 83.1063 277.223 83.7091 281.152C84.1089 283.758 84.5946 285.918 85.1193 288.064C85.654 290.252 86.6983 292.968 87.3758 295.63C87.9672 297.953 88.7833 300.459 89.7198 303.207C90.5346 305.597 91.1506 307.663 91.8385 310.795C92.4107 313.4 92.7243 315.91 93.073 320.339C93.6946 328.232 92.7681 332.589 92.3084 335.304C91.7216 338.771 90.7132 341.559 90.1866 344.005C89.7076 346.23 88.9867 348.426 88.4166 350.972C87.7704 353.859 87.205 356.299 86.7744 358.789C86.2954 361.557 85.6802 364.072 85.4259 367.417C84.9655 373.471 85.6962 376.2 85.9773 378.734C86.2291 381.005 86.6231 383.793 85.2899 387.772C84.4319 390.333 83.003 393.244 81.9231 395.953C80.7842 398.811 80.5584 401.771 79.709 404.504L83.8712 402.754C84.9254 402.099 86.4364 401.251 87.8974 400.654C89.1264 400.151 90.4581 399.679 91.7884 398.981C92.9681 398.362 94.4008 397.849 95.6051 397.48C97.2432 396.979 98.9453 396.44 100.515 396.095C102.787 395.597 105.291 394.88 107.579 394.917C110.367 394.963 112.372 395.308 114.022 395.434C118.172 395.75 121.29 395.65 124.389 395.465C126.851 395.318 129.249 395.125 130.976 395.451C132.9 395.814 138.495 395.568 140.996 396.542L141.013 396.549C143.202 397.401 145.893 398.449 146.798 399.173C147.927 400.077 149.036 400.934 149.882 401.821C150.754 402.736 151.479 403.835 152.592 404.467C152.86 404.619 153.156 404.71 153.304 403.692C153.452 402.675 153.452 400.611 153.452 363.525V219.284V173.677Z" fill="white" fill-opacity="0" stroke-opacity="0" stroke="black" stroke-width="2" stroke-linecap="round" stroke-dasharray="4 4"/>
</g>
</g>
</g>
</svg>
