<svg width="544" height="311" viewBox="0 0 544 311" fill="none" xmlns="http://www.w3.org/2000/svg">
<path d="M69.2854 153.715H78.7552V171.809H45.0739V153.715H54.5007V143.114H24.5586V153.715H34.0856V207.009H24.5586V217.56H54.5007V207.009H45.0668V182.282H78.748V207.009H69.2854V217.56H99.2991V207.009H89.7435V153.715H99.3063V143.114H69.2926M430.467 207.009H400.955V182.174H426.341V171.666H400.948V153.715H430.689V163.901H441.147V143.114H379.974V153.715H389.952V207.009H379.974V217.56H441.291V192.754H430.474M174.627 192.754H163.811V207.009H134.298V182.174H159.692V171.666H134.298V153.715H164.047V163.901H174.505V143.114H113.332V153.715H123.31V207.009H113.325V217.56H174.627M403.798 139.439H425.252L419.765 132.899H397.774M500.953 174.99C493.467 172.855 488.181 173.342 480.566 170.799C473.69 168.493 472.329 164.266 472.329 161.466C472.329 158.651 475.366 151.351 486.168 151.351C496.984 151.351 504.061 158.5 504.463 164.797L504.506 164.768V164.797H514.892V143.092H504.842V147.82L505.157 149.295C505.086 149.081 504.799 148.486 503.739 147.433C503.725 147.412 503.725 147.397 503.725 147.376C500.537 144.51 494.463 141.387 485.33 141.387C474.263 141.387 461.226 148.25 461.226 161.516C461.226 174.445 470.566 178.958 478.489 181.05C486.426 183.156 490.473 183.156 497.092 184.947C503.696 186.737 507.98 190.72 507.98 196.623C507.98 202.21 504.541 209.538 490.559 209.538C476.555 209.538 471.025 201.988 469.406 191.186L469.291 191.236H459.406V217.582H469.735V212.654L469.707 212.618L469.334 211.314C469.334 211.314 469.707 212.195 470.882 213.012L470.982 213.155C476.211 217.166 483.073 219.831 491.87 219.831C501.683 219.831 518.86 214.795 518.86 196.959C518.832 184.194 512.055 178.177 500.953 174.983V174.99ZM335.655 207.009V217.56H366.027V207.009H356.07V153.715H366.027V143.114H338.879L320.899 186.623L320.527 188.757L320.168 186.587L302.189 143.106H275.069V153.708H285.004V207.002H275.055V217.553H305.405V207.009H295.914V157.999L295.986 154.761L296.867 157.34L317.568 206.873H323.456L344.23 157.325L344.989 154.718L345.103 157.655V207.009M128.195 111.768V114.203H138.439C137.425 113.44 136.45 112.627 135.516 111.768H128.195ZM404.092 111.811H398.763C397.28 112.097 396.184 113.351 396.062 114.203H404.085V111.803L404.092 111.811ZM128.195 121.309H404.049V116.151H226.632C222.097 118.315 216.345 118.214 211.861 116.151H157.994C152.908 118.386 147.049 118.372 141.949 116.173L128.195 116.137V121.295V121.309ZM205.873 111.768H164.212C164.069 112.054 162.163 113.702 161.39 114.203H208.523C207.546 113.499 206.656 112.682 205.873 111.768Z" fill="black"/>
<path d="M132.922 92.6372C132.412 94.2681 132.139 95.9641 132.113 97.6729C132.244 102.306 134.176 106.707 137.499 109.938C140.822 113.17 145.275 114.978 149.91 114.979C154.545 114.98 158.999 113.173 162.323 109.943C165.648 106.713 167.582 102.314 167.714 97.68C167.714 95.5741 167.284 93.5755 166.611 91.6988C168.66 91.3406 170.665 90.9108 172.642 90.3593C173.573 90.1086 173.538 89.6859 172.807 89.4639C170.171 88.6544 167.363 88.0312 164.498 87.5012C162.862 85.1497 160.683 83.2286 158.145 81.9015C155.606 80.5744 152.785 79.8807 149.921 79.8795C147.628 79.8795 145.465 80.3451 143.474 81.1331C143.445 81.1188 143.417 81.0758 143.402 81.0615C142.997 80.3303 142.766 79.5151 142.729 78.6799C142.692 77.8447 142.849 77.0122 143.187 76.2478C145 73.2966 149.018 72.1433 152.32 71.864C153.431 71.8066 156.095 71.9356 156.382 72.2508C157.027 72.7665 158.137 72.9528 159.319 72.5373C160.451 72.9671 160.737 73.3038 162.026 73.7049C173.373 77.573 185.937 79.6145 198.63 77.2865C200.614 79.1632 201.71 82.4583 203.1 84.7362C203.473 85.3092 203.924 84.3064 210.177 84.0915C212.384 84.0055 215.091 84.0199 217.448 84.0772C212.577 84.6359 208.386 87.3722 205.901 91.3263C201.99 92.5727 198.974 93.7618 197.842 94.4494C196.453 95.2875 196.195 95.7531 197.842 96.1829C199.834 96.7058 201.768 97.0425 203.695 97.2789C203.566 98.0668 203.451 98.8763 203.451 99.7C203.451 103.89 205.116 107.908 208.078 110.871C211.041 113.834 215.059 115.498 219.249 115.498C223.439 115.498 227.458 113.834 230.421 110.871C233.383 107.908 235.048 103.89 235.048 99.7C235.048 96.978 234.296 94.4494 233.085 92.2145C235.076 91.4982 237.168 90.7103 239.389 89.8507C241.108 90.4739 242.275 91.4982 243.508 92.9308C244.51 94.0626 246.781 93.6185 248.128 93.289C250.313 92.716 250.649 90.9753 250.635 88.9911C250.635 88.0885 250.678 87.2003 251.108 86.484C253.665 80.6603 263.887 79.8939 269.13 78.6045C269.13 78.6045 266.387 81.8996 264.445 82.6302C264.052 91.1329 260.792 98.5325 260.398 106.641C262.87 106.741 262.762 109.506 263.357 111.082C262.669 112.572 261.48 111.082 260.398 111.584C256.645 109.506 261.287 106.154 258.221 103.582C259.797 96.7775 262.375 90.1515 262.16 82.9382C261.179 83.0385 260.799 84.1273 260.391 84.9153C259.696 91.7418 257.726 97.9666 255.95 104.284C256.738 104.678 258.12 105.072 258.027 106.262C255.649 107.744 258.12 110.13 257.132 111.82H232.741L230.034 114.256H267.44L267.798 112.88C262.282 107.15 264.36 98.5539 266.917 92.0355L273.335 83.3394C278.672 81.262 281.931 74.7436 287.561 72.6662C287.561 75.4384 284.101 76.6275 282.224 78.2034C280.262 82.8451 274.03 83.3394 273.142 88.4825C275.505 91.2475 279.051 93.024 282.024 95.5955C285.09 97.4795 283.987 101.426 286.465 103.403C286.866 103.998 286.465 104.886 285.763 105.38C283.163 106.004 283.242 107.759 284.81 109.22C285.813 110.151 286.959 111.369 286.83 111.827H269.567C269.567 112.615 270.269 112.916 271.028 114.263H366.37C367.087 112.916 365.532 111.326 364.866 110.001C358.133 107.458 358.168 101.09 357.774 94.0698C357.846 93.7833 357.388 93.1171 357.459 91.6701C356.456 90.7246 352.03 79.4569 354.042 70.6391L355.511 67.738C356.893 65.7538 355.425 64.6936 356.406 62.6235L376.499 58.741C376.857 58.5548 376.764 57.7382 376.384 57.3657L370.281 58.4975C365.432 56.456 358.319 51.9432 353.634 45.8187C355.088 35.8905 354.365 27.8391 353.383 22.4667C356.32 20.0312 358.713 17.7247 358.713 17.7247C360.74 18.9424 361.177 18.3694 361.456 17.7104C361.134 17.3379 358.125 16.0628 358.62 14.7591C360.518 15.2606 360.941 14.6732 361.234 13.613L359.902 13.1403H359.859L360.074 12.4239C360.461 11.636 362.251 12.381 362.939 12.1804C364.135 11.4497 362.796 10.3538 363.197 9.36527C360.403 7.00142 355.36 6.92979 352.309 4.73069C351.363 2.96855 350.977 2.22358 349.988 1.50726C348.971 0.790947 344.544 0.382646 343.72 0.647684C342.911 0.934211 341.356 2.38834 341.356 2.38834C338.183 3.05451 336.271 2.03018 334.086 0.704989C334.086 0.704989 334.551 3.2121 337.051 4.27225C334.845 5.17481 333.871 7.03724 333.513 9.37243C330.476 9.98846 330.361 13.0113 330.755 14.3867C328.269 15.8694 328.513 17.8393 329.394 19.8307C327.173 21.3206 327.51 23.4696 328.14 25.1099C326.278 26.256 328.14 29.4365 328.427 31.2989C333.778 30.1958 340.461 42.0078 350.06 43.462C351.865 35.0309 349.601 30.8978 347.524 26.736C349.086 25.8262 350.783 24.5727 352.431 23.2547C353.391 28.5912 354.078 36.3203 353.004 45.1525C352.932 45.0808 352.861 45.0235 352.818 44.9519C352.216 44.9519 351.614 44.5508 351.127 44.3574C351.227 44.6439 352.33 46.3989 352.108 46.7212C352.108 46.7212 349 48.777 342.832 46.184C341.185 50.0378 320.01 59.5075 320.01 59.5075C320.798 65.3526 323.577 69.2351 326.443 72.4012C330.991 75.7679 335.848 77.5014 341.586 78.6905C342.789 81.7993 346.672 92.1429 347.03 93.8048C347.417 95.4666 348.341 95.4666 348.341 95.4666C348.892 96.2116 350.704 99.5066 350.905 101.09L351.356 106.677C351.55 107.952 353.219 106.992 353.534 108.081L352.76 111.834L289.33 111.849C290.219 107.408 287.955 103.525 289.13 99.5711C286.58 95.1299 279.66 92.0641 280.835 86.2333C284.202 81.5915 294.66 77.0644 292.296 71.4557C301.801 66.6348 306.816 74.6791 315.82 74.0845C318.957 73.9126 322.453 73.5688 325.325 72.7235C321.772 69.6434 318.377 65.1162 316.586 61.0691C297.718 68.662 279.366 74.9155 258.908 79.0629L257.332 78.5615C255.778 78.7979 233.243 83.8623 227.269 86.1903C225.7 85.247 223.979 84.5852 222.183 84.2348H222.706C224.618 84.2348 227.541 83.2176 229.611 82.4941C238.364 79.2993 241.588 66.8354 245.513 58.9129C248.952 71.2336 256.931 72.2364 261.559 70.7035L261.989 74.5716C261.989 74.5716 266.029 74.4284 269.066 73.2106C268.758 72.48 268.349 70.5244 268.063 67.9529C269.904 67.0002 270.9 66.3053 271.738 65.8182C271.988 68.7408 272.167 71.4986 271.293 72.9814L281.709 70.2021C283.714 61.198 289.158 48.6839 298.779 39.5437C285.863 34.4077 276.186 40.2744 273.729 42.6239C261.573 46.5063 261.086 63.2825 261.451 69.056C259.345 69.4715 250.506 72.5373 246.323 57.2368C248.758 51.363 253.378 44.8301 258.572 39.7371C259.023 39.3575 258.5 38.7558 257.461 39.3646C247.025 46.5278 243.207 59.135 237.598 69.7795C233.2 76.3911 227.261 79.9727 218.358 79.593C207.24 79.4211 201.861 67.8239 196.768 60.2954C188.96 43.1969 168.76 49.3358 153.746 45.6826C152.908 45.2528 151.239 40.3102 148.846 40.4964C147.149 40.6254 148.746 42.3732 147.772 42.9605C145.888 42.1726 144.305 40.7901 141.941 41.1841C140.458 41.4849 140.057 43.0608 140.164 44.4505C141.346 49.8802 147.17 52.2583 151.518 54.2354C153.187 56.7282 152.564 65.3383 151.174 68.2967C149.383 71.5918 142.342 70.417 140.931 77.967C140.659 79.4999 141.003 80.8322 141.633 82.0858C138.898 83.5239 136.583 85.6464 134.914 88.2461C131.927 88.9624 129.011 89.7647 126.289 90.7389C125.573 90.9968 125.573 91.4123 126.504 91.6271C128.603 92.0569 130.759 92.4151 132.937 92.6873L132.922 92.6372ZM355.368 50.3601C357.946 53.1752 364.107 57.4517 368.046 58.8485L356.636 60.9616C357.925 56.1265 353.534 54.2712 355.368 50.3601ZM356.6 11.2277C357.029 11.0486 358.233 11.5142 358.727 11.6432C359.028 11.7148 358.913 12.3595 358.763 12.9325C358.018 13.0901 356.858 12.6818 356.7 12.2878C356.485 11.8581 356.177 11.4139 356.6 11.2277ZM356.693 14.1646C356.836 15.0027 357.18 15.9554 357.674 16.6717C357.66 17.0585 355.547 19.0141 353.111 21.0771C352.51 18.09 351.893 16.0342 351.75 15.2176C352.717 14.5299 355.332 13.7849 356.693 14.1646ZM345.769 3.68487C346.199 3.54161 347.073 3.82813 347.309 4.00005C347.545 4.17913 347.352 4.90261 347.338 5.14616C347.338 5.3897 346.249 5.90545 346.249 5.90545C346.249 5.90545 345.217 5.1175 345.232 4.87396L345.182 4.85247C345.35 4.45028 345.547 4.06016 345.769 3.68487ZM347.108 25.7689C345.762 23.0469 344.673 20.1673 344.96 15.9554C346.263 15.9339 348.154 16.7863 350.654 15.6545C350.654 15.6545 351.428 17.9897 352.194 21.8149C350.332 23.3693 348.398 24.8807 347.108 25.7689ZM330.024 73.1175C325.941 71.0688 328.484 72.788 329.666 71.8998C336.135 74.8797 339.394 74.192 344.236 73.6046C344.931 74.4928 345.884 75.3238 345.884 76.5057C339.96 78.189 335.354 76.0043 330.017 73.1247L330.024 73.1175ZM353.326 104.994C352.946 101.856 352.767 99.6356 351.32 98.1385C350.174 95.0153 346.851 86.3336 344.487 78.5114C345.919 77.0931 347.03 77.8309 347.982 81.7205C348.892 84.858 349.988 87.451 350.819 90.0727C351.922 92.7088 352.753 96.2187 353.598 98.0668C353.598 98.0668 354.343 98.1958 354.759 99.1915C356.836 104.994 357.381 105.925 357.03 108.69C357.531 110.86 360.582 109.091 360.303 111.77H353.828L356.679 111.749C354.716 109.671 356.105 106.577 353.326 104.994ZM227.025 110.187C225.234 111.526 223.085 112.379 220.743 112.651C220.514 112.579 220.313 112.114 220.299 111.827L219.926 103.754C219.912 103.668 220.055 103.575 220.141 103.54C220.342 103.468 220.893 103.253 221.115 103.124C221.201 103.074 221.423 103.052 221.495 103.124L226.796 109.27C226.982 109.499 227.154 110.001 227.011 110.201L227.025 110.187ZM218.83 112.766C216.681 112.694 214.676 112.085 212.906 111.104C212.763 110.903 212.813 110.373 212.978 110.137L217.405 103.389C217.448 103.317 217.62 103.317 217.72 103.346C217.906 103.403 218.343 103.525 218.594 103.561C218.694 103.561 218.881 103.704 218.881 103.797L219.275 111.892C219.289 112.178 219.06 112.68 218.823 112.751L218.83 112.766ZM207.656 95.9537C207.369 95.8677 206.94 95.4809 206.954 95.2374C207.362 94.1199 207.885 93.0669 208.566 92.1142C209.64 91.8062 210.75 91.5125 211.861 91.226L215.442 95.7388L215.277 95.7603C212.957 96.0468 210.786 96.1901 208.73 96.2187L207.656 95.9322V95.9537ZM217.734 86.7132C217.949 86.7992 218.164 87.2576 218.164 87.537L218.2 88.1673C216.051 88.5828 213.945 89.0484 211.925 89.5642C211.796 89.2991 211.732 88.9911 211.839 88.8478C213.558 87.6802 215.564 86.9639 217.713 86.7204L217.734 86.7132ZM216.603 95.5239L212.964 90.9681C214.726 90.5383 216.502 90.1444 218.279 89.7934L218.522 95.1299C217.806 95.3019 217.212 95.4165 216.603 95.5239ZM216.259 96.9566C216.244 97.0067 216.259 97.0568 216.23 97.0998C216.058 97.3447 215.903 97.6008 215.765 97.8663C215.722 97.9594 215.55 98.0955 215.442 98.0812L212.828 97.3649C213.945 97.2502 215.084 97.15 216.266 96.9494L216.259 96.9566ZM221.08 95.9824C221.037 96.054 220.865 96.054 220.764 96.0182H220.729L221.108 95.9322L221.087 95.9752L221.08 95.9824ZM219.554 94.8721L219.303 89.5928C221.495 89.1773 223.651 88.8335 225.707 88.59C225.683 88.8094 225.62 89.0229 225.521 89.2203L222.276 94.1486C221.316 94.4351 220.428 94.6572 219.554 94.8721ZM226.38 89.7862C226.524 89.5498 226.982 89.2848 227.226 89.3349C228.157 90.0656 229.016 90.9108 229.733 91.8635C227.799 92.5082 225.793 93.1243 223.802 93.726L226.38 89.7862ZM219.217 87.9739L219.203 87.4725C219.189 87.1717 219.418 86.6416 219.647 86.5914C221.008 86.6273 222.297 86.8923 223.515 87.3078C222.082 87.494 220.664 87.7089 219.217 87.9668V87.9739ZM219.038 86.5771C219.11 86.5771 219.167 86.5556 219.232 86.5556L219.403 86.57H219.031L219.038 86.5771ZM200.285 95.4881C199.583 95.2732 199.748 95.0583 200.17 94.8792C201.581 94.3205 203.165 93.7689 204.826 93.2317C204.418 94.1486 204.11 95.1085 203.867 96.097C202.657 96.005 201.458 95.7964 200.285 95.4881ZM206.338 97.5296C207.398 97.5869 208.487 97.5726 209.583 97.5511L215.141 99.0768C215.213 99.0983 215.27 99.2631 215.27 99.3634C215.27 99.5783 215.306 100.151 215.371 100.402C215.371 100.502 215.299 100.581 215.213 100.617L207.799 103.891C207.527 103.998 206.99 103.991 206.825 103.805C206.363 102.482 206.116 101.094 206.094 99.6929C206.094 98.9479 206.195 98.2388 206.309 97.5439L206.338 97.5296ZM207.162 104.815L207.14 104.764C207.14 104.786 207.154 104.8 207.162 104.815ZM207.563 105.56C207.563 105.316 207.957 104.943 208.207 104.829L215.657 101.72C215.729 101.677 215.872 101.792 215.929 101.863C216.058 102.021 216.252 102.257 216.431 102.436C216.517 102.508 216.588 102.723 216.545 102.795L212.104 109.571C211.947 109.814 211.459 110.072 211.23 110.001C209.696 108.812 208.448 107.294 207.577 105.56H207.563ZM211.982 110.595C211.911 110.545 211.861 110.502 211.796 110.466L211.99 110.588L211.982 110.595ZM228.529 108.941C228.314 109.069 227.777 108.797 227.577 108.582L222.297 102.444C222.226 102.386 222.283 102.229 222.34 102.136C222.482 101.925 222.609 101.705 222.72 101.477C222.77 101.383 222.935 101.247 223.042 101.262L230.85 103.425C231.094 103.497 231.495 103.762 231.581 103.998C230.915 105.86 229.898 107.565 228.529 108.941ZM232.097 102.207C231.968 102.422 231.38 102.494 231.094 102.422L223.322 100.273C223.229 100.252 223.178 100.087 223.178 99.9866C223.179 99.6872 223.16 99.388 223.121 99.0912C223.1 98.9909 223.157 98.776 223.243 98.733L230.793 95.8677C231.058 95.7675 231.581 95.8176 231.76 95.9967C232.097 97.1714 232.333 98.382 232.333 99.6714C232.333 100.531 232.24 101.391 232.082 102.214L232.097 102.207ZM231.094 94.1486C231.094 94.3993 230.7 94.7933 230.435 94.9007L230.936 94.7288L222.892 97.7517C222.806 97.7875 222.677 97.68 222.62 97.6084C222.442 97.3661 222.251 97.1341 222.047 96.9136C221.954 96.8419 221.889 96.6414 221.925 96.5554L222.62 95.5024C225.07 94.8577 227.706 94.0268 230.499 93.0669C230.714 93.4251 230.929 93.7833 231.101 94.1558L231.094 94.1486ZM252.082 82.6159C248.586 85.1373 250.234 88.11 248.07 88.7046C247.283 88.59 242.884 89.3922 242.197 89.7074C240.714 88.3249 239.202 87.1573 236.925 86.5556C241.258 84.7792 248.128 83.017 252.082 82.6159ZM237.863 88.8837C237.111 89.2418 235.105 90.0154 232.405 90.961C231.732 89.9507 230.944 89.0227 230.055 88.196C233.436 88.0169 236.194 88.196 237.863 88.8837ZM275.599 44.6296C270.312 49.9446 270.993 57.8814 271.609 64.1277C270.391 65.016 268.887 65.7609 267.912 66.3053C267.339 58.6407 268.156 47.2083 275.599 44.6296ZM143.295 47.3229C142.407 46.1338 141.103 44.3144 142.113 43.0752C142.858 42.1583 144.376 42.8746 145.265 43.2757C146.017 43.6697 151.941 46.8573 153.552 47.3014C165.515 50.2813 180.629 45.8903 190.113 54.4861C190.579 54.9159 190.916 55.3242 190.815 55.9187C176.897 46.4347 155.938 60.4602 143.295 47.3229ZM154.555 62.6378C155.544 63.2323 155.938 64.8082 157.027 65.6965C158.803 68.662 162.163 69.6505 163.939 72.2149C163.339 72.2621 162.735 72.2186 162.148 72.086C160.988 71.8568 160.529 71.513 159.555 71.0832C159.039 70.2451 157.743 69.9657 156.726 70.5101C155.916 70.6534 153.674 70.5459 152.184 70.152C152.471 67.7738 154.763 65.4959 154.548 62.6306L154.555 62.6378ZM140.63 88.2103L144.269 92.2575C141.633 92.236 139.09 92.1142 136.676 91.9495C136.49 91.6916 136.389 91.4481 136.44 91.3048C136.905 90.3306 137.471 89.4281 138.123 88.5828C138.932 88.4395 139.785 88.3321 140.63 88.2246V88.2103ZM162.206 89.2132C162.65 89.8578 163.008 90.5455 163.352 91.2547C161.561 91.5197 159.655 91.7203 157.65 91.8779L160.494 89.4424C161.21 88.8693 162.026 88.9911 162.206 89.2132ZM159.698 88.5828L155.658 92.0211C154.627 92.0928 153.581 92.1214 152.528 92.1644L154.176 87.4797C156.224 87.5513 158.216 87.6946 160.071 87.8808C159.985 88.1315 159.913 88.3822 159.713 88.5828H159.698ZM158.71 109.678C157.277 110.724 155.658 111.498 153.911 111.992C153.595 111.949 152.994 111.462 152.822 110.746L151.246 102.2C151.217 102.093 151.26 101.956 151.368 101.913C151.67 101.816 151.958 101.681 152.227 101.512C152.32 101.441 152.442 101.491 152.514 101.57L158.352 107.988C158.925 108.661 158.903 109.435 158.71 109.671V109.678ZM146.346 94.564C146.418 94.6357 146.447 94.7933 146.382 94.8792C146.203 95.0941 146.139 95.1658 145.995 95.4308C145.945 95.5311 145.823 95.5454 145.709 95.5024L139.205 93.1816C141.21 93.2962 143.23 93.3463 145.243 93.3463L146.346 94.564ZM152.793 94.2417C152.597 94.0617 152.381 93.9054 152.148 93.7761C152.034 93.7188 152.005 93.6328 152.048 93.5111L152.17 93.1816L154.433 93.0669L153.072 94.2131C153.001 94.2847 152.879 94.3133 152.793 94.2417ZM151.253 92.2002C150.68 92.2145 150.136 92.2503 149.577 92.2575H149.548L148.653 87.4582C148.939 87.4439 149.19 87.408 149.469 87.3866C150.651 87.3866 151.805 87.4295 152.965 87.4582L151.246 92.2074L151.253 92.2002ZM147.471 87.5298L148.345 92.2575C147.521 92.2718 146.697 92.2718 145.859 92.2575L141.991 88.0312C143.768 87.8163 145.587 87.6516 147.471 87.5298ZM148.438 93.332C148.416 93.3606 148.438 93.4179 148.395 93.4323C148.094 93.5398 147.806 93.6791 147.535 93.8477C147.435 93.9194 147.32 93.8692 147.249 93.7904L146.848 93.3463C147.378 93.332 147.922 93.3463 148.445 93.3248L148.438 93.332ZM136.117 91.8994C136.139 91.842 136.189 91.7776 136.21 91.7059C136.185 91.7753 136.154 91.8424 136.117 91.9065V91.8994ZM135.451 94.0626C135.616 93.7976 136.382 93.4681 137.113 93.7045L145.3 96.627C145.394 96.6557 145.48 96.7703 145.458 96.8778C145.411 97.1426 145.387 97.4111 145.386 97.68C145.386 97.7946 145.293 97.8591 145.193 97.8949L136.64 99.4852C135.795 99.6069 135.208 99.1986 135.086 98.9121C135.05 98.4823 134.964 98.0812 134.964 97.6514C134.964 96.4122 135.15 95.2231 135.451 94.0626ZM135.594 101.756C135.623 101.434 136.117 100.789 136.855 100.624L145.379 99.0625C145.432 99.0507 145.488 99.0587 145.535 99.0851C145.583 99.1116 145.619 99.1545 145.637 99.2058C145.723 99.4493 145.752 99.5639 145.909 99.8218C145.959 99.9221 145.931 100.022 145.838 100.108L139.054 105.567C138.324 106.118 137.55 105.996 137.371 105.782C136.591 104.53 135.993 103.175 135.594 101.756ZM137.636 106.168C137.564 106.075 137.493 105.989 137.435 105.882C137.478 105.968 137.571 106.075 137.636 106.168ZM139.233 108.117C139.076 107.873 139.19 106.971 139.792 106.469L146.568 101.061C146.64 100.961 146.762 100.939 146.855 101.025C147.048 101.204 147.356 101.434 147.614 101.577C147.722 101.634 147.757 101.72 147.7 101.849L144.763 110.029C144.448 110.853 143.789 111.175 143.495 111.118C141.915 110.367 140.475 109.349 139.24 108.11L139.233 108.117ZM144.197 111.469C144.106 111.438 144.017 111.4 143.932 111.355L144.197 111.469ZM146.246 112.114C145.974 111.949 145.601 111.211 145.831 110.481L148.796 102.272C148.825 102.164 148.925 102.093 149.032 102.114C149.297 102.164 149.534 102.186 149.842 102.186C149.964 102.186 150.035 102.286 150.057 102.401L151.654 110.961C151.783 111.784 151.403 112.322 151.117 112.493C150.716 112.522 150.315 112.615 149.899 112.615C148.631 112.615 147.428 112.422 146.26 112.114H146.246ZM160.357 108.317C160.429 108.246 160.501 108.174 160.544 108.102C160.472 108.174 160.422 108.246 160.357 108.317ZM160.88 107.708C160.615 107.873 159.77 107.816 159.233 107.264L153.438 100.789C153.366 100.717 153.338 100.574 153.416 100.481C153.563 100.311 153.688 100.123 153.789 99.9221C153.839 99.8147 153.961 99.7932 154.061 99.8505L162.37 102.802C163.23 103.138 163.445 103.819 163.373 104.091C162.728 105.406 161.901 106.624 160.916 107.708H160.88ZM163.387 103.969C163.509 103.754 163.645 103.411 163.781 103.067C163.66 103.37 163.529 103.668 163.387 103.962V103.969ZM164.34 101.269C164.226 101.541 163.481 101.942 162.714 101.699L154.448 98.733C154.355 98.7044 154.269 98.5898 154.283 98.4823C154.326 98.2101 154.355 98.0812 154.355 97.7875C154.355 97.6729 154.455 97.6084 154.555 97.5726L163.273 96.2116C164.132 96.1041 164.677 96.5124 164.763 96.8061C164.777 97.0927 164.834 97.3792 164.834 97.6657C164.834 98.9049 164.648 100.101 164.354 101.262L164.34 101.269ZM164.304 93.948C164.304 94.2919 163.803 94.9079 163.058 95.0512L154.391 96.4122C154.338 96.421 154.283 96.4117 154.236 96.3857C154.19 96.3596 154.153 96.3185 154.133 96.2689C154.043 95.9709 153.923 95.6829 153.774 95.4093C153.703 95.3162 153.731 95.2159 153.81 95.1228L156.389 92.9165C158.853 92.7303 161.296 92.4509 163.717 92.0928C163.953 92.7016 164.125 93.3105 164.29 93.9552L164.304 93.948ZM168.767 89.4639C169.326 89.6429 169.519 90.0154 168.81 90.2088C168.065 90.4094 167.162 90.567 166.303 90.7461C165.981 89.9868 165.551 89.292 165.135 88.5971C166.482 88.855 167.714 89.1344 168.76 89.4567L168.767 89.4639ZM154.605 86.2906L154.964 85.2663C155.279 84.4497 155.966 84.1703 156.282 84.2204C157.671 84.8866 158.953 85.7533 160.078 86.7992C158.258 86.5633 156.43 86.396 154.598 86.2978L154.605 86.2906ZM153.474 83.2104C153.739 83.4038 154.09 84.1775 153.868 84.8938L153.38 86.2548C152.055 86.1975 150.744 86.1258 149.419 86.1402C149.075 86.1402 148.753 86.2118 148.402 86.2118L148.065 84.378C147.936 83.5328 148.33 82.9884 148.624 82.8523C149.054 82.8164 149.455 82.7233 149.878 82.7233C151.124 82.7233 152.313 82.9239 153.474 83.2104ZM145.809 83.3537C146.131 83.3895 146.755 83.8838 146.919 84.6144L147.134 85.782C146.4 85.1051 145.724 84.367 145.114 83.5757L145.816 83.3609L145.809 83.3537ZM145.308 86.4553C143.918 86.5843 142.535 86.7419 141.167 86.9568C140.881 86.398 140.866 85.8823 141.024 85.696C141.705 85.1946 142.442 84.7505 143.216 84.3637C143.832 85.0657 144.534 85.7677 145.308 86.4553ZM130.251 90.481C131.368 90.0799 132.729 89.7074 134.233 89.3493C133.837 90.0845 133.49 90.8455 133.195 91.6271C132.17 91.5054 131.117 91.3908 130.258 91.226C129.527 91.0971 129.699 90.6816 130.251 90.481ZM393.175 48.0536C392.874 48.3043 392.774 48.6481 393.017 48.6983C393.476 48.7842 393.734 48.9418 394.264 49.4289C394.55 49.5722 394.479 49.128 394.407 48.8845C394.12 48.1968 393.519 47.7814 393.189 48.0536H393.175Z" fill="black"/>
<path d="M382.429 111.811H368.346C368.167 112.763 369.277 113.458 369.922 114.196H385.301L389.599 112.104C390.358 110.242 388.825 108.595 388.883 107.09C389.141 102.606 386.641 98.1363 385.323 94.0318C386.182 93.1221 387.257 91.0232 388.668 91.582C391.963 96.7108 392.572 103.258 392.013 109.776C391.676 111.388 388.933 112.857 389.019 114.375C389.069 114.905 392.672 114.676 394.162 113.408C394.427 112.362 396.361 111.073 396.984 110.923C397.672 108.953 396.597 109.017 396.769 107.828C397.113 107.004 396.655 98.122 396.039 97.1693C395.809 97.026 395.731 97.026 395.716 97.0475C395.029 95.2853 396.705 92.5848 397.378 90.9158L402.292 90.4717C401.705 86.1022 400.143 81.5607 399.155 77.0766C399.756 76.0307 400.845 75.2141 401.841 74.6196C407.02 71.2027 402.457 65.6943 402.285 61.4393C401.404 59.2331 398.367 57.5139 398.087 55.0784C398.718 55.5655 399.198 55.365 399.334 55.4008C400.817 54.3836 400.745 52.9152 400.007 51.0742C402.256 48.3952 403.632 47.1631 404.047 46.3107C403.904 44.0687 400.301 40.7235 398.188 40.7235C396.941 41.4111 396.11 42.8008 393.818 44.5772C393.746 44.6704 391.067 43.646 390.258 44.5056C389.47 45.1503 389.742 47.2276 391.189 48.3522C391.01 48.9038 390.845 49.1187 390.545 49.7849C390.387 50.1144 390.315 50.4654 390.523 50.6588C390.996 51.0886 391.168 51.7547 390.831 52.7791C390.473 53.8679 391.691 54.6701 392.12 54.8277C392.192 54.8492 392.335 54.9997 392.479 55.1859C392.636 56.3893 388.553 58.5526 388.553 59.4838C388.231 62.2989 386.476 62.0196 384.771 71.2672C384.986 73.5093 384.957 75.4935 384.8 77.2628C382.708 82.7928 381.003 85.9804 379.585 89.9774C378.41 93.2725 385 102.814 385.101 109.318C383.668 111.467 382.522 111.159 382.429 111.804V111.811ZM393.123 101.904C392.787 101.023 392.507 99.7766 392.679 98.8526C393.252 98.301 394.327 98.7093 394.871 98.6234C395.537 101.704 395.702 102.133 393.13 101.918L393.123 101.904ZM393.173 56.3678C393.36 56.2246 393.532 55.7661 393.639 55.6014C395.809 54.2117 394.312 55.2145 392.156 54.0756C391.454 53.7174 391.44 53.0441 391.526 52.0914C391.655 50.9095 391.168 50.6803 390.981 50.3006C390.91 50.143 391.247 49.5628 391.526 49.1545C392.027 48.3952 392.479 46.8193 392.715 46.4325C396.311 46.5758 395.509 48.166 395.602 48.4525C395.888 49.2261 397.393 50.888 398.13 51.4109C397.915 53.5885 396.211 52.3063 396.97 54.2905C396.769 58.0583 392.292 57.5856 390.38 60.6801C390.186 57.6142 392.887 57.6214 393.173 56.3607V56.3678ZM389.09 72.5852C390.065 73.4663 391.096 74.5766 391.841 74.7628C392.357 76.0522 390.767 76.2313 390.194 76.8402C388.854 77.0407 388.353 75.6224 387.572 76.2671C387.393 76.4104 386.59 76.2456 386.605 76.088C387.035 74.9419 388.231 73.2944 389.083 72.5781L389.09 72.5852ZM380.602 91.7826C380.101 89.1752 383.568 85.1208 385.874 77.1697C386.82 76.8402 387.321 79.0106 388.668 78.1725C390.745 78.2227 389.857 83.6309 391.791 80.1925C391.748 78.6739 391.705 76.9691 392.908 76.1597C394.212 75.8588 395.057 76.5895 395.143 77.7356L393.138 80.8587C396.934 81.002 391.92 87.105 396.934 85.9875C396.769 88.2798 395.537 94.7051 394.656 94.3828C393.969 90.8227 393.41 92.3055 393.41 93.3513C393.553 94.7338 393.524 95.8584 394.341 96.9758C394.069 97.2624 393.052 97.2337 392.765 97.2982C389.928 93.251 390.043 87.6995 388.216 83.3014C387.908 83.287 387.522 83.6595 387.536 83.9819C387.321 86.6322 386.29 90.4574 384.112 91.7181C382.751 92.5204 387.106 92.0333 383.539 93.7094C384.9 94.612 383.646 95.8369 382.149 95.8369C381.404 94.2467 380.831 92.9287 380.609 91.7754L380.602 91.7826ZM384.363 100.565C383.847 99.9629 383.052 98.2222 382.729 97.4701L384.807 96.6105C385.452 97.3268 386.096 98.6592 386.189 99.834C385.724 100.085 385.079 100.514 384.363 100.565ZM317.494 57.8721C317.186 53.6458 318.927 50.0642 316.957 45.5514C316.979 43.689 318.282 42.2564 317.931 40.5372L314.729 41.3108C314.242 44.8638 313.655 46.0385 314.135 49.3837C314.98 53.216 315.41 56.7045 317.487 57.8792L317.494 57.8721ZM284.415 69.6913C296.664 66.253 305.117 63.3161 315.267 59.054C311.04 50.0284 311.972 47.421 312.33 41.6475C312.33 41.6475 307.172 41.7191 301.177 40.1289C294.071 44.7133 285.776 61.1242 284.415 69.6913ZM326.448 72.3059C326.764 72.6927 325.789 71.6612 326.448 72.3059ZM341.169 44.9426C336.011 41.3896 332.014 33.1233 326.391 33.682C325.847 27.5934 323.189 17.2569 331.599 6.35455C332.688 5.85312 334.464 5.65972 335.152 4.86461C331.713 4.50645 327.186 6.63391 323.906 4.77148C323.906 4.77148 325.424 7.42186 327.186 7.823C326.026 9.39889 323.777 10.5235 325.145 13.267C322.337 14.936 323.397 17.436 324.264 18.7827C322.86 20.2296 322.007 22.8298 323.87 24.4129C321.577 26.8699 324.421 28.9544 325.087 29.7853C323.927 32.2423 325.044 34.1405 325.044 34.1405C325.001 35.9098 321.85 38.4384 320.711 39.255C319.35 43.4096 319.873 51.7691 320.08 57.3062C327.745 53.6387 335.266 50.1502 341.169 44.9426ZM253.062 191.802C253.062 187.432 250.146 182.275 246.142 179.854C245.163 179.26 244.06 178.902 242.919 178.808C243.893 178.865 245.211 178.794 246.45 178.278C246.491 178.262 246.535 178.252 246.579 178.249C250.633 176.444 255.547 171.193 255.547 162.347C255.547 155.807 252.732 150.528 247.954 147.054C243.485 143.816 238.184 143.085 232.89 143.085H191.201V153.687H200.584V207.088H191.201V217.647H220.806V207.081H211.544V183.557H232.009C239.065 183.643 241.794 188.285 241.937 192.275L242.453 217.632H262.911V207.088H253.348L253.062 191.802ZM234.223 173.321H211.551V153.694H233.005C235.225 153.694 237.99 153.622 240.147 154.718C242.783 156.058 245.254 158.944 245.254 163.658C245.254 169.102 240.268 173.321 234.223 173.321ZM187.497 243.864H173.364V286.463H179.668V268.025H186.659C196.831 268.025 201.451 262.796 201.451 256.106C201.451 249.358 197.082 243.864 187.497 243.864ZM187.239 262.538H179.682V249.358H187.504C193.235 249.358 194.954 252.725 194.954 255.834C194.954 260.096 191.938 262.538 187.239 262.538ZM225.956 243.613L207.103 286.449H213.908L219.065 273.892H237.725L243.062 286.449H250.01L230.383 243.613H225.942H225.956ZM221.515 268.398L228.077 251.564L235.147 268.398H221.515ZM314.579 243.864H320.883V286.463H314.579V243.864ZM347.093 253.856C347.093 250.848 350.159 248.792 354.428 248.792C357.58 248.792 361.398 249.795 365.33 253.233V246.285C362.222 244.353 358.639 243.319 354.979 243.298C346.47 243.298 340.889 247.718 340.889 254.659C340.889 266.335 360.968 267.338 360.968 276.148C360.968 278.512 358.59 281.506 353.411 281.506C348.841 281.506 344.571 279.314 341.162 275.346V283.082C345.044 285.768 349.113 287.022 354.156 287.022C361.641 287.022 367.15 282.137 367.15 275.468C367.178 261.908 347.093 262.044 347.093 253.856ZM292.294 278.025C288.878 272.724 286.392 268.785 282.338 266.22C287.115 264.415 289.802 260.719 289.802 255.798C289.802 248.434 284.157 243.871 275.117 243.871H263.828V286.47H270.253V267.968H272.947C276.227 267.968 278.914 268.971 284.816 277.71L290.453 286.463H297.996L294.68 281.506C293.85 280.37 293.054 279.209 292.294 278.025ZM274.386 262.481H270.268V249.107H274.394C280.626 249.107 283.118 251.543 283.19 255.54C283.24 259.121 281.285 262.474 274.394 262.474L274.386 262.481Z" fill="black"/>
</svg>
