<svg width="2232" height="248" viewBox="0 0 2232 248" fill="none" xmlns="http://www.w3.org/2000/svg">
<path d="M18.5709 247.284H6.19306V99.0063H18.5709V247.284Z" fill="black"/>
<path d="M228.225 95.1367C248.078 95.1367 265.61 99.4565 280.821 108.093C296.032 116.73 307.961 128.651 316.599 143.863C325.235 159.073 329.555 176.607 329.555 196.458V247.284H317.177V196.458C317.177 170.161 308.922 148.762 292.422 132.262C275.921 115.763 254.522 107.515 228.225 107.515C210.695 107.515 195.098 111.312 181.434 118.917C167.9 126.522 157.2 137.031 149.336 150.436C141.602 163.842 137.728 179.185 137.727 196.458V247.284H125.358V99.0063H137.727V146.186H139.274C146.235 130.717 157.649 118.342 173.505 109.061C189.49 99.7793 207.729 95.1368 228.225 95.1367Z" fill="black"/>
<path d="M537.713 95.1367C557.565 95.1368 575.097 99.4564 590.309 108.093C605.519 116.73 617.441 128.653 626.078 143.863C634.715 159.073 639.034 176.607 639.035 196.458V247.284H626.665V196.458C626.664 170.161 618.409 148.762 601.909 132.262C585.409 115.762 564.01 107.515 537.713 107.515C520.181 107.515 504.578 111.311 490.914 118.917C477.379 126.522 466.679 137.03 458.816 150.436C451.081 163.842 447.215 179.185 447.215 196.458V247.284H434.837V99.0063H447.215V146.186H448.761C455.722 130.717 467.136 118.342 482.993 109.061C498.977 99.7798 517.217 95.1367 537.713 95.1367Z" fill="black"/>
<path d="M756.703 247.284H744.325V99.0063H756.703V247.284Z" fill="black"/>
<path d="M948.522 247.284H936.144V99.0063H948.522V247.284Z" fill="black"/>
<path fill-rule="evenodd" clip-rule="evenodd" d="M1159 94.3594C1176.28 94.3594 1192.26 98.0333 1206.96 105.381C1221.78 112.729 1234.67 122.914 1245.63 135.933C1256.59 148.952 1265.1 163.973 1271.16 180.988C1277.34 197.875 1280.44 215.93 1280.44 235.138V247.284H1036.03C1036.15 218.551 1041.49 192.714 1052.07 169.776C1062.9 146.573 1077.59 128.202 1096.16 114.667C1114.72 101.131 1135.67 94.3594 1159 94.3594ZM1159 106.737C1138.64 106.737 1120.2 112.794 1103.7 124.911C1087.2 137.029 1073.98 153.532 1064.06 174.414C1055.41 192.601 1050.34 212.845 1048.83 235.138H1268.06C1268.06 211.289 1263.16 189.691 1253.36 170.355C1243.57 150.892 1230.42 135.424 1213.92 123.952C1197.42 112.479 1179.11 106.737 1159 106.737Z" fill="black"/>
<path d="M1470.96 95.1367C1490.81 95.1368 1508.34 99.4564 1523.55 108.093C1538.76 116.73 1550.68 128.653 1559.32 143.863C1567.96 159.073 1572.28 176.607 1572.28 196.458V247.284H1559.91V196.458C1559.91 170.161 1551.65 148.762 1535.15 132.262C1518.65 115.762 1497.25 107.515 1470.96 107.515C1453.42 107.515 1437.82 111.311 1424.16 118.917C1410.62 126.522 1399.92 137.03 1392.06 150.436C1384.32 163.842 1380.46 179.185 1380.46 196.458V247.284H1368.08V99.0063H1380.46V146.186H1382C1388.96 130.717 1400.38 118.342 1416.23 109.061C1432.22 99.7798 1450.46 95.1367 1470.96 95.1367Z" fill="black"/>
<path d="M1888.73 247.284H1876.34C1876.24 220.873 1872.06 197.165 1863.78 176.159C1855.53 154.76 1843.73 137.874 1828.39 125.498C1813.18 112.994 1795.13 106.737 1774.25 106.737C1753.37 106.738 1735.26 112.994 1719.92 125.498C1704.71 137.874 1692.91 154.76 1684.53 176.159C1676.38 197.165 1672.26 220.873 1672.16 247.284H1659.79C1659.9 218.551 1664.59 192.714 1673.9 169.776C1683.31 146.573 1696.58 128.202 1713.72 114.667C1730.87 101.131 1751.05 94.3598 1774.25 94.3594C1789.98 94.3594 1804.48 97.6496 1817.76 104.224C1831.04 110.669 1842.57 119.954 1852.37 132.072C1862.17 144.06 1869.65 158.303 1874.8 174.803H1876.35V0H1888.73V247.284Z" fill="black"/>
<path d="M2108.2 94.3594C2131.53 94.3594 2152.42 101.131 2170.85 114.667C2189.42 128.202 2204.11 146.573 2214.94 169.776C2225.65 192.714 2231.05 218.551 2231.17 247.284H2218.79C2218.67 220.873 2213.78 197.165 2204.11 176.159C2194.44 154.76 2181.29 137.874 2164.66 125.498C2148.03 112.994 2129.21 106.737 2108.2 106.737C2087.31 106.738 2068.5 112.995 2051.74 125.498C2035.11 137.874 2021.89 154.76 2012.09 176.159C2002.54 197.164 1997.72 220.873 1997.6 247.284H1985.23C1985.35 218.424 1990.69 192.525 2001.27 169.586C2012.1 146.382 2026.79 128.074 2045.36 114.667C2063.92 101.132 2084.86 94.36 2108.2 94.3594Z" fill="black"/>
<path d="M12.3779 20.1088C15.7295 20.1088 18.6352 21.3307 21.0845 23.78C23.5338 26.2293 24.7557 29.135 24.7557 32.4867C24.7553 35.8366 23.5318 38.7367 21.0845 41.1851C18.6352 43.6344 15.7296 44.8645 12.3779 44.8645C9.02686 44.8641 6.12837 43.634 3.67946 41.1851C1.23055 38.7362 0.000402532 35.8377 0 32.4867C0 29.135 1.23013 26.2293 3.67946 23.78C6.12785 21.3328 9.02798 20.1093 12.3779 20.1088Z" fill="black"/>
</svg>
