<svg width="400" height="400" viewBox="0 0 400 400" fill="none" xmlns="http://www.w3.org/2000/svg">
<g id="nycframe">
<g id="nyc">
<g id="dots">
<circle id="nyc10" cx="194.5" cy="336.5" r="1.5" fill="black"/>
<circle id="nyc11" cx="205.5" cy="343.5" r="1.5" fill="black"/>
<circle id="nyc5" cx="200.5" cy="243.5" r="1.5" fill="black"/>
<circle id="nyc4" cx="218.5" cy="233.5" r="1.5" fill="black"/>
<circle id="nyc3" cx="219.5" cy="221.5" r="1.5" fill="black"/>
<circle id="nyc2" cx="216.5" cy="208.5" r="1.5" fill="black"/>
<circle id="nyc7" cx="195.5" cy="306.5" r="1.5" fill="black"/>
<circle id="nyc6" cx="217.5" cy="292.5" r="1.5" fill="black"/>
<circle id="nyc9" cx="215.5" cy="318.5" r="1.5" fill="black"/>
<circle id="nyc8" cx="207.5" cy="318.5" r="1.5" fill="black"/>
<circle id="nyc1" cx="173.5" cy="78.5" r="1.5" fill="black"/>
</g>
<g id="outline">
<path id="nyc_outline" d="M156.447 24.8392L156.433 24.9382L156.442 25.2496L156.469 25.6589L156.496 26.0682L156.498 26.4786L156.408 27.2936L156.295 27.6881L156.148 28.0713L156.004 28.4551L155.844 28.8326L155.711 29.2205L155.605 29.6168L155.555 30.0241L155.384 30.3961L155.113 30.7033L154.942 31.0653L154.908 31.4724L154.883 31.8817L154.823 32.2882L154.801 32.6979L154.79 33.1082L154.739 33.5156L154.728 33.9256L154.703 34.335L154.719 34.745L154.682 35.1547L154.696 35.5649L154.706 35.975L154.728 36.3845L154.764 36.7929L154.814 37.1992L154.868 37.6069L155.03 37.9851L155.165 38.3722L155.297 38.7598L155.45 39.1418L155.556 39.5386L155.609 39.947L155.707 40.3452L155.761 40.7519L155.85 41.1528L155.883 41.5624L155.938 41.9687L156.027 42.3702L156.089 42.7754L156.127 43.1844L156.213 43.5856L156.281 43.99L156.379 44.3882L156.476 44.7865L156.608 45.1747L156.73 45.5665L156.885 45.9466L157.059 46.3178L157.244 46.684L157.421 47.0543L157.57 47.4368L157.73 47.8142L157.853 48.2065L158.008 48.586L158.163 48.9661L158.281 49.3591L158.413 49.7471L158.541 50.1368L158.638 50.5358L158.77 50.9247L158.861 51.325L158.966 51.7217L159.039 52.1257L159.121 52.5275L159.154 52.9375L159.228 53.341L159.291 53.7466L159.311 54.1568L159.32 54.5667L159.356 54.9754L159.36 55.3854L159.384 55.7949L159.402 56.2049L159.387 56.615L159.394 57.0253L159.385 57.4353L159.341 57.8441L159.324 58.2536L159.314 58.6636L159.303 59.0737L159.266 59.4822L159.22 59.89L159.206 60.3L159.181 60.7092L159.145 61.1177L159.133 61.5278L159.081 61.9352L159.05 62.3441L159.054 62.7551L159.029 63.1645L158.992 63.5731L158.946 63.9806L158.926 64.3909L158.843 64.7937L158.798 65.2012L158.731 65.6058L158.687 66.0137L158.625 66.419L158.576 66.8261L158.509 67.2311L158.493 67.6417L158.432 68.0481L158.432 68.4589L158.432 68.8687L158.411 69.2785L158.384 69.6876L158.361 70.0969L158.33 70.506L158.278 70.9128L158.219 71.3186L158.177 71.7266L158.104 72.1306L158.074 72.5398L158.011 72.9456L158.001 73.3559L157.968 73.7649L157.961 74.1751L157.988 74.5851L157.966 74.9951L157.965 75.4051L157.986 75.8151L157.965 76.2251L157.986 76.6351L157.968 77.0451L157.972 77.4551L157.961 77.8651L157.962 78.2749L157.944 78.6842L157.883 79.0894L157.834 79.497L157.716 79.8906L157.614 80.2871L157.491 80.6778L157.35 81.0626L157.208 81.4468L157.052 81.8261L156.891 82.2031L156.77 82.5965L156.597 82.9688L156.447 83.3505L156.291 83.7302L156.118 84.1015L156.012 84.4948L156.049 84.8978L156.224 85.2661L156.449 85.6098L156.734 85.9057L157.03 86.189L157.313 86.4853L157.601 86.7777L157.854 87.101L158.094 87.4316L158.294 87.7887L158.408 88.1836L158.48 88.5846L158.659 88.9532L158.879 89.2986L159.119 89.6316L159.364 89.9602L159.608 90.2897L159.844 90.6251L160.087 90.9563L160.266 91.3263L160.419 91.7068L160.542 92.0992L160.706 92.4754L160.835 92.8649L160.993 93.2437L161.129 93.6306L161.262 94.0181L161.414 94.3992L161.537 94.7909L161.691 95.1706L161.853 95.5459L162.039 95.9103L162.242 96.2662L162.429 96.6323L162.666 96.9671L162.888 97.3119L163.136 97.6397L163.339 97.9972L163.578 98.3306L163.788 98.6828L163.993 99.0379L164.375 99.7644L164.532 100.143L164.658 100.534L164.785 100.924L164.924 101.31L165.064 101.695L165.175 102.09L165.282 102.486L165.385 102.883L165.478 103.282L165.587 103.678L165.669 104.08L165.715 104.489L165.796 104.891L165.855 105.296L165.908 105.703L165.962 106.109L165.976 106.52L166.031 106.927L166.058 107.336L166.063 107.746L166.107 108.154L166.118 108.564L166.152 108.973L166.185 109.382L166.207 109.791L166.255 110.199L166.273 110.609L166.294 111.018L166.346 111.425L166.372 111.835L166.406 112.243L166.413 112.654L166.459 113.062L166.474 113.472L166.464 113.882L166.497 114.291L166.511 114.701L166.508 115.112L166.493 115.522L166.466 115.931L166.48 116.341L166.47 117.161L166.483 117.571L166.515 117.98L166.561 118.387L166.594 118.796L166.674 119.199L166.778 119.595L166.878 119.993L166.941 120.399L167.054 120.794L167.116 121.2L167.172 121.607L167.191 122.017L167.234 122.425L167.272 122.833L167.324 123.24L167.355 123.649L167.357 124.06L167.371 124.47L167.369 124.879L167.386 125.289L167.418 125.698L167.412 126.108L167.418 126.517L167.382 126.925L167.297 127.327L167.081 127.676L166.806 127.979L166.537 128.288L166.29 128.616L166.061 128.956L165.859 129.312L165.631 129.654L165.451 130.023L165.248 130.38L165.084 130.755L164.876 131.11L164.696 131.478L164.527 131.852L164.328 132.211L164.131 132.572L164.044 132.977L164.054 133.389L164.105 133.797L164.183 134.2L164.297 134.595L164.383 134.996L164.472 135.396L164.533 135.803L164.531 136.214L164.545 136.623L164.566 137.032L164.628 137.436L164.754 137.826L164.939 138.192L165.146 138.545L165.382 138.878L165.672 139.169L165.99 139.43L166.269 139.73L166.497 140.07L166.641 140.453L166.742 140.85L166.772 141.259L166.809 141.668L166.777 142.078L166.776 142.489L166.742 142.898L166.692 143.305L166.639 143.71L166.55 144.11L166.463 144.511L166.371 144.911L166.276 145.31L166.221 145.718L166.122 146.116L166.036 146.517L165.97 146.922L165.928 147.331L165.884 147.737L165.869 148.146L165.901 148.551L166.05 148.801M166.553 147.583L166.556 147.683L166.542 147.993L166.56 148.403L166.586 148.812L166.603 149.222L166.599 149.633L166.633 150.042L166.653 150.451L166.668 150.861L166.691 151.271L166.688 151.681L166.692 152.091L166.684 152.501L166.686 152.911L166.69 153.321L166.665 153.731L166.631 154.14L166.583 154.548L166.531 154.954L166.432 155.353L166.356 155.756L166.269 156.157L166.133 156.543L166.041 156.944L165.941 157.341L165.882 157.748L165.774 158.145L165.723 158.552L165.67 158.959L165.626 159.366L165.59 159.775L165.557 160.184L165.505 160.591L165.522 161.003L165.483 161.412L165.469 161.822L165.504 162.231L165.515 162.641L165.495 163.052L165.542 163.46L165.563 163.871L165.638 164.274L165.674 164.684L165.748 165.088L165.87 165.48L165.959 165.88L166.013 166.288L166.099 166.689L166.152 167.096L166.217 167.501L166.26 167.909L166.318 168.315L166.34 168.725L166.371 169.133L166.403 169.542L166.448 169.95L166.485 170.358L166.494 170.769L166.517 171.178L166.503 171.589L166.526 171.998L166.552 172.408L166.543 172.818L166.565 173.638L166.548 174.048L166.574 174.458L166.564 174.868L166.576 175.278L166.563 175.688L166.569 176.098L166.534 176.508L166.551 176.918L166.569 177.328L166.546 178.148L166.569 178.558L166.568 178.968L166.595 179.377L166.623 179.787L166.625 180.197L166.654 180.606L166.672 181.015L166.661 181.426L166.681 181.836L166.711 182.245L166.743 182.654L166.753 183.064L166.754 183.474L166.788 183.883L166.813 184.292L166.824 184.702L166.861 185.111L166.855 185.522L166.869 185.931L166.915 186.34L166.93 186.75L166.934 187.16L166.936 187.57L166.971 187.979L166.946 188.39L166.962 188.8L166.955 189.21L166.97 189.619L166.965 190.029L166.97 190.439L166.953 190.849L166.98 191.259L166.953 191.669L166.976 192.079L166.989 192.489L166.972 192.899L166.962 193.309L166.97 193.719L166.98 194.129L166.977 194.539L166.97 194.949L166.983 195.359L166.963 195.769L166.982 196.179L166.959 196.589L166.978 196.999L166.961 197.409L166.956 197.819L166.983 198.229L166.96 198.639L166.959 199.049L166.981 199.459L166.96 199.869L166.981 200.279L166.962 200.689L166.967 201.099L166.956 201.509L166.961 201.919L166.967 202.329L166.951 202.739L166.966 203.15L166.928 203.559L166.921 203.969L166.906 204.378L166.882 204.788L166.866 205.197L166.841 205.606L166.814 206.016L166.83 206.427L166.79 206.836L166.771 207.245L166.754 207.655L166.719 208.063L166.698 208.473L166.673 208.882L166.652 209.292L166.617 209.7L166.617 210.111L166.613 210.521L166.587 210.93L166.578 211.34L166.547 211.75L166.544 212.16L166.558 212.57L166.569 212.98L166.576 213.389L166.603 213.798L166.638 214.207L166.68 214.615L166.725 215.022L166.773 215.429L166.823 215.837L166.909 216.238L166.978 216.642L167.035 217.049L167.065 217.459L167.14 217.862L167.18 218.27L167.249 218.675L167.291 219.083L167.325 219.491L167.37 219.899L167.374 220.31L167.399 220.719L167.399 221.13L167.395 221.54L167.385 221.95L167.34 222.358L167.343 222.769L167.319 223.178L167.323 223.589L167.275 223.997L167.276 224.408L167.252 224.817L167.236 225.227L167.222 225.636L167.233 226.047L167.233 226.457L167.213 226.867L167.209 227.277L167.232 227.687L167.272 228.095L167.298 228.504L167.336 228.912L167.388 229.319L167.444 229.725L167.511 230.131L167.544 230.54L167.535 230.951L167.557 231.36L167.552 231.77L167.523 232.589L167.468 232.996L167.454 233.407L167.413 233.815L167.346 234.22L167.313 234.629L167.244 235.033L167.198 235.441L167.151 235.848L167.096 236.254L167.071 236.664L167.023 237.071L166.985 237.48L166.987 237.891L166.973 238.3L166.979 238.71L166.956 239.12L166.969 239.531L166.95 239.941L166.906 240.349L166.905 240.759L166.892 241.169L166.865 241.579L166.83 241.987L166.783 242.395L166.774 242.805L166.743 243.214L166.707 243.623L166.679 244.032L166.661 244.441L166.645 244.851L166.601 245.259L166.586 245.669L166.567 246.489L166.537 246.899L166.572 247.309L166.577 247.718L166.6 248.127L166.61 248.538L166.662 248.945L166.727 249.35L166.821 249.75L166.908 250.151L166.979 250.555L167.072 250.954L167.156 251.355L167.241 251.756L167.34 252.154L167.411 252.559L167.514 252.956L167.609 253.355L167.711 253.752L167.772 254.158L167.853 254.56L167.912 254.966L167.964 255.373L168.004 255.781L168.048 256.189L168.036 256.6L168.059 257.009L168.04 257.419L168.05 257.83L168.004 258.238L167.986 258.648L167.98 259.058L167.945 259.467L167.906 259.875L167.875 260.284L167.855 260.693L167.831 261.103L167.809 261.512L167.817 261.923L167.801 262.333L167.815 262.742L167.863 263.148L167.908 263.556L167.971 263.961L168.019 264.369L168.059 264.777L168.098 265.185L168.134 265.594L168.131 266.006L168.052 266.408L167.87 266.767L167.675 267.129L167.534 267.513L167.447 267.913L167.382 268.318L167.369 268.729L167.348 269.138L167.374 269.548L167.358 269.958L167.389 270.367L167.393 270.778L167.351 271.185L167.259 271.584L167.102 271.963L166.93 272.335L166.763 272.709L166.626 273.097L166.583 273.505L166.523 274.322L166.461 274.726L166.316 275.111L166.021 275.399L165.651 275.583L165.258 275.703L164.865 275.821L164.468 275.935L164.088 276.093L163.993 276.443L164.277 276.731L164.657 276.888L165.039 277.036L165.43 277.161L165.776 277.363L166.064 277.655L166.333 277.965L166.635 278.242L166.891 278.562L167.104 278.913L167.235 279.303L167.353 279.696L167.435 280.1L167.499 280.919L167.472 281.329L167.449 281.738L167.451 282.149L167.408 282.557L167.409 282.967L167.384 283.377L167.392 283.787L167.436 284.195L167.531 284.595L167.694 284.973L167.895 285.331L168.091 285.689L168.215 286.078L168.218 286.24M168.635 284.991L168.591 285.08L168.366 285.301L168.143 285.646L167.945 286.005L167.755 286.368L167.559 286.729L167.412 287.112L167.264 287.494L167.122 287.879L167.001 288.27L166.868 288.658L166.754 289.052L166.644 289.448L166.565 289.85L166.676 290.239L166.866 290.599L167.094 290.94L167.336 291.27L167.594 291.589L167.831 291.925L168.097 292.237L168.358 292.554L168.541 292.922L168.726 293.288L168.871 293.672L169.028 294.052L169.112 294.455L169.23 294.847L169.329 295.245L169.52 296.042L169.613 296.441L169.688 296.846L169.833 297.231L169.931 297.629L170.062 298.018L170.25 298.384L170.429 298.752L170.594 299.129L170.823 299.47L171.034 299.822L171.293 300.142L171.522 300.483L171.782 300.8L172.081 301.083L172.37 301.372L172.678 301.641L173.047 301.818L173.427 301.971L173.82 302.088L174.203 302.234L174.574 302.41L174.888 302.673L175.118 303.004L175.233 303.391L175.278 303.798L175.282 304.208L175.274 304.617L175.35 305.017L175.514 305.393L175.801 305.689L176.068 306L176.278 306.353L176.486 306.706L176.69 307.062L176.881 307.425L177.13 307.751L177.341 308.102L177.193 308.484L176.911 308.783L176.622 309.075L176.305 309.338L176.04 309.652L175.823 309.997L175.695 310.383L175.609 310.784L175.61 311.195L175.767 311.568L176.118 311.781L176.474 311.988L176.78 312.262L177.07 312.555L177.325 312.877L177.555 313.218L177.808 313.54L178.329 314.174L178.569 314.507L178.798 314.848L179.049 315.172L179.286 315.506L179.507 315.851L179.741 316.188L179.931 316.553L180.126 316.913L180.339 317.264L180.511 317.637L180.658 318.02L180.792 318.407L180.958 318.783L181.072 319.178L181.23 319.557L181.37 319.942L181.536 320.318L181.685 320.699L181.846 321.077L181.988 321.462L182.172 321.829L182.308 322.217L182.492 322.584L182.667 322.955L182.816 323.337L182.972 323.717L183.145 324.089L183.32 324.459L183.483 324.835L183.639 325.215L183.788 325.597L183.88 325.998L183.98 326.396L184.013 326.805L184.062 327.212L184.054 327.623L184.04 328.032L184.03 328.444L183.824 328.798L183.555 329.105L183.277 329.407L182.979 329.689L182.775 330.043L182.733 330.441L182.954 330.787L183.239 331.082L183.571 331.325L183.926 331.53L184.287 331.726L184.67 331.874L185.037 332.059L185.417 332.212L185.791 332.379L186.156 332.565L186.511 332.768L186.841 333.008L187.138 333.287L187.426 333.581L187.617 333.946L187.766 334.328L187.884 334.722L187.979 335.121L188.086 335.517L188.186 335.915L188.288 336.312L188.376 336.712L188.498 337.104L188.617 337.497L188.716 337.895L188.833 338.287L188.933 338.686L189.062 339.075L189.212 339.457L189.36 339.839L189.506 340.222L189.671 340.598L189.848 340.967L190.038 341.331L190.224 341.695L190.382 342.074L190.514 342.461L190.661 342.845L190.776 343.239L190.87 343.639L190.933 344.045L191.042 344.441L191.121 344.843L191.241 345.236L191.35 345.631L191.474 346.022L191.635 346.399L191.791 346.778L192.004 347.128L192.235 347.464L192.443 347.821L192.473 348.234L192.339 348.622L192.181 349L191.743 349.695L191.468 350L191.22 350.328L190.947 350.634L190.674 350.94L190.4 351.245L190.142 351.565L189.878 351.879L189.604 352.184L189.352 352.509L189.152 352.868L189.046 353.262L189.033 353.671L189.054 354.08L189.115 354.486L189.213 354.884L189.38 355.258L189.577 355.614L189.805 355.956L190.116 356.224L190.389 356.528L190.579 356.89L190.713 357.277L190.784 357.682L190.91 358.073L191.06 358.453L191.269 358.806L191.606 359.036L191.973 359.219L192.358 359.363L192.743 359.504L193.123 359.657L193.509 359.798L193.864 360.002L193.963 360.355L193.949 360.765L193.892 361.171L193.837 361.578L193.756 361.98L193.72 362.389L193.668 362.795L193.61 363.202L193.623 363.613L193.64 364.022L193.665 364.842L193.674 365.252L193.73 365.659L193.772 366.067L193.818 366.474L193.886 366.879L193.976 367.278L194.088 367.671L194.267 368.038L194.558 368.327L194.892 368.566L195.238 368.786L195.57 369.027L195.923 369.239L196.212 369.534L196.427 369.885L196.602 370.257L196.806 370.612L197.014 370.966L197.24 371.308L197.454 371.658L197.648 372.02L197.856 372.373L198.05 372.736L198.217 373.11L198.358 373.495L198.441 373.897L198.569 374.288L198.775 374.642L199.072 374.921L199.391 375.178L199.746 375.383L200.103 375.586L200.466 375.777L200.832 375.962L201.206 376.129L201.565 376.331L201.944 376.487L202.312 376.669L202.697 376.811L203.065 376.994L203.449 377.14L203.84 377.265L204.224 377.409L204.61 377.548L205.001 377.673L205.397 377.779L205.794 377.885L206.192 377.983L206.598 378.047L207 378.129L207.406 378.183L207.815 378.218L208.223 378.254L208.628 378.325L209 378.504L209.332 378.744L209.689 378.943L210.036 378.772L210.259 378.434L210.469 378.079L210.698 377.74L210.928 377.401L211.19 377.085L211.453 376.771L211.716 376.456L211.933 376.108L212.134 375.751L212.251 375.359L212.358 374.964L212.402 374.555L212.499 374.156L212.633 373.769L212.771 373.383L212.944 373.011L213.13 372.645L213.333 372.289L213.552 371.943L213.751 371.583L213.999 371.256L214.247 370.93L214.491 370.6L214.728 370.265L215.233 369.619L215.494 369.303L215.706 368.955L215.892 368.591L216.084 368.228L216.215 367.837L216.409 367.474L216.547 367.087L216.879 366.336L217.081 365.978L217.254 365.605L217.487 365.266L217.698 364.915L217.955 364.595L218.244 364.303L218.616 364.129L219.019 364.065L219.41 363.948L219.797 363.814L220.167 363.637L220.547 363.48L220.91 363.289L221.236 363.038L221.51 362.736L221.67 362.358L221.754 361.96L221.597 361.589L221.29 361.318L220.955 361.081L220.623 360.842L220.317 360.573L220.045 360.269L219.833 359.919L219.733 359.522L219.687 359.117L219.703 358.708L219.753 358.3L219.869 357.905L220.015 357.521L220.179 357.144L220.401 356.797L220.595 356.435L220.83 356.099L221.069 355.765L221.347 355.462L221.633 355.168L221.955 354.913L222.272 354.652L222.63 354.453L222.977 354.235L223.317 354.005L223.646 353.76L223.976 353.518L224.312 353.283L224.643 353.04L224.965 352.787L225.273 352.515L225.608 352.276L225.901 351.989L226.22 351.73L226.509 351.438L226.811 351.16L227.087 350.857L227.378 350.567L227.631 350.244L228.15 349.609L228.394 349.279L228.64 348.951L228.905 348.638L229.186 348.338L229.455 348.029L229.718 347.714L230.017 347.432L230.332 347.17L230.637 346.894L231.022 346.751L231.409 346.616L231.816 346.565L232.226 346.545L232.635 346.567L233.045 346.571L233.454 346.606L233.865 346.598L234.275 346.598L234.678 346.683L235.075 346.785L235.472 346.886L235.878 346.941L236.282 346.871L236.632 346.661L236.941 346.396L237.237 346.112L237.497 345.794L237.716 345.447L237.939 345.103L238.169 344.764L238.399 344.424L238.614 344.075L238.878 343.76L239.147 343.451L239.413 343.138L239.731 342.877L240.07 342.645L240.384 342.38L240.708 342.129L241.021 341.865L241.332 341.597L241.641 341.327L241.946 341.052L242.212 340.738L242.485 340.434L242.775 340.142L243 339.798L243.233 339.462L243.456 339.117L243.628 338.745L243.769 338.36L243.897 337.971L243.96 337.566L244.002 337.158L243.978 336.749L243.948 336.341L243.941 335.929L243.875 335.524L243.854 335.114L243.848 334.703L243.855 334.294L243.875 333.886L243.894 333.474L244.041 333.09L244.291 332.77L244.515 332.428L244.606 332.026L244.693 331.625L244.72 331.216L244.741 330.807L244.777 330.397L244.759 329.986L244.734 329.576L244.66 329.173L244.595 328.769L244.476 328.376L244.385 327.976L244.284 327.579L244.167 327.185L244.093 326.781L243.985 326.386L243.913 325.982L243.821 325.582L243.739 325.18L243.659 324.778L243.589 324.374L243.491 323.975L243.461 323.566L243.387 323.162L243.372 322.751L243.307 322.345L243.281 321.936L243.218 321.53L243.194 321.12L243.123 320.716L243.071 320.309L242.998 319.905L242.895 319.508L242.809 319.107L242.675 318.72L242.543 318.332L242.375 317.958L242.226 317.576L242.088 317.19L241.968 316.798L241.816 316.416L241.724 316.015L241.582 315.629L241.501 315.226L241.397 314.83L241.294 314.433L241.187 314.037L241.074 313.643L241.008 313.237L240.885 312.845L240.776 312.45L240.692 312.048L240.596 311.649L240.482 311.255L240.347 310.867L240.202 310.483L240.067 310.097L239.938 309.708L239.793 309.323L239.626 308.949L239.464 308.573L239.269 308.212L239.124 307.827L238.945 307.458L238.81 307.069L238.648 306.693L238.459 306.328L238.3 305.949L238.148 305.568L237.972 305.198L237.816 304.818L237.638 304.448L237.443 304.087L237.247 303.727L237.05 303.367L236.855 303.006L236.637 302.659L236.403 302.323L236.179 301.979L235.927 301.657L235.667 301.337L235.356 301.069L235.021 300.835L234.666 300.632L234.304 300.439L233.937 300.255L233.565 300.083L233.203 299.89L232.824 299.731L232.459 299.545L232.109 299.33L231.749 299.134L231.387 298.942L231.031 298.737L230.693 298.505L230.345 298.287L230.006 298.056L229.691 297.794L229.352 297.561L229.046 297.287L228.754 296.999L228.444 296.729L228.166 296.428L227.892 296.121L227.657 295.785L227.42 295.45L227.163 295.13L226.928 294.793L226.648 294.493L226.376 294.185L226.203 293.828L226.242 293.429L226.494 293.106L226.748 292.784L227.024 292.481L227.3 292.176L227.345 292.069M222.765 189.222L222.737 189.318L222.73 189.63L222.678 190.036L222.595 190.437L222.471 190.829L222.306 191.205L222.167 191.591L222.012 191.97L221.861 192.351L221.737 192.741L221.618 193.133L221.545 193.537L221.508 193.945L221.536 194.355L221.631 194.753L221.76 195.14L221.935 195.509L222.143 195.861L222.387 196.19L222.628 196.523L222.914 196.817L223.218 197.093L223.5 197.392L223.81 197.66L224.109 197.941L224.428 198.198L224.705 198.504L225.006 198.781L225.299 199.067L225.595 199.352L225.892 199.634L226.186 199.921L226.46 200.226L226.777 200.489L227.046 200.799L227.326 201.1L227.631 201.375L227.909 201.677L228.152 202.01L228.432 202.31L228.677 202.638L228.947 202.948L229.165 203.296L229.391 203.638L229.634 203.969L229.838 204.326L229.999 204.704L230.179 205.073L230.314 205.46L230.444 205.849L230.535 206.249L230.619 206.65L230.647 207.06L230.66 207.469L230.653 207.878L230.644 208.288L230.613 208.697L230.468 209.505L230.341 209.896L230.227 210.289L230.104 210.679L229.989 211.073L229.91 211.475L229.835 211.878L229.733 212.276L229.668 212.682L229.555 213.077L229.436 213.471L229.205 213.81L228.927 214.107L228.678 214.434L228.526 214.817L228.419 215.212L228.313 215.607L228.228 216.009L228.195 216.419L228.149 216.827L228.14 217.237L228.139 217.647L228.114 218.057L228.118 218.467L228.11 218.877L228.069 219.286L228.036 220.106L228.006 220.516L227.926 220.918L227.801 221.308L227.713 221.709L227.636 222.112L227.567 222.516L227.539 222.925L227.483 223.332L227.459 223.742L227.477 224.153L227.471 224.563L227.46 224.973L227.452 225.383L227.478 225.793L227.444 226.203L227.45 226.613L227.429 227.022L227.426 227.432L227.391 227.841L227.354 228.249L227.279 228.652L227.23 229.06L227.108 229.452L227.039 229.857L226.978 230.262L226.905 230.665L226.852 231.072L226.829 231.482L226.82 231.892L226.806 232.301L226.797 232.711L226.813 233.121L226.802 233.531L226.833 233.94L226.826 234.351L226.863 234.76L226.864 235.17L226.876 235.58L226.919 235.989L226.91 236.399L226.917 236.809L226.94 237.219L226.918 237.629L226.935 238.039L226.91 238.449L226.904 238.859L226.879 239.268L226.865 239.678L226.849 240.087L226.807 240.495L226.793 240.905L226.723 241.31L226.678 241.717L226.618 242.123L226.544 242.526L226.471 242.929L226.382 243.329L226.283 243.727L226.218 244.133L226.093 244.524L225.997 244.923L225.918 245.325L225.835 245.726L225.777 246.132L225.725 246.538L225.685 246.946L225.637 247.354L225.627 247.764L225.615 248.174L225.581 248.583L225.562 248.992L225.516 249.4L225.493 249.809L225.477 250.219L225.444 250.628L225.336 251.441L225.27 251.846L225.191 252.248L225.099 252.648L224.912 253.447L224.853 253.853L224.775 254.256L224.688 254.657L224.575 255.052L224.513 255.458L224.419 255.857L224.361 256.263L224.284 256.666L224.208 257.069L224.153 257.476L224.068 257.877L224.017 258.284L223.953 258.689L223.891 259.094L223.832 259.5L223.742 259.901L223.705 260.31L223.646 260.716L223.617 261.125L223.54 261.529L223.514 261.939L223.464 262.345L223.422 262.753L223.383 263.161L223.368 263.572L223.34 263.981L223.29 264.388L223.253 264.797L223.24 265.206L223.238 265.617L223.216 266.026L223.2 266.436L223.181 267.256L223.198 267.666L223.197 268.076L223.162 268.486L223.165 268.896L223.148 269.306L223.127 269.715L223.112 270.125L223.062 270.532L223.057 270.943L223.03 271.352L222.979 271.76L222.965 272.17L222.916 272.577L222.891 272.986L222.864 273.396L222.828 273.804L222.822 274.215L222.789 274.623L222.764 275.033L222.775 275.443L222.768 275.853L222.772 276.263L222.743 276.673L222.75 277.083L222.736 277.493L222.711 277.903L222.753 278.312L222.815 278.716L222.903 279.115L223.033 279.502L223.172 279.888L223.353 280.257L223.515 280.633L223.67 281.013L223.828 281.392L223.985 281.771L224.13 282.154L224.23 282.553L224.333 282.949L224.408 283.352L224.441 283.761L224.451 284.172L224.544 284.573L224.617 284.975L224.713 285.373L224.803 285.775L224.941 286.162L225.099 286.541L225.29 286.904L225.481 287.267L225.664 287.633L225.874 287.985L226.081 288.339L226.294 288.689L226.523 289.029L226.734 289.382L226.975 289.714L227.213 290.048L227.459 290.376L227.676 290.725L227.912 291.06L228.135 291.404L228.357 291.749L228.573 292.097L228.792 292.445L228.961 292.82L229.011 292.902M222.863 189.133L222.883 189.035L223.123 188.815L223.285 188.437L223.381 188.039L223.439 187.634L223.495 187.227L223.515 186.817L223.582 186L223.6 185.591L223.633 185.182L223.643 184.772L223.66 184.363L223.683 183.954L223.713 183.544L223.77 183.138L223.826 182.732L223.879 182.326L223.909 181.917L223.95 181.508L223.939 181.098L223.918 180.688L223.94 180.278L223.928 179.868L224.073 179.514L224.478 179.464L224.88 179.405L225.217 179.168L225.485 178.862L225.341 178.488L225.089 178.166L224.765 177.941L224.361 177.867L223.949 177.87L223.543 177.823L223.211 177.614L223.359 177.295L223.548 176.947L223.698 176.565L223.869 176.2L224.02 175.828L223.992 175.417L223.982 175.006L223.933 174.598L223.846 174.196L223.82 173.785L223.889 173.379L223.949 172.974L224.03 172.572L224.116 172.171L224.262 171.788L224.422 171.41L224.627 171.055L224.834 170.701L225.044 170.349L225.24 169.989L225.438 169.63L225.657 169.283L225.859 168.926L226.089 168.585L226.283 168.224L226.472 167.859L226.687 167.51L226.852 167.135L226.974 166.744L227.11 166.357L227.22 165.961L227.383 165.584L227.521 165.198L227.682 164.821L227.83 164.438L228.024 164.076L228.185 163.698L228.326 163.315L228.378 162.916L228.194 162.551L227.878 162.288L227.616 161.974L227.352 161.66L227.079 161.355L226.815 161.041L226.544 160.732L226.298 160.403L226.095 160.045L225.891 159.691L225.687 159.335L225.456 158.996L225.228 158.656L224.998 158.316L224.741 157.996L224.502 157.663L224.292 157.311L224.088 156.955L223.959 156.566L223.828 156.177L223.66 155.802L223.515 155.418L223.37 155.035L223.212 154.657L223.009 154.299L222.842 153.924L222.619 153.579L222.394 153.236L222.131 152.921L221.883 152.594L221.624 152.276L221.368 151.955L221.057 151.686L220.75 151.413L220.398 151.201L220.066 150.96L219.766 150.678L219.482 150.383L219.188 150.098L218.831 149.901L218.45 149.752L218.058 149.632L217.658 149.541L217.269 149.409L216.881 149.28L216.489 149.162L216.084 149.093L215.715 148.916L215.358 148.713L214.976 148.563L214.587 148.436L214.208 148.297L213.849 148.098L213.509 147.868L213.144 147.681L212.812 147.439L212.463 147.224L212.1 147.032L211.735 146.849L211.382 146.64L211.057 146.392L210.737 146.135L210.456 145.835L210.121 145.596L209.781 145.37L209.479 145.094L209.204 144.793L208.946 144.473L208.664 144.175L208.357 143.899L208.165 143.578M208.457 143.675L208.438 143.577L208.444 143.265L208.363 142.862L208.25 142.468L208.132 142.075L208.033 141.677L207.907 141.286L207.819 140.886L207.774 140.478L207.744 140.07L207.656 139.672L207.499 139.294L207.346 138.913L207.154 138.55L206.923 138.211L206.708 137.861L206.515 137.499L206.337 137.13L206.153 136.763L205.991 136.386L205.781 136.033L205.544 135.698L205.316 135.357L205.062 135.035L204.843 134.689L204.608 134.351L204.435 133.978L204.225 133.626L204.026 133.267L203.825 132.91L203.618 132.556L203.408 132.204L203.208 131.845L202.949 131.525L202.749 131.166L202.54 130.813L202.303 130.477L202.101 130.12L201.944 129.739L201.747 129.38L201.592 129L201.394 128.639L201.228 128.264L201.01 127.915L200.78 127.575L200.611 127.201L200.43 126.835L200.148 126.536L199.894 126.213L199.638 125.893L199.41 125.552L199.179 125.214L198.979 124.855L198.774 124.5L198.57 124.145L198.355 123.796L198.149 123.441L197.969 123.072L197.778 122.709L197.622 122.329L197.433 121.965L197.243 121.601L197.086 121.222L196.912 120.851L196.72 120.489L196.523 120.129L196.272 119.804L196.036 119.469L195.782 119.146L195.559 118.802L195.281 118.506L194.991 118.22L194.717 117.916L194.469 117.589L194.256 117.238L194.041 116.889L193.797 116.558L193.576 116.213L193.337 115.879L193.104 115.542L192.902 115.184L192.688 114.834L192.497 114.47L192.351 114.086L192.192 113.708L192.019 113.336L191.835 112.97L191.663 112.597L191.489 112.225L191.277 111.874L191.064 111.523L190.852 111.172L190.609 110.842L190.389 110.495L190.14 110.169L189.856 109.871L189.594 109.556L189.346 109.229L189.112 108.892L188.871 108.559L188.706 108.182L188.293 107.472L188.035 107.152L187.736 106.875L187.525 106.525L187.326 106.166L187.067 105.848L186.909 105.47L186.755 105.09L186.581 104.72L186.404 104.351L186.209 103.99L186.002 103.636L185.814 103.272L185.664 102.889L185.532 102.501L185.378 102.121L185.235 101.737L185.024 101.385L184.844 101.016L184.673 100.644L184.622 100.237L184.622 99.8277L184.59 99.418L184.603 99.0077L184.593 98.5978L184.559 98.1886L184.566 97.7782L184.532 97.369L184.539 96.9587L184.524 96.5489L184.528 96.1389L184.52 95.729L184.511 95.6869M184.609 95.2007L184.58 95.1049L184.465 94.817L184.232 94.4782L184.022 94.1272L183.869 93.7472L183.693 93.3804L183.606 92.9827L183.597 92.1632L183.521 91.7607L183.476 91.3528L183.42 90.9465L183.357 90.5411L183.249 90.1451L183.118 89.7563L183.018 89.3582L182.929 88.9574L182.859 88.5532L182.796 88.1476L182.784 87.737L182.746 87.3289L182.693 86.922L182.671 86.512L182.604 86.1074L182.543 85.7018L182.431 85.3071L182.351 84.9034L182.191 84.5247L182.046 84.1415L181.911 83.7544L181.787 83.3636L181.678 82.9681L181.605 82.5639L181.482 82.1711L181.431 81.7633L181.372 81.3578L181.28 80.9567L181.229 80.5496L181.225 80.1378L181.171 79.731L181.16 79.321L181.114 78.9128L181.127 78.5022L181.122 78.0925L181.086 77.6829L181.07 77.2737L181.077 76.863L181.043 76.4541L181.043 76.0439L181.041 75.6338L181.077 75.2253L181.124 74.8177L181.235 74.4231L181.363 74.0333L181.469 73.6367L181.541 73.2324L181.604 72.8273L181.684 72.4251L181.743 72.0193L181.837 71.6194L181.898 71.2138L181.957 70.8078L182.051 70.4083L182.123 70.0047L182.191 69.6004L182.281 69.1999L182.321 68.7911L182.395 68.3876L182.453 67.9816L182.524 67.5782L182.546 67.17L182.559 66.7587L182.454 66.3607L182.282 65.9887L182.151 65.5992L182.056 65.2007L181.954 64.8036L181.901 64.3973L181.84 63.9917L181.794 63.5836L181.789 63.1731L181.769 62.7631L181.765 62.3534L181.784 61.9429L181.765 61.5331L181.73 61.1244L181.688 60.7165L181.665 60.307L181.647 59.8969L181.595 59.49L181.552 59.0823L181.521 58.6734L181.468 58.2665L181.458 57.8559L181.433 57.4469L181.38 57.0392L181.369 56.6291L181.376 56.2189L181.384 55.8089L181.354 55.3994L181.371 54.9884L181.327 54.5802L181.278 54.1724L181.175 53.775L181.105 53.5394M181.105 53.6363L181.031 53.5689L180.956 53.2593L180.622 53.0179L180.25 52.8466L179.872 52.6883L179.504 52.5059L179.144 52.3132L178.803 52.0995L178.479 51.8506L178.365 51.4626L178.378 51.0526L178.38 50.6426L178.388 50.2326L178.373 49.8229L178.323 49.4148L178.508 49.2655L178.739 49.6049L178.999 49.9205L179.295 50.2022L179.598 50.4802L179.946 50.6992L180.313 50.8805L180.677 51.0711L181.064 51.2065L181.443 51.3639L181.841 51.4597L182.246 51.5232L182.426 51.1935L182.359 50.7888L182.24 50.3965L182.175 50.2294M182.182 50.676L182.182 50.576L182.256 50.2732L182.314 49.8667L182.315 49.4572L182.28 49.0492L182.269 48.6391L182.238 48.2303L182.188 47.8238L182.13 47.4178L182.154 47.0095L182.215 46.6056L182.312 46.2072L182.345 45.7987L182.37 45.3896L182.394 44.9799L182.434 44.5722L182.456 44.1635L182.463 43.7538L182.459 43.3438L182.486 42.9338L182.474 42.5238L182.454 42.1138L182.465 41.7037L182.418 41.296L182.393 40.8867L182.359 40.4769L182.434 40.0727L182.542 39.6821L182.589 39.3339L182.305 39.0381L182.313 38.6675L182.376 38.2629L182.477 37.8706L182.754 37.6611M182.754 37.6611L182.854 37.6638M182.754 37.6611L182.778 37.564L182.95 37.3017L183.136 36.9362L183.354 36.5894L183.494 36.2055L183.487 35.7951L183.552 35.3897L183.604 34.9832L183.638 34.5742L183.667 34.1656L183.678 33.7572L183.656 33.3481L183.566 32.9478L183.475 32.548L183.407 32.1436L183.337 31.7397L183.275 31.334L183.181 30.9341L183.082 30.5362L182.975 30.1403L182.895 29.7378L182.808 29.3373L182.723 28.9361L182.654 28.5319L182.599 28.1256L182.524 27.7222L182.486 27.3136L182.403 26.9109L182.377 26.5011L182.354 26.0915L182.283 25.6865L182.232 25.28L182.181 24.8734L182.123 24.4676L182.078 24.0602L181.983 23.6611L181.667 23.4031L181.394 23.0938L181.137 22.773L180.805 22.5321L180.481 22.2795L180.13 22.0678L179.802 21.8222L179.44 21.6341L179.061 21.4726L178.655 21.411L178.264 21.2901L177.858 21.2684L177.448 21.2402L177.038 21.2509L176.627 21.254L176.223 21.3241L175.812 21.3502L175.411 21.4396L175.009 21.5203L174.609 21.6103L174.206 21.6902L173.798 21.7301L173.39 21.7717L172.994 21.8834L172.597 21.982L172.206 22.1069L171.83 22.2734L171.517 22.5351L171.214 22.8046L170.94 23.1107L170.733 23.465L170.56 23.8362L170.365 24.1958L170.143 24.5384L169.88 24.8523L169.599 25.1519L169.262 25.3802L168.886 25.4893L168.561 25.2393L168.256 24.9721L167.961 24.6844L167.594 24.4971L167.202 24.3942L166.794 24.3489L166.401 24.2368L165.994 24.1769L165.585 24.2075L165.176 24.228L164.781 24.3342L164.67 24.5241L165.044 24.685L165.439 24.782L165.804 24.9716L166.151 25.1912L166.449 25.4739L166.75 25.7528L167.023 26.0626L167.155 26.4503L167.232 26.852L167.194 27.261L167.053 27.6327L166.679 27.7871L166.27 27.8209L165.861 27.8082L165.453 27.7677L165.044 27.7396L164.642 27.6525L164.244 27.5628L163.879 27.3845L163.514 27.1975L163.152 27.0046L162.803 26.7896L162.451 26.577L162.052 26.4741L161.667 26.3376L161.287 26.1844L160.528 25.8715L160.133 25.7588L159.73 25.6823L159.329 25.5914L158.923 25.5352L158.515 25.491L158.109 25.429L157.698 25.4175L157.292 25.36L156.884 25.3167L156.486 25.2207L156.112 25.0567L155.854 24.9238M182.854 37.6638L182.849 37.6657L182.943 37.685L182.992 37.6676M182.854 37.6638L182.623 38.049L182.525 38.4035L182.797 38.1042L182.964 37.7281L182.992 37.6676M182.992 37.6676L183.053 37.5884M183.053 37.5884L183.326 37.4667L183.56 37.1297L183.727 36.7543L183.723 36.7197M183.053 37.5884L183.186 37.3056L183.489 37.0259L183.723 36.7197M183.723 36.7197L183.819 36.4386L183.795 36.5902L183.723 36.7197Z" stroke="black" stroke-linecap="round"/>
</g>
</g>
</g>
</svg>
