<svg width="400" height="400" viewBox="0 0 400 400" fill="none" xmlns="http://www.w3.org/2000/svg">
<g id="parisframe">
<g id="paris">
<g id="dots">
<circle id="paris6" cx="276.5" cy="180.5" r="1.34314" fill="black" stroke="black" stroke-width="0.313723"/>
<circle id="paris13" cx="265.5" cy="192.5" r="1.34314" fill="black" stroke="black" stroke-width="0.313723"/>
<circle id="paris5" cx="281.5" cy="196.5" r="1.34314" fill="black" stroke="black" stroke-width="0.313723"/>
<circle id="paris4" cx="234.5" cy="242.5" r="1.34314" fill="black" stroke="black" stroke-width="0.313723"/>
<circle id="paris11" cx="107.5" cy="266.5" r="1.34314" fill="black" stroke="black" stroke-width="0.313723"/>
<circle id="paris2" cx="247.5" cy="155.5" r="1.34314" fill="black" stroke="black" stroke-width="0.313723"/>
<circle id="paris10" cx="199.5" cy="117.5" r="1.34314" fill="black" stroke="black" stroke-width="0.313723"/>
<circle id="paris12" cx="158.5" cy="147.5" r="1.34314" fill="black" stroke="black" stroke-width="0.313723"/>
<circle id="paris8" cx="327.5" cy="123.5" r="1.34314" fill="black" stroke="black" stroke-width="0.313723"/>
<circle id="paris1" cx="123.5" cy="113.5" r="1.34314" fill="black" stroke="black" stroke-width="0.313723"/>
<circle id="paris7" cx="106.5" cy="145.5" r="1.34314" fill="black" stroke="black" stroke-width="0.313723"/>
<circle id="paris9" cx="60.5" cy="220.5" r="1.34314" fill="black" stroke="black" stroke-width="0.313723"/>
</g>
<g id="outline">
<path id="paris_outline" d="M127.404 89.2977L127.484 89.237L127.795 89.1756L128.122 88.9252L128.707 88.3501L129.031 88.0981L129.338 87.8259L129.657 87.5692L129.983 87.3192L130.304 87.0645L130.641 86.8308L130.974 86.5907L131.311 86.3577L131.641 86.114L131.966 85.8634L132.303 85.6302L132.639 85.3957L132.977 85.1634L133.31 84.9235L133.659 84.7079L133.985 84.459L134.305 84.2007L134.647 83.9742L134.966 83.717L135.293 83.4693L135.593 83.1892L135.928 82.9494L136.227 82.6687L136.532 82.3947L136.836 82.1193L137.141 81.845L137.452 81.578L137.784 81.3368L138.084 81.0541L138.429 80.8316L138.772 80.607L139.102 80.3617L139.454 80.1507L139.826 79.9744L140.168 79.7478L140.529 79.5516L140.866 79.3178L141.23 79.1274L141.581 78.9147L141.911 78.6696L142.256 78.4476L142.615 78.2486L142.955 78.0184L143.31 77.8129L143.655 77.5919L144.008 77.3827L144.349 77.1546L144.703 76.9475L145.047 76.7235L145.383 76.4875L145.702 76.2294L146.016 75.9662L146.34 75.7152L146.652 75.4483L146.985 75.2076L147.292 74.9356L147.597 74.6608L147.924 74.4131L148.24 74.1515L148.557 73.8925L148.895 73.6586L149.21 73.3946L149.55 73.1662L149.884 72.9268L150.236 72.7153L150.581 72.4942L150.951 72.3135L151.296 72.0924L151.644 71.8745L152.009 71.6865L152.375 71.5017L152.725 71.2876L153.088 71.0954L153.435 70.8779L153.778 70.6525L154.132 70.4462L154.472 70.2157L154.818 69.9962L155.184 69.8076L155.537 69.6003L155.892 69.3951L156.255 69.2026L156.637 69.0523L157.028 68.9296L157.783 68.6084L158.162 68.4511L158.527 68.2642L158.908 68.1091L159.278 67.9316L159.63 67.7204L159.996 67.5341L160.364 67.3547L160.733 67.1748L161.086 66.9655L161.467 66.8096L161.829 66.6177L162.202 66.4478L162.567 66.2606L162.944 66.0978L163.319 65.9325L163.706 65.7969L164.081 65.6293L164.478 65.5234L164.863 65.3817L165.256 65.2621L165.654 65.1664L166.049 65.0546L166.437 64.9207L166.824 64.7842L167.216 64.6644L167.611 64.5556L168.006 64.4413L168.411 64.3765L168.814 64.2976L169.224 64.2885L169.634 64.2676L170.044 64.2916L170.453 64.3096L170.864 64.3005L171.272 64.3453L171.681 64.3731L172.092 64.3824L172.499 64.4365L172.909 64.4519L173.315 64.5088L173.724 64.5437L174.131 64.5956L174.539 64.6317L174.948 64.6653L175.355 64.7169L175.765 64.7338L176.171 64.7979L176.58 64.827L176.989 64.8597L177.397 64.8947L177.807 64.9177L178.216 64.9426L178.626 64.964L179.037 64.9359L179.446 64.9572L179.856 64.9531L180.266 64.9466L180.676 64.9589L181.086 64.9573L181.496 64.9608L181.906 64.9608L182.316 64.9757L182.726 64.9569L183.136 64.9426L183.546 64.949L183.955 64.9303L184.366 64.9251L184.774 64.886L185.18 64.8265L185.586 64.771L185.994 64.7245L186.4 64.6656L186.805 64.6056L187.211 64.5462L187.617 64.4921L188.025 64.4445L188.432 64.4035L188.837 64.3335L189.244 64.2814L189.651 64.2383L190.062 64.2194L190.467 64.1496L190.875 64.1108L191.279 64.0363L192.091 63.9261L192.495 63.8505L192.903 63.8062L193.306 63.7304L193.711 63.6694L194.117 63.6077L194.522 63.5475L194.933 63.5197L195.336 63.4436L195.743 63.3926L196.146 63.315L196.556 63.2903L196.961 63.2199L197.368 63.1777L197.776 63.1323L198.184 63.0897L198.589 63.0273L198.997 62.9817L199.407 62.9619L199.816 62.9334L200.223 62.8855L200.63 62.8302L201.039 62.7979L201.447 62.7645L201.856 62.7286L202.265 62.6962L202.671 62.6409L203.08 62.6067L203.491 62.6033L203.899 62.5574L204.308 62.5263L204.716 62.4957L205.125 62.456L205.535 62.4489L205.942 62.3937L206.351 62.3604L206.761 62.3496L207.169 62.3016L207.579 62.2886L207.988 62.2535L208.396 62.2211L208.806 62.1994L209.213 62.1517L209.623 62.1333L210.033 62.1115L210.44 62.0573L210.849 62.0277L211.257 61.988L211.667 61.973L212.074 61.917L212.483 61.8877L212.893 61.8799L213.3 61.8249L213.708 61.7786L214.116 61.7431L214.525 61.7136L214.935 61.6945L215.341 61.6357L215.75 61.5982L216.159 61.5654L216.566 61.5233L216.973 61.4724L217.38 61.4203L217.79 61.3972L218.197 61.3467L218.603 61.2923L219.01 61.2402L219.42 61.2126L219.822 61.1231L220.229 61.0746L220.635 61.022L221.046 60.9953L221.452 60.9367L221.857 60.8757L222.26 60.7954L222.665 60.7309L223.073 60.6903L223.479 60.6331L223.887 60.5908L224.295 60.5514L224.702 60.5019L225.112 60.482L225.519 60.4316L225.927 60.3892L226.334 60.3385L226.745 60.3259L227.153 60.2896L227.562 60.267L227.972 60.2412L228.381 60.2175L228.79 60.1833L229.201 60.196L229.61 60.1686L230.02 60.1778L230.43 60.153L230.84 60.1811L231.25 60.1787L231.66 60.1597L232.07 60.1681L232.48 60.1795L232.89 60.1834L233.3 60.1779L233.71 60.1814L234.12 60.1877L234.53 60.1706L234.94 60.1859L235.35 60.1877L235.76 60.1876L236.17 60.2066L236.58 60.2143L236.989 60.2394L237.399 60.2689L237.808 60.2921L238.218 60.304L238.627 60.3292L239.035 60.3807L239.442 60.4282L239.852 60.4493L240.259 60.4951L240.666 60.5423L241.073 60.5972L241.483 60.6127L241.892 60.6437L242.302 60.63L242.712 60.6577L243.122 60.6332L243.531 60.6258L243.942 60.6227L244.351 60.5957L244.761 60.5817L245.17 60.5613L245.58 60.5449L245.99 60.5354L246.399 60.4922L246.809 60.5023L247.219 60.5088L247.629 60.5041L248.039 60.4875L248.859 60.4905L249.269 60.5047L249.679 60.5065L250.089 60.5175L250.499 60.5469L250.909 60.5159L251.319 60.553L251.729 60.528L252.139 60.5279L252.549 60.5195L252.959 60.5406L253.368 60.5139L253.779 60.5371L254.188 60.5083L254.598 60.4942L255.007 60.4586L255.417 60.4523L255.826 60.4196L256.235 60.3913L256.645 60.3776L257.053 60.3368L257.464 60.3357L257.874 60.3184L258.281 60.2667L258.692 60.2581L259.099 60.2066L259.509 60.1876L259.917 60.1558L260.327 60.13L260.736 60.1074L261.145 60.0756L261.554 60.0452L261.962 60.0071L262.369 59.9569L262.779 59.9406L263.188 59.9023L263.596 59.8656L264.003 59.8116L264.412 59.7842L264.821 59.7547L265.229 59.7156L265.641 59.7165L266.048 59.6626L266.457 59.6349L266.864 59.5896L267.274 59.5717L267.683 59.5401L268.094 59.5314L268.501 59.4756L268.911 59.4629L269.32 59.4381L269.729 59.4079L270.137 59.3683L270.546 59.3395L270.956 59.3277L271.366 59.3127L271.776 59.2921L272.184 59.2541L272.595 59.2672L273.004 59.2234L273.414 59.2272L273.823 59.1952L274.233 59.1937L274.643 59.1696L275.053 59.1811L275.463 59.1586L275.873 59.1522L276.283 59.1508L276.693 59.132L277.103 59.1164L277.513 59.1209L277.923 59.1391L278.333 59.1323L278.742 59.1053L279.153 59.1119L279.563 59.1214L279.972 59.0765L280.383 59.1023L280.792 59.0622L281.202 59.0569L281.612 59.0454L282.022 59.0523L282.431 59.0255L282.842 59.0239L283.25 58.9808L283.66 58.9568L284.07 58.9685L284.48 58.9485L284.889 58.9266L285.299 58.9181L285.709 58.902L286.118 58.8621L286.528 58.8452L286.938 58.8498L287.348 58.8379L287.757 58.7983L288.166 58.779L288.576 58.7746L288.986 58.7693L289.396 58.7365L289.806 58.7448L290.216 58.736L290.625 58.6896L291.035 58.6791L291.445 58.6942L291.855 58.6712L292.265 58.6695L292.675 58.657L293.085 58.6482L293.495 58.6461L293.905 58.6508L294.314 58.6132L294.724 58.6046L295.134 58.6346L295.544 58.6049L295.954 58.6093L296.364 58.6275L297.184 58.6099L297.594 58.6253L298.004 58.6141L298.414 58.6232L298.824 58.6079L299.234 58.6104L299.644 58.6389L300.054 58.6073L300.464 58.6148L300.874 58.6271L301.284 58.6383L301.694 58.6397L302.104 58.6016L302.514 58.6196L302.924 58.6032L303.334 58.6371L303.744 58.6122L304.154 58.6276L304.564 58.6103L304.974 58.6075L305.384 58.6372L305.794 58.6288L306.204 58.634L306.615 58.642L307.015 58.736L307.416 58.8233L307.798 58.9736L308.167 59.1512L308.526 59.3492L308.873 59.5677L309.254 59.7178L309.636 59.8687L310.033 59.9705L310.434 60.058L310.839 60.1278L311.244 60.1931L311.654 60.2162L312.057 60.2979L312.466 60.3331L312.865 60.4336L313.271 60.4929L313.668 60.5945L314.073 60.6642L314.468 60.7764L314.872 60.8491L315.27 60.9474L315.671 61.033L316.076 61.0993L316.475 61.1955L316.88 61.2582L317.281 61.3437L317.686 61.4116L318.087 61.4985L318.485 61.5961L318.879 61.7113L319.281 61.7942L319.665 61.9405L320.065 62.0382L320.442 62.2005L320.826 62.3439L321.208 62.4933L321.589 62.6454L321.969 62.7994L322.326 63.0045L322.704 63.1654L323.071 63.3492L323.42 63.5659L323.768 63.7817L324.119 63.993L324.474 64.1984L324.828 64.4069L325.167 64.6372L325.493 64.8866L325.818 65.1361L326.148 65.3797L326.464 65.6409L326.803 65.8739L327.105 66.1513L327.43 66.4019L327.72 66.6936L328.026 66.9666L328.348 67.2212L328.652 67.4968L328.952 67.7764L329.27 68.0348L329.574 68.3112L329.892 68.57L330.218 68.8186L330.541 69.0714L330.86 69.3298L331.169 69.5988L331.487 69.858L331.827 70.0839L332.171 70.3057L332.527 70.5101L332.861 70.7475L333.186 70.9954L333.483 71.2788L333.746 71.5936L333.991 71.9219L334.228 72.2559L334.461 72.5924L334.664 72.9484L334.891 73.2914L335.084 73.6531L335.245 74.0313L335.423 74.4005L335.606 74.7674L335.781 75.1385L335.932 75.5202L336.109 75.8904L336.282 76.2621L336.433 76.6438L336.624 77.0072L336.773 77.3898L336.91 77.7767L337.076 78.1522L337.208 78.5406L337.343 78.9279L337.445 79.3258L337.557 79.7201L337.691 80.1081L337.783 80.508L337.907 80.8992L337.993 81.3003L338.078 81.7013L338.199 82.0941L338.257 82.5013L338.37 82.8963L338.459 83.2968L338.509 83.7049L338.604 84.1042L338.666 84.5096L338.76 84.9092L338.816 85.3157L338.901 85.7171L338.965 86.1221L339.014 86.5297L339.102 86.9305L339.186 87.3322L339.255 87.7363L339.309 88.1431L339.397 88.5439L339.462 88.9489L339.528 89.3537L339.606 89.7563L339.727 90.15L339.778 90.5584L339.879 90.956L339.994 91.3502L340.063 91.7555L340.179 92.1488L340.28 92.5462L340.386 92.9423L340.499 93.3366L340.625 93.727L340.747 94.1184L340.896 94.5009L341.003 94.8976L341.134 95.286L341.285 95.6679L341.395 96.0633L341.524 96.4524L341.647 96.8437L341.781 97.2313L341.912 97.6198L342.058 98.0034L342.165 98.3999L342.302 98.7862L342.447 99.1699L342.568 99.562L342.708 99.9477L342.871 100.324L343.015 100.708L343.126 101.104L343.254 101.493L343.408 101.875L343.506 102.274L343.613 102.669L343.696 103.071L343.813 103.464L343.886 103.868L343.976 104.268L344.083 104.665L344.143 105.071L344.229 105.472L344.305 105.875L344.374 106.279L344.441 106.683L344.525 107.085L344.573 107.493L344.677 107.891L344.726 108.299L344.803 108.702L344.923 109.096L344.978 109.503L345.104 109.895L345.216 110.288L345.322 110.685L345.438 111.078L345.563 111.469L345.701 111.855L345.801 112.253L345.953 112.636L346.063 113.031L346.169 113.427L346.249 113.83L346.349 114.228L346.402 114.635L346.505 115.033L346.54 115.443L346.625 115.845L346.737 116.657L346.777 117.065L346.817 117.473L346.869 117.88L346.928 118.286L347.002 118.69L347.05 119.097L347.106 119.503L347.148 119.911L347.217 120.316L347.289 120.719L347.387 121.118L347.463 121.521L347.58 121.914L347.711 122.303L347.827 122.697L348.01 123.065L348.163 123.446L348.363 123.804L348.545 124.172L348.785 124.506L349.009 124.848L349.242 125.185L349.484 125.517L349.773 125.81L350.052 126.11L350.323 126.417L350.622 126.699L350.95 126.943L351.267 127.206L351.62 127.415L351.989 127.595L352.365 127.76L353.153 127.985L353.546 128.101L353.949 128.183L354.356 128.237L354.764 128.282L355.173 128.313L355.582 128.34L355.992 128.359L356.403 128.336L356.812 128.38L357.222 128.35L357.632 128.372L358.042 128.38L358.452 128.39L358.862 128.403L359.272 128.387L359.682 128.405L360.091 128.43L360.502 128.428L360.911 128.455L361.321 128.46L361.731 128.459L362.14 128.512L362.551 128.5L362.96 128.521L363.368 128.576L363.779 128.572L364.187 128.609L364.596 128.651L365.006 128.624L365.417 128.637L365.824 128.687L366.23 128.741L366.632 128.813L366.995 128.999L367.314 129.258L367.552 129.592L367.763 129.943L367.911 130.325L368.069 130.703L368.182 131.098L368.293 131.493L368.407 131.886L368.536 132.275L368.692 132.653L368.855 133.029L369.046 133.393L369.193 133.776L369.289 134.177L369.436 134.561L369.535 134.959L369.602 135.365L369.715 135.759L369.777 136.166L369.874 136.564L369.983 136.96L370.092 137.355L370.197 137.751L370.32 138.142L370.426 138.539L370.511 138.94L370.602 139.34L370.712 139.735L370.799 140.136L370.902 140.533L370.969 140.939L371.097 141.329L371.196 141.727L371.317 142.119L371.436 142.511L371.558 142.902L371.699 143.287L371.85 143.669L371.905 144.076L371.965 144.482L371.999 144.891L372.044 145.299L372.166 145.69L372.314 146.026M372.634 145.278L372.637 145.378L372.619 145.688L372.629 146.098L372.644 146.508L372.65 146.918L372.636 147.328L372.665 147.737L372.685 148.147L372.709 148.556L372.75 148.964L372.777 149.373L372.825 149.78L372.879 150.187L372.959 150.589L373.063 150.986L373.158 151.385L373.244 151.786L373.311 152.191L373.373 152.596L373.392 153.007L373.487 153.822L373.485 154.233L373.511 154.642L373.513 155.052L373.544 155.461L373.516 155.872L373.539 156.282L373.553 156.692L373.574 157.101L373.602 157.51L373.633 157.919L373.648 158.329L373.733 158.732L373.759 159.142L373.804 159.55L373.893 159.951L373.952 160.357L373.974 160.768L374.055 161.171L374.102 161.578L374.193 161.979L374.233 162.388L374.297 162.793L374.397 163.192L374.468 163.596L374.511 164.004L374.595 164.406L374.653 164.812L374.729 165.215L374.79 165.62L374.87 166.023L374.92 166.43L374.982 166.835L375.05 167.24L375.133 167.641L375.212 168.044L375.264 168.451L375.333 168.855L375.366 169.265L375.438 169.669L375.513 170.072L375.554 170.48L375.613 170.886L375.672 171.292L375.703 171.701L375.775 172.106L375.808 172.514L375.862 172.921L375.888 173.331L375.929 173.739L375.926 174.15L375.971 174.558L376.012 174.966L376.018 175.377L376.028 175.787L376.082 176.194L376.117 176.603L376.185 177.007L376.259 177.411L376.309 177.818L376.387 178.22L376.455 178.625L376.492 179.034L376.557 179.439L376.629 179.843L376.698 180.247L376.737 180.656L376.76 181.065L376.807 181.472L376.833 181.882L376.834 182.291L376.87 182.7L376.91 183.109L376.992 183.511L377.105 183.906L377.16 184.313L377.181 184.723L377.187 185.133L377.216 185.543L377.179 185.952L377.183 186.363L377.167 186.772L377.18 187.183L377.178 187.593L377.19 188.003L377.182 188.413L377.221 188.822L377.208 189.233L377.246 189.641L377.276 190.051L377.275 190.461L377.281 190.871L377.304 191.28L377.328 191.69L377.337 192.1L377.34 192.51L377.359 192.92L377.342 193.33L377.359 193.74L377.334 194.15L377.349 194.56L377.327 194.97L377.318 195.38L377.342 195.79L377.318 196.2L377.318 196.61L377.344 197.02L377.332 197.43L377.367 197.839L377.367 198.249L377.398 198.658L377.42 199.068L377.466 199.476L377.523 199.882L377.572 200.289L377.664 200.689L377.719 201.097L377.817 201.495L377.922 201.892L378.034 202.286L378.167 202.675L378.293 203.064L378.4 203.459L378.535 203.848L378.603 204.253L378.68 204.656L378.748 205.061L378.79 205.469L378.838 205.876L378.873 206.285L378.906 206.694L378.919 207.104L378.96 207.512L378.992 207.921L378.998 208.331L379.015 208.741L379.008 209.151L379.025 209.561L379.056 209.97L379.077 210.38L379.085 210.79L379.119 211.609L379.135 212.019L379.146 212.429L379.154 212.839L379.158 213.249L379.195 213.658L379.21 214.068L379.211 214.478L379.182 214.888L379.199 215.298L379.172 215.707L379.17 216.118L379.14 216.526L379.104 216.935L379.087 217.345L379.038 217.752L379.024 218.162L379.001 218.571L378.987 218.981L378.984 219.39L378.963 219.801L379.009 220.209L379.05 220.617L379.134 221.019L379.167 221.429L379.247 221.831L379.3 222.238L379.358 222.644L379.414 223.05L379.49 223.453L379.548 223.859L379.58 224.269L379.62 224.677L379.678 225.083L379.742 225.488L379.781 225.896L379.858 226.713L379.89 227.121L379.943 227.528L379.972 227.938L379.967 228.349L380.001 228.757L380.016 229.167L380.027 229.577L380.043 229.987L380.022 230.397L380.047 230.807L380.051 231.217L380.034 231.627L380.054 232.037L380.04 232.447L380.046 232.857L380.049 233.267L380.04 233.677L380.054 234.087L380.017 234.906L380.028 235.317L380.009 235.726L379.995 236.136L379.951 236.544L379.941 236.955L379.899 237.363L379.828 237.767L379.796 238.176L379.747 238.584L379.678 238.988L379.584 239.388L379.466 239.781L379.376 240.182L379.259 240.575L379.136 240.966L379.025 241.36L378.93 241.759L378.852 242.161L378.773 242.564L378.713 242.969L378.605 243.364L378.438 243.738L378.244 244.1L378.104 244.487L377.927 244.857L377.753 245.228L377.558 245.59L377.395 245.967L377.241 246.347L377.114 246.738L376.984 247.126L376.843 247.511L376.732 247.905L376.624 248.301L376.536 248.701L376.484 249.107L376.42 249.513L376.398 249.923L376.375 250.332L376.363 250.743L376.307 251.149L376.265 251.557L376.201 251.962L376.136 252.367L376.068 252.771L376.01 253.177L375.911 253.576L375.858 253.983L375.779 254.386L375.747 254.795L375.677 255.2L375.655 255.61L375.666 256.021L375.641 256.43L375.592 256.837L375.537 257.242L375.484 257.649L375.423 258.055L375.368 258.461L375.352 258.872L375.326 259.281L375.322 259.691L375.297 260.101L375.238 260.507L375.182 260.913L375.111 261.317L375.045 261.722L375.003 262.13L375.001 262.54L375.008 262.949L374.997 263.36L374.996 263.77L375.024 264.179L375.026 264.589L375.024 264.999L374.999 265.408L374.987 265.819L374.933 266.225L374.905 266.634L374.859 267.042L374.878 267.452L374.872 267.862L374.832 268.27L374.763 268.674L374.626 269.06L374.479 269.443L374.319 269.82L374.148 270.193L374.007 270.579L373.821 270.945L373.645 271.315L373.486 271.693L373.349 272.08L373.21 272.465L373.088 272.855L372.974 273.249L372.896 273.65L372.835 274.055L372.782 274.463L372.794 274.874L372.731 275.28L372.722 275.691L372.682 276.099L372.645 276.508L372.575 276.913L372.549 277.322L372.47 277.726L372.442 278.135L372.398 278.543L372.375 278.953L372.326 279.36L372.309 279.77L372.302 280.179L372.28 280.589L372.232 280.998L372.047 281.363L371.686 281.522L371.279 281.567L370.873 281.512L370.464 281.468L370.065 281.373L369.667 281.276L369.273 281.164L368.885 281.033L368.503 280.887L368.128 280.723L367.753 280.556L367.374 280.399L367.006 280.219L366.621 280.075L366.229 279.954L365.826 279.882L365.422 279.822L365.013 279.799L364.603 279.776L364.199 279.7L363.789 279.671L363.383 279.614L362.975 279.577L362.569 279.52L362.16 279.489L361.751 279.454L361.342 279.489L360.932 279.512L360.529 279.585L360.137 279.706L359.765 279.879L359.399 280.062L359.031 280.243L358.67 280.438L358.318 280.648L357.98 280.88L357.618 281.076L357.291 281.325L356.941 281.538L356.611 281.783L356.266 282.004L355.933 282.243L355.579 282.451L355.241 282.685L354.893 282.9L354.538 283.106L354.188 283.319L353.83 283.52L353.457 283.692L353.073 283.836L352.676 283.915L352.269 283.876L351.886 283.726L351.51 283.561L351.106 283.48L350.721 283.336L350.317 283.261L349.914 283.188L349.505 283.165L349.094 283.156L348.687 283.209L348.279 283.261L347.884 283.374L347.49 283.486L347.09 283.579L346.704 283.716L346.322 283.866L345.94 284.014L345.563 284.177L345.2 284.369L344.83 284.545L344.452 284.706L344.083 284.884L343.728 285.091L343.364 285.279L342.99 285.449L342.614 285.611L342.242 285.787L341.849 285.906L341.456 286.018L341.069 286.156L340.69 286.301L340.346 286.521L340.115 286.858L340.079 287.263L340.175 287.663L340.284 288.057L340.313 288.465L340.313 288.875L340.354 289.284L340.372 289.693L340.367 290.105L340.444 290.508L340.518 290.91L340.596 291.313L340.696 291.711L340.792 292.11L340.862 292.514L340.959 292.912L341.038 293.315L341.146 293.711L341.245 294.108L341.348 294.506L341.522 294.878L341.654 295.267L341.752 295.665L341.802 296.07L341.833 296.48L341.925 296.881L341.977 297.288L342.058 297.691L342.044 298.101L341.992 298.505L341.792 298.862L341.548 299.191L341.252 299.478L340.91 299.705L340.569 299.93L340.208 300.123L339.849 300.323L339.463 300.465L339.093 300.643L338.714 300.799L338.344 300.976L337.994 301.188L337.637 301.39L337.325 301.656L336.99 301.884L336.592 301.962L336.183 301.953L335.774 301.926L335.362 301.914L334.97 302.026L334.595 302.194L334.26 302.432L333.899 302.629L333.564 302.866L333.201 303.057L332.84 303.252L332.442 303.345L332.056 303.273L331.672 303.148L331.263 303.191L330.871 303.309L330.474 303.414L330.083 303.537L329.697 303.671L329.346 303.882L329.02 304.128L328.712 304.398L328.397 304.661L328.087 304.93L327.715 305.105L327.341 305.276L326.937 305.356L326.555 305.508L326.193 305.702L325.85 305.926L325.519 306.168L325.162 306.372L324.83 306.614L324.474 306.821L324.089 306.965L323.694 307.075L323.296 307.158L322.89 307.174L322.501 307.045L322.196 306.766L321.965 306.427L321.751 306.077L321.531 305.732L321.284 305.399L320.893 305.291L320.484 305.286L320.287 305.301M320.563 305.106L320.549 305.205L320.189 305.269L320.005 305.635L320.009 306.042L320.144 306.427L320.254 306.822L320.364 307.216L320.41 307.624L320.379 308.034L320.253 308.425L320.028 308.769L319.773 309.09L319.482 309.379L319.169 309.642L318.816 309.851L318.433 310L318.039 310.117L317.633 310.178L317.229 310.24L316.853 310.392L316.514 310.618L316.151 310.81L315.777 310.978L315.446 311.22L315.108 311.453L314.781 311.702L314.409 311.881L314.097 312.15L313.8 312.433L313.488 312.697L313.137 312.909L312.781 313.113L312.419 313.308L312.108 313.577L311.782 313.825L311.437 314.043L311.082 314.25L310.707 314.415L310.325 314.568L309.986 314.799L309.623 314.992L309.272 315.204L308.883 315.334L308.492 315.458L308.12 315.633L307.784 315.85L307.479 316.121L307.148 316.363L306.8 316.58L306.459 316.808L306.107 317.019L305.775 317.258L305.448 317.506L305.141 317.778L304.836 318.05L304.523 318.315L304.176 318.536L303.81 318.719L303.472 318.95L303.12 319.162L302.786 319.399L302.437 319.615L302.066 319.791L301.7 319.976L301.331 320.154L300.949 320.303L300.582 320.488L300.199 320.636L299.824 320.803L299.442 320.951L299.07 321.122L298.682 321.26L298.317 321.447L297.952 321.636L297.574 321.795L297.195 321.952L296.829 322.136L296.45 322.293L296.082 322.476L295.722 322.671L295.355 322.854L295.011 323.075L294.673 323.305L294.331 323.533L294.024 323.806L293.735 324.097L293.452 324.394L293.152 324.674L292.841 324.94L292.539 325.217L292.213 325.466L291.877 325.7L291.551 325.95L291.18 326.123L290.794 326.258L290.417 326.423L290.053 326.604L289.709 326.826L289.326 326.972L288.947 327.127L288.556 327.254L288.185 327.429L287.808 327.592L287.445 327.782L287.075 327.959L286.711 328.148L286.338 328.319L285.983 328.527L285.594 328.658L285.224 328.836L284.863 329.031L284.487 329.196L284.124 329.341M283.949 329.34L283.858 329.381L283.562 329.476L283.2 329.666L282.452 330.002L282.072 330.156L281.708 330.348L281.338 330.523L280.963 330.689L280.588 330.856L280.204 330.999L279.823 331.152L279.44 331.299L279.064 331.462L278.693 331.637L278.314 331.794L277.938 331.956L277.575 332.144L277.246 332.386L276.896 332.601L276.551 332.822L276.199 333.033L275.823 333.199L275.481 333.425L275.139 333.651L274.801 333.886L274.408 334.01L274.03 334.171L273.657 334.34L273.289 334.521L272.923 334.705L272.562 334.9L272.198 335.091L271.877 335.348L271.528 335.565L271.197 335.807L270.896 336.087L270.578 336.346L270.237 336.576L269.922 336.839L269.567 337.044L269.221 337.265L268.845 337.429L268.478 337.614L268.126 337.827L267.741 337.97L267.35 338.095L266.991 338.294L266.621 338.471L266.255 338.656L265.874 338.808L265.499 338.974L265.115 339.119L264.739 339.283L264.369 339.461L264.014 339.667L263.665 339.882L263.31 340.087L262.962 340.304L262.589 340.476L262.225 340.663L261.85 340.829L261.452 340.931L261.051 341.013L260.642 341.055L260.232 341.051L259.824 341.095L259.416 341.13L259.024 341.241L258.627 341.348L258.223 341.423L257.812 341.427L257.405 341.48L257.012 341.586L256.612 341.672L256.204 341.642L255.793 341.632L255.383 341.621L254.973 341.636L254.564 341.654L254.153 341.646L253.744 341.669L253.335 341.686L252.924 341.678L252.515 341.708L252.108 341.766L251.702 341.827L251.292 341.841L250.886 341.793L250.497 341.681L250.176 341.429L249.877 341.149L249.56 340.889L249.278 340.591L248.997 340.293L248.713 339.996L248.464 339.671L248.217 339.343L247.962 339.022L247.669 338.735L247.404 338.42L247.091 338.154L246.789 337.877L246.47 337.618L246.155 337.356L245.816 337.126L245.469 336.906L245.091 336.744L244.732 336.546L244.35 336.393L243.977 336.222L243.267 335.81L242.544 335.423L242.19 335.217L241.848 334.99L241.521 334.741L241.28 334.408L241.008 334.106L240.659 333.895L240.253 333.839L239.844 333.816L239.434 333.835L239.026 333.886L238.616 333.896L238.222 334.015L237.865 334.216L237.504 334.412L237.166 334.645L236.796 334.824L236.445 335.036L236.098 335.255L235.77 335.501L235.448 335.756L235.115 335.995L234.79 336.246L234.422 336.427L234.057 336.613L233.681 336.776L232.914 337.064L232.527 337.199L232.138 337.329L231.762 337.496L231.366 337.605L230.975 337.73L230.584 337.852L230.186 337.952L229.79 338.061L229.392 338.159L228.994 338.257L228.591 338.334L228.194 338.439L227.795 338.533L227.39 338.6L226.987 338.675L226.579 338.721L226.174 338.787L225.771 338.86L225.365 338.919L224.957 338.96L224.549 339.005L224.141 339.045L223.733 339.081L223.324 339.108L222.914 339.127L222.504 339.141L222.096 339.184L221.686 339.202L221.276 339.204L220.866 339.174L220.456 339.192L220.046 339.176L219.636 339.195L219.226 339.192L218.816 339.189L218.406 339.205L217.995 339.19L217.585 339.205L217.175 339.206L216.765 339.207L216.355 339.208L215.945 339.176L215.535 339.194L215.125 339.188L214.715 339.21L214.305 339.18L213.895 339.199L213.485 339.191L212.665 339.186L212.255 339.205L211.845 339.208L211.435 339.186L211.026 339.172L210.616 339.168L210.206 339.162L209.797 339.129L209.388 339.095L208.979 339.066L208.57 339.038L208.16 339.04L207.751 339.033L207.343 338.984L206.935 338.943L206.532 338.868L206.13 338.788L205.724 338.727L205.319 338.658L204.908 338.673L204.498 338.673L204.088 338.641L203.678 338.631L203.274 338.564L202.87 338.495L202.468 338.413L202.065 338.336L201.654 338.323L201.245 338.305L200.838 338.264L200.433 338.208L200.044 338.077L200.001 338.058M264.945 239.202L265.014 239.275L265.251 239.46L265.517 239.772L265.815 240.054L266.108 240.341L266.382 240.647L266.677 240.932L266.954 241.235L267.221 241.546L267.49 241.856L267.737 242.183L267.991 242.505L268.238 242.833L268.497 243.151L268.763 243.463L268.996 243.801L269.214 244.149L269.418 244.505L269.625 244.859L269.806 245.228L270.028 245.573L270.27 245.904L270.514 246.232L270.831 246.493L271.122 246.782L271.357 247.117L271.549 247.48L271.833 247.777L272.134 248.057L272.446 248.322L272.76 248.587L273.06 248.866L273.336 249.17L273.653 249.433L273.92 249.746L274.193 250.051L274.492 250.334L274.76 250.645L274.988 250.988L275.252 251.301L275.476 251.645L275.726 251.971L275.94 252.322L276.182 252.653L276.458 252.958L276.715 253.277L276.953 253.611L277.226 253.918L277.478 254.242L277.744 254.553L277.997 254.877L278.261 255.191L278.497 255.526L278.757 255.844L279.04 256.142L279.35 256.412L279.667 256.671L279.971 256.947L280.266 257.233L280.516 257.559L280.787 257.866L281.061 258.172L281.318 258.491L281.607 258.782L281.902 259.067L282.168 259.38L282.456 259.672L282.709 259.995L282.972 260.311L283.21 260.645L283.458 260.972L283.67 261.324L284.175 261.971L284.403 262.312L284.632 262.653L284.894 262.969L285.14 263.297L285.414 263.603L285.696 263.901L285.958 264.216L286.242 264.512L286.519 264.814L286.774 265.137L287.052 265.438L287.337 265.733L287.623 266.027L287.892 266.336L288.154 266.652L288.44 266.947L288.716 267.25L288.982 267.562L289.264 267.86L289.513 268.186L289.774 268.503L290.058 268.8L290.314 269.12L290.559 269.449L290.799 269.782L291.071 270.089L291.318 270.418L291.61 270.706L291.897 271L292.204 271.272L292.496 271.559L292.791 271.844L293.061 272.153L293.36 272.435L293.627 272.746L293.936 273.017L294.241 273.292L294.526 273.587L294.816 273.877L295.116 274.156L295.413 274.439L295.694 274.738L295.961 275.05L296.234 275.356L296.48 275.685L296.76 275.985L297.02 276.302L297.323 276.579L297.591 276.89L297.853 277.205L298.13 277.508L298.36 277.849L298.599 278.181L298.852 278.505L299.067 278.854L299.317 279.181L299.535 279.528L299.776 279.86L300.002 280.202L300.227 280.544L300.443 280.892L300.635 281.254L300.853 281.603L301.027 281.975L301.233 282.33L301.45 282.678L301.684 283.016L301.942 283.335L302.211 283.645L302.493 283.944L302.815 284.2L303.106 284.489L303.418 284.756L303.734 285.016L304.041 285.289L304.356 285.551L304.666 285.819L304.974 286.09L305.266 286.378L305.576 286.646L305.885 286.916L306.179 287.202L306.484 287.476L306.774 287.767L307.081 288.039L307.396 288.301L307.706 288.57L308.006 288.849L308.312 289.122L308.618 289.396L308.922 289.671L309.222 289.949L309.515 290.236L309.797 290.533L310.097 290.815L310.375 291.117L310.638 291.432L310.876 291.767L311.148 292.074L311.393 292.403L311.664 292.712L312.174 293.353L312.44 293.666L312.675 294.002L312.932 294.322L313.175 294.653L313.417 294.984L313.658 295.316L313.874 295.665L314.134 295.983L314.377 296.313L314.648 296.621L314.885 296.957L315.168 297.255L315.435 297.566L315.704 297.876L315.965 298.191L316.231 298.505L316.462 298.844L316.671 299.197L316.916 299.527L317.194 299.829L317.49 300.113L317.776 300.407L318.064 300.7L318.349 300.994L318.62 301.301L318.894 301.608L319.162 301.913L319.43 302.225L319.661 302.559L319.759 302.955L319.776 303.364L319.777 303.774L319.731 304.182L319.742 304.593L319.75 305.003L319.778 305.413L319.952 305.716M200.001 337.71L199.948 337.624L199.772 337.368L199.477 337.082L199.173 336.807L198.91 336.491L198.701 336.137L198.451 335.811L198.258 335.449L198.126 335.061L198.014 334.666L197.929 334.264L197.813 333.871L197.655 333.492L197.422 333.154L197.158 332.841L196.891 332.531L196.604 332.239L196.304 331.96L195.985 331.703L195.67 331.439L195.318 331.227L194.95 331.046L194.592 330.847L194.211 330.695L193.833 330.535L193.441 330.414L193.068 330.24L192.677 330.115L192.29 329.981L191.901 329.85L191.511 329.722L191.123 329.591L190.742 329.437L190.341 329.343L189.96 329.19L189.573 329.055L189.172 328.961L188.782 328.837L188.403 328.676L188.006 328.571L187.619 328.433L187.22 328.336L186.836 328.19L186.445 328.066L186.044 327.977L185.651 327.859L185.267 327.714L184.87 327.608L184.481 327.478L184.085 327.374L183.691 327.261L183.291 327.17L182.897 327.052L182.501 326.948L182.103 326.848L181.702 326.762L181.303 326.667L180.912 326.542L180.519 326.426L180.138 326.271L179.744 326.158L179.347 326.053L178.959 325.92L178.563 325.811L178.167 325.705L177.777 325.577L177.375 325.492L176.983 325.374L176.584 325.278L176.192 325.158L175.795 325.056L175.409 324.913L175.01 324.818L174.611 324.72L174.222 324.589L173.835 324.453L173.438 324.349L173.049 324.219L172.256 324.008L171.868 323.875L171.472 323.767L171.08 323.648L170.697 323.498L170.305 323.378L169.91 323.268L169.515 323.159L169.126 323.027L168.74 322.888L168.345 322.779L167.954 322.653L167.57 322.511L167.178 322.388L166.803 322.221L166.423 322.069L166.031 321.944L165.652 321.788L165.277 321.621L164.904 321.451L164.518 321.311L164.156 321.115L163.777 320.959L163.406 320.783L163.026 320.628L162.654 320.456L162.278 320.293L161.911 320.109L161.525 319.967L161.162 319.776L160.778 319.631L160.397 319.477L160.029 319.296L159.658 319.122L159.279 318.965L158.899 318.81L158.525 318.643L158.151 318.474L157.77 318.323L157.401 318.142L157.017 317.997L156.649 317.815L156.265 317.671L155.895 317.494L155.519 317.329L155.131 317.195L154.76 317.019L154.38 316.864L153.991 316.733L153.617 316.565L153.226 316.438L152.849 316.277L152.463 316.139L152.081 315.989L151.693 315.857L151.303 315.729L150.919 315.585L150.523 315.476L150.142 315.323L149.747 315.21L149.353 315.096L148.96 314.979L148.565 314.869L148.173 314.75L147.778 314.637L147.369 314.593L146.966 314.516L146.559 314.471L146.15 314.435L145.744 314.38L145.337 314.331L144.932 314.263L144.531 314.177L144.136 314.066L143.733 313.99L143.33 313.909L142.934 313.804L142.535 313.711L142.136 313.612L141.73 313.554L141.321 313.518L140.914 313.475L140.508 313.411L140.104 313.342L139.704 313.252L139.309 313.141L138.919 313.015L138.531 312.884L138.14 312.758L137.737 312.68L137.335 312.593L136.949 312.449L136.588 312.251L136.207 312.1L135.823 311.953L135.421 311.87L135.047 311.704L134.707 311.557M129 87.4996L128.929 87.5696L128.885 87.8906L128.708 88.2573L128.473 88.5929L128.188 88.8889L127.863 89.1403L127.546 89.4003L127.207 89.6326L126.859 89.8491L126.51 90.0651L126.146 90.2549L125.786 90.4504L125.421 90.639L125.065 90.8423L124.716 91.0588L124.363 91.2668L124.022 91.4935L123.702 91.7438L123.393 92.0142L123.065 92.2618L122.762 92.5386L122.463 92.8204L122.135 93.0667L121.824 93.3351L121.496 93.5815L121.183 93.8476L120.829 94.0571L120.496 94.2958L120.147 94.5099L119.784 94.7033L119.405 94.8589L119.007 94.9547L118.622 95.0971L118.303 95.3581L117.968 95.5945L117.644 95.8457L117.324 96.1043L116.946 96.2717L116.534 96.3116L116.152 96.4665L115.783 96.6453L115.455 96.8939L115.11 97.1174L114.785 97.3674L114.48 97.6434L114.147 97.8843L113.784 98.0773L113.419 98.2649L113.021 98.365L112.62 98.4508L112.214 98.5093L111.81 98.5765L111.4 98.6055L110.992 98.6409L110.584 98.6771L110.176 98.7274L109.769 98.7718L109.359 98.7909L108.951 98.8298L108.54 98.8367L108.133 98.8889L107.727 98.9521L107.319 98.9907L106.915 99.0601L106.513 99.1419L106.108 99.2114L105.718 99.3385L105.323 99.447L104.941 99.5949L104.558 99.7389L104.221 99.9637L103.924 100.247L103.713 100.6L103.528 100.967L103.323 101.322L103.106 101.67L102.884 102.013L102.611 102.319L102.375 102.655L102.154 103L101.918 103.335L101.708 103.688L101.488 104.034L101.236 104.358L100.997 104.692L100.751 105.019L100.487 105.333L100.185 105.611L99.8575 105.858L99.5348 106.111L99.2053 106.355L98.8701 106.591L98.5509 106.849L98.2085 107.076L97.8794 107.32L97.5729 107.594L97.2497 107.847L96.9228 108.094L96.5981 108.345L96.2973 108.624L95.9619 108.862L95.6572 109.137L95.3422 109.4L95.0466 109.685L94.7409 109.958L94.4459 110.243L94.1387 110.515L93.8668 110.823L93.5608 111.097L93.2955 111.411L93.0279 111.721L92.7432 112.017L92.4688 112.322L92.214 112.643L91.9671 112.97L91.7088 113.288L91.4458 113.603L91.1961 113.929L90.9203 114.233L90.6735 114.561L90.3955 114.863L90.1501 115.192L89.878 115.499L89.6169 115.815L89.3835 116.154L89.1143 116.464L88.8653 116.79L88.6383 117.132L88.3822 117.453L88.1656 117.801L87.9222 118.132L87.7055 118.48L87.483 118.825L87.2832 119.183L87.0954 119.548L86.902 119.91L86.7513 120.292L86.5688 120.66L86.2944 121.433L86.1454 121.815L85.9988 122.197L85.8422 122.576L85.6815 122.953L85.5601 123.347L85.3872 123.719L85.2347 124.1L85.0869 124.482L84.9257 124.859L84.7826 125.243L84.6412 125.628L84.5108 126.016L84.375 126.404L84.2821 126.804L84.1968 127.204L84.1023 127.603L84.0369 128.007L83.9644 128.411L83.9348 128.821L83.9373 129.231L83.9343 129.641L83.9008 130.05L83.8648 130.459L83.821 130.866L83.773 131.274L83.6693 132.087L83.6222 132.495L83.6189 132.906L83.6088 133.315L83.6029 133.725L83.5859 134.136L83.6523 134.541L83.7689 134.935L84.0264 135.255L84.3176 135.543L84.6152 135.826L84.9181 136.097L85.233 136.358L85.5798 136.578L85.9218 136.806L86.608 137.257L86.9325 137.509L87.285 137.72L87.6238 137.952L87.9773 138.161L88.301 138.415L88.6504 138.631L88.9829 138.871L89.3165 139.109L89.6478 139.353L89.9857 139.584L90.3106 139.838L90.6064 140.123L90.8773 140.427L90.9451 140.787L90.7806 141.162L90.5344 141.49L90.2387 141.773L89.9076 142.014L89.5504 142.214L89.1873 142.407L88.8063 142.56L88.4108 142.673L88.028 142.82L87.6413 142.957L87.258 143.103L86.8861 143.275L86.5118 143.446L86.1837 143.694L85.8789 143.966L85.6049 144.272L85.4095 144.633L85.1614 144.96L84.9071 145.28L84.633 145.585L84.3381 145.869L84.05 146.161L83.7323 146.421L83.4085 146.672L83.0952 146.937L82.7571 147.169L82.413 147.393L82.0585 147.599L81.7527 147.872L81.4505 148.148L81.1476 148.425L80.8918 148.747L80.6392 149.07L80.3846 149.391L80.129 149.711L79.8662 150.027L79.6328 150.364L79.3991 150.7L79.1909 151.053L79.0135 151.422L78.8604 151.803L78.7193 152.188L78.5566 152.565L78.421 152.952L78.2858 153.339L78.1396 153.722L77.9574 154.09L77.8224 154.479L77.6418 154.847L77.4582 155.214L77.2458 155.566L77.0581 155.93L76.8717 156.295L76.7041 156.67L76.5254 157.039L76.3299 157.4L76.1551 157.771L75.9726 158.138L75.7865 158.503L75.6076 158.872L75.4009 159.227L75.2202 159.595L75.0312 159.959L74.8485 160.326L74.6318 160.675L74.4354 161.035L74.2269 161.388L74.0211 161.742L73.8136 162.096L73.6154 162.456L73.3775 162.791L73.1746 163.147L72.9414 163.485L72.7379 163.841L72.491 164.17L72.2696 164.515L72.0607 164.868L71.8277 165.206L71.5915 165.541L71.3609 165.88L71.1378 166.224L70.9072 166.563L70.6745 166.901L70.4616 167.252L70.2227 167.585L69.996 167.927L69.7721 168.27L69.5341 168.604L69.3071 168.946L69.068 169.279L68.8275 169.611L68.5949 169.949L68.3745 170.295L68.1464 170.635L67.9 170.964L67.6607 171.297L67.4475 171.648L67.2182 171.987L66.9976 172.333L66.7787 172.68L66.5958 173.048L66.4007 173.408L66.2479 173.789L66.0592 174.154L65.9204 174.54L65.7678 174.92L65.6132 175.3L65.4831 175.689L65.343 176.075L65.2109 176.463L65.077 176.85L64.9385 177.236L64.8335 177.634L64.6798 178.014L64.528 178.395L64.382 178.778L64.2405 179.164L64.074 179.539L63.8978 179.91L63.6992 180.269L63.4991 180.627L63.2776 180.973L63.027 181.298L62.8102 181.648L62.5244 181.944L62.2861 182.278L62.0381 182.604L61.8006 182.939L61.5399 183.256L61.315 183.6L61.0442 183.909L60.8066 184.244L60.5456 184.56L60.286 184.878L59.9875 185.161L59.6871 185.44L59.3573 185.686L59.0051 185.895L58.7044 186.171L58.4106 186.457L58.1521 186.776L57.9327 187.124L57.6741 187.442L57.4299 187.772L57.1268 188.048L56.7904 188.281L56.4164 188.451L56.0459 188.628L55.6891 188.83L55.3414 189.049L55.0093 189.291L54.6968 189.557L54.3745 189.811L54.0781 190.095L53.7924 190.389L53.5313 190.706L53.2615 191.013L53.0036 191.332L52.7633 191.663L52.4994 191.979L52.2895 192.332L52.0663 192.676L51.8657 193.033L51.6485 193.381L51.4495 193.74L51.2362 194.091L51.0702 194.466L50.8704 194.825L50.6856 195.191L50.5093 195.561L50.3448 195.937L50.1732 196.309L49.9882 196.676L49.8078 197.044L49.6336 197.415L49.4754 197.794L49.2711 198.151L49.1176 198.532L48.9202 198.892L48.7529 199.266L48.5557 199.626L48.3754 199.995L48.1601 200.344L47.97 200.707L47.7604 201.059L47.5397 201.405L47.3416 201.764L47.1737 202.137L47.0134 202.513L46.8595 202.894L46.7446 203.288L46.6612 203.69L46.5537 204.085L46.4489 204.482L46.4002 204.891L46.2826 205.286L46.2271 205.693L46.1325 206.092L46.0355 206.491L45.9089 206.881L45.7985 207.275L45.6502 207.658L45.5601 208.059L45.4723 208.459L45.3667 208.856L45.3065 209.261L45.2594 209.669L45.207 210.075L45.1666 210.484L45.1516 210.894L45.1116 211.302L45.0455 211.707L44.9875 212.113L44.9454 212.522L44.8686 212.925L44.7605 213.321L44.6382 213.713L44.5278 214.108L44.3648 214.485L44.2054 214.863L44.0684 215.25L43.8875 215.619L43.6745 215.97L43.4867 216.335L43.2729 216.685L43.062 217.036L42.8427 217.383L42.6136 217.723L42.3757 218.057L42.1705 218.413L41.9401 218.752L41.6778 219.069L41.465 219.421L41.2254 219.753L40.9758 220.079L40.7546 220.425L40.5505 220.78L40.341 221.132L40.1697 221.505L39.9941 221.876L39.8537 222.261L39.7086 222.644L39.5497 223.023L39.4577 223.424L39.3375 223.816L39.2208 224.209L39.1125 224.605L39.0205 225.005L38.973 225.414L38.876 225.813L38.8175 226.219L38.7134 226.617L38.6707 227.026L38.5909 227.428L38.5456 227.836L38.4873 228.242L38.3976 228.643L38.3455 229.05L38.283 229.455L38.2471 229.864L38.1668 230.267L38.1371 230.676L38.088 231.083L38.0577 231.492L38.0541 231.902L38.0138 232.311L38.0162 232.721L37.9884 233.131L37.9882 233.541L37.9836 233.951L37.9946 234.361L38.0141 234.771L38.0762 235.177L38.08 235.588L38.1329 235.996L38.1248 236.407L38.1591 236.816L38.139 237.226L38.1329 237.636L38.0545 238.038L37.9699 238.439L37.7866 238.804L37.5833 239.16L37.4222 239.537L37.2535 239.911L37.1313 240.302L36.9964 240.689L36.8917 241.086L36.7794 241.48L36.661 241.872L36.5229 242.258L36.4066 242.653L36.2126 243.015L36.0407 243.389L35.7834 243.71L35.5145 244.018L35.2139 244.295L34.8877 244.542L34.5394 244.763L34.1515 244.9L33.768 245.046L33.3668 245.137L32.9569 245.166L32.5474 245.18L32.138 245.191L31.7282 245.209L31.3184 245.23L30.9088 245.238L30.4988 245.242L30.0894 245.273L29.6852 245.346L29.2841 245.437L28.9099 245.608L28.535 245.774L28.2051 246.018L27.8559 246.235L27.5058 246.445L27.15 246.651L26.7669 246.799L26.3736 246.916L25.9834 247.042L25.5842 247.137L25.1915 247.256L24.8067 247.399L24.4291 247.558L24.0632 247.741L23.7111 247.95L23.3942 248.209L23.1149 248.507L22.8483 248.816L22.6282 249.163L22.4344 249.525L22.3146 249.919L22.2232 250.318L22.1394 250.719L22.0782 251.125L22.0434 251.534L22.034 251.944L22.01 252.354L22.0277 252.765L22.0158 253.175L21.9682 253.583L21.9333 253.991L21.8896 254.399L21.8123 254.802L21.677 255.189L21.5257 255.57L21.321 255.926L21.0569 256.242L20.8447 256.593L20.6227 256.937L20.4327 257.3L20.3414 257.699L20.3162 258.104L20.4138 258.497L20.584 258.87L20.8347 259.196L21.144 259.467L21.4512 259.739L21.7983 259.962L22.0936 260.244L22.3037 260.59L22.4488 260.972L22.4527 261.383L22.4769 261.793L22.4695 262.202L22.4412 262.613L22.506 263.018L22.5834 263.421L22.7287 263.805L22.8651 264.191L23.0484 264.558L23.2263 264.927L23.3986 265.3L23.6081 265.653L23.8106 266.01L23.9927 266.378L24.1471 266.758L24.3128 267.133L24.4298 267.526L24.5148 267.927L24.5941 268.329L24.7122 268.723L24.7649 269.131L24.8845 269.524L25.046 269.9L25.2032 270.279L25.4466 270.61L25.7146 270.92L25.9618 271.245L26.1534 271.606L26.3218 271.98L26.4726 272.361L26.6566 272.728L26.8389 273.096L27.08 273.429L27.3598 273.73L27.6212 274.046L27.9049 274.342L28.1833 274.643L28.4625 274.943L28.7232 275.259L28.9693 275.588L29.1648 275.949L29.3853 276.295L29.6108 276.638L29.8134 276.994L30.0319 277.341L30.2723 277.674L30.4953 278.018L30.6951 278.377L30.9207 278.72L31.1857 279.034L31.423 279.368L31.6872 279.682L31.9488 279.999L32.25 280.278L32.5327 280.576L32.8392 280.849L33.167 281.097L33.474 281.369L33.8064 281.609L34.1409 281.846L34.4793 282.077L34.8238 282.3L35.1836 282.497L35.5326 282.714L35.9135 282.869L36.2759 283.063L36.656 283.218L37.0555 283.32L37.4376 283.472L37.8393 283.55L38.2356 283.656L38.6279 283.779L39.0206 283.896L39.4162 284.004L39.816 284.097L40.2075 284.222L40.6138 284.286L41.0132 284.38L41.4147 284.461L41.8151 284.551L42.2221 284.602L42.6259 284.68L43.0366 284.685L43.4458 284.735L43.8552 284.704L44.263 284.667L44.6642 284.584L45.0536 284.456L45.4081 284.246L45.7006 283.955L45.9449 283.624L46.1437 283.265L46.3474 282.91L46.5474 282.552L46.7795 282.214L47.025 281.886L47.235 281.536L47.3857 281.154L47.5615 280.783L47.7111 280.401L47.8699 280.022L48.0754 279.668L48.2775 279.31L48.6255 279.256L48.7005 279.36M48.7005 278.324L48.7655 278.4L48.9656 278.635L49.2328 278.946L49.4967 279.26L49.7493 279.583L49.9855 279.919L50.2557 280.228L50.521 280.541L50.7928 280.848L51.3751 281.424L51.6952 281.68L52.0388 281.906L52.4193 282.058L52.8234 282.107L53.2304 282.173L53.6104 282.329L53.998 282.451L54.3929 282.402L54.7114 282.149L55.0016 281.866L55.3908 281.745L55.7955 281.681L56.1844 281.55L56.5758 281.428L56.96 281.281L57.3671 281.224L57.7717 281.173L58.1786 281.209L58.5751 281.312L58.9756 281.398L59.3799 281.464L59.7839 281.54L60.1956 281.544L60.601 281.611L61.007 281.666L61.4173 281.696L61.8198 281.78L62.2026 281.931L62.5904 282.062L62.9396 282.271L63.1363 282.616L63.059 283.018L62.9107 283.397L62.7497 283.776L62.537 284.127L62.2856 284.453L62.0579 284.794L61.8024 285.116L61.3231 285.78L61.0662 286.1L60.7566 286.369L60.4338 286.62L60.0989 286.855L59.7638 287.092L59.4222 287.319L59.0691 287.527L58.7335 287.762L58.3903 287.989L58.0951 288.275L57.3256 289.234L57.0579 289.545L56.768 289.836L56.5176 290.161L56.2566 290.476L56.0404 290.823L55.8374 291.178L55.6895 291.559L55.539 291.944L55.4443 292.342L55.3463 292.741L55.2221 293.131L55.1257 293.531L55.1705 293.938L55.3548 294.303L55.6361 294.603L55.9381 294.88L56.2251 295.172L56.5315 295.449L56.8142 295.747L57.0377 296.092L57.2132 296.458L57.3077 296.855L57.346 297.264L57.3383 297.674L57.318 298.083L57.3466 298.494L57.4004 298.901L57.4691 299.305L57.5859 299.699L57.687 300.097L57.8349 300.481L58.0475 300.833L58.282 301.166L58.5574 301.469L58.8518 301.754L59.186 301.993L59.5039 302.253L59.864 302.451L60.2301 302.637L60.6183 302.771L61.0091 302.895L61.4098 302.982L61.8113 303.068L62.2216 303.09L62.6284 303.148L63.0392 303.142L63.449 303.135L63.8592 303.152L64.2691 303.158L64.6789 303.142L65.0882 303.117L65.4976 303.098L65.9067 303.071L66.3126 303.012L66.721 302.972L67.1202 302.878L67.524 302.803L67.9108 302.666L68.2998 302.536L68.6726 302.363L69.0092 302.128L69.3468 301.895L69.6508 301.62L69.9519 301.341L70.2895 301.107L70.6099 300.851L70.9584 300.634L71.2967 300.402L71.6451 300.186L71.9841 299.955L72.3193 299.719L72.6609 299.491L72.9762 299.228L73.3131 298.993L73.6184 298.719L73.9141 298.434L74.1973 298.137L74.4549 297.817L74.6967 297.485L74.9362 297.152L75.144 296.797L75.4021 296.477L75.6507 296.151L75.9062 295.83L76.1867 295.53L76.4706 295.234L76.7763 294.96L77.0598 294.669L77.2692 294.316L77.3983 293.926L77.507 293.531L77.6294 293.14L77.7409 292.745L77.8898 292.362L78.0445 291.984L78.243 291.626L78.4692 291.285L78.6491 290.918L78.7439 290.521L78.8517 290.13L79.238 290.026L79.6483 290.054L80.0551 290.109L80.4578 290.184L80.8661 290.228L81.2723 290.265L81.6785 290.255L82.085 290.196L82.4606 290.03L82.8321 289.853L83.1902 289.654L83.5681 289.495L83.9556 289.361L84.3461 289.234L84.751 289.165L85.1555 289.094L85.5656 289.068L85.9766 289.07L86.3864 289.103L86.787 289.195L87.1908 289.266L87.5829 289.385L87.9771 289.502L88.3438 289.688L88.7214 289.849L89.0782 290.051L89.429 290.264L89.7711 290.489L90.1179 290.709L90.4495 290.951L90.7605 291.219L91.0732 291.484L91.3966 291.736L91.7247 291.983L92.0396 292.245L92.3584 292.503L92.6834 292.753L93.0124 292.998L93.3614 293.214L93.7063 293.434L94.0447 293.667L94.4138 293.847L94.7848 294.022L95.162 294.183L95.5446 294.331L95.917 294.504L96.3085 294.629L96.6934 294.769L97.0722 294.928L97.4647 295.048L97.8467 295.197L98.6268 295.45L99.0142 295.585L99.41 295.694L99.7972 295.829L100.186 295.96L100.584 296.06L100.975 296.183L101.369 296.297L101.756 296.435L102.154 296.535L102.544 296.662L102.926 296.812L103.323 296.919L103.716 297.036L104.104 297.167L104.49 297.307L104.871 297.46L105.262 297.585L105.635 297.754L105.995 297.951L106.349 298.159L106.696 298.376L107.035 298.609L107.345 298.877L107.663 299.136L107.975 299.402L108.278 299.679L108.555 299.982L108.869 300.248L109.148 300.549L109.423 300.854L109.672 301.18L109.94 301.49L110.208 301.801L110.488 302.101L110.755 302.413L111.003 302.74L111.265 303.055L111.554 303.341L111.894 303.569L112.268 303.735L112.647 303.895L113.04 304.012L113.427 304.147L113.804 304.309L114.13 304.56L114.476 304.779L114.839 304.971L115.218 305.125L115.608 305.255L116.006 305.352L116.396 305.479L116.799 305.556L117.196 305.661L117.601 305.729L117.994 305.849L118.392 305.946L118.791 306.041L119.176 306.181L119.549 306.349L119.921 306.522L120.299 306.681L120.675 306.845L121.052 307.006L121.44 307.142L121.817 307.302L122.202 307.444L122.589 307.58L122.972 307.727L123.36 307.858L123.745 308L124.131 308.139L124.521 308.266L124.916 308.374L125.31 308.488L125.698 308.62L126.091 308.74L126.492 308.826L126.89 308.927L127.289 309.02L127.687 309.121L128.091 309.19L128.491 309.28L128.899 309.329L129.299 309.422L129.705 309.473L130.105 309.562L130.502 309.666L130.903 309.756L131.298 309.864L131.695 309.97L132.089 310.083L132.481 310.204L132.882 310.293L133.268 310.433L133.655 310.572L134.043 310.705L134.433 310.833L134.813 310.987L135.189 311.154L135.548 311.354L135.891 311.583L136.089 311.829M48.7005 277.978L48.7394 277.886L48.7711 277.576L48.8637 277.178L48.9827 276.785L49.1341 276.403L49.3211 276.038L49.486 275.662L49.6743 275.298L49.8743 274.94L50.0729 274.58L50.2975 274.237L50.5184 273.891L50.7502 273.553L50.9746 273.21L51.1968 272.864L51.4409 272.535L51.69 272.208L51.9476 271.889L52.2062 271.57L52.4966 271.281L52.7615 270.968L53.0185 270.648L53.3065 270.355L53.568 270.039L53.8449 269.737L54.0962 269.412L54.3917 269.125L54.6487 268.806L54.9131 268.492L55.1751 268.177L55.4355 267.86L55.6988 267.546L55.9816 267.248L56.2156 266.909L56.4981 266.611L56.7662 266.3L57.0022 265.964L57.2621 265.646L57.5523 265.354L57.7973 265.025L58.0698 264.718L58.3092 264.384L58.589 264.084L58.8503 263.768L59.0841 263.429L59.3406 263.109L59.6152 262.804L59.8542 262.471L60.1108 262.151L60.3491 261.817L60.5969 261.49L60.8262 261.15L61.0775 260.826L61.3159 260.492L61.5473 260.153L61.7623 259.804L61.979 259.456L62.2149 259.12L62.4341 258.773L62.6813 258.445L62.8931 258.094L63.0995 257.739L63.3325 257.401L63.5465 257.052L63.7586 256.701L63.992 256.363L64.1856 256.001L64.4025 255.653L64.5922 255.29L64.7964 254.934L64.9784 254.567L65.192 254.215L65.3553 253.839L65.5158 253.461L65.7032 253.096L65.8918 252.732L66.0499 252.353L66.2329 251.986L66.3944 251.609L66.5581 251.233L66.7513 250.871L66.9251 250.499L67.1146 250.135L67.3377 249.79L67.5411 249.434L67.7464 249.079L67.9613 248.729L68.2057 248.4L68.465 248.082L68.706 247.75L68.9623 247.43L69.2338 247.123L69.4917 246.804L69.7846 246.516L70.066 246.218L70.3254 245.899L70.6086 245.603L71.1899 245.024L71.4552 244.71L71.7609 244.435L72.0329 244.128L72.3165 243.832L72.5781 243.516L72.8503 243.209L73.1187 242.899L73.4196 242.621L73.7032 242.324L74.0326 242.078L74.3371 241.803L74.6534 241.541L74.9904 241.307L75.3237 241.068L75.6448 240.813L75.9606 240.551L76.2789 240.293L76.5909 240.027L76.8785 239.735L77.1747 239.452L77.4244 239.126L77.6844 238.809L77.8919 238.455L78.1206 238.114L78.3327 237.763L78.512 237.393L78.7319 237.046L78.9332 236.689L79.1176 236.322L79.3427 235.979L79.5392 235.619L79.7785 235.285L80.0059 234.944L80.2396 234.606L80.4521 234.255L80.656 233.9L80.8713 233.551L81.0547 233.183L81.2803 232.84L81.479 232.481L81.6871 232.128L81.9063 231.782L82.1263 231.436L82.3612 231.101L82.6076 230.774L82.8308 230.428L83.1089 230.126L83.3807 229.818L83.6515 229.51L83.9361 229.215L84.2104 228.91L84.4886 228.609L84.7643 228.306L85.0514 228.012L85.3137 227.697L85.5798 227.385L85.8634 227.088L86.1364 226.783L86.427 226.493L86.6987 226.185L86.9603 225.869L87.2287 225.559L87.5064 225.258L87.7762 224.949L88.045 224.639L88.3131 224.329L88.5825 224.02L89.1237 223.404L89.3681 223.074L89.6277 222.756L89.8962 222.446L90.1851 222.154L90.4366 221.829L90.7133 221.526L90.9637 221.201L91.2303 220.89L91.4977 220.579L91.7499 220.255L92.0269 219.953L92.28 219.63L92.5445 219.316L92.8086 219.003L93.0736 218.69L93.3633 218.398L93.6151 218.074L93.8855 217.766L94.1345 217.439L94.423 217.146L94.6752 216.822L94.9475 216.516L95.2157 216.206L95.4845 215.896L95.7373 215.573L96.0024 215.26L96.2864 214.963L96.5633 214.661L96.8249 214.345L97.0804 214.024L97.3531 213.718L97.6245 213.41L97.8938 213.101L98.1654 212.794L98.4195 212.472L98.6894 212.163L98.9825 211.875L99.2434 211.558L99.5155 211.251L99.7881 210.945L100.054 210.633L100.344 210.342L100.599 210.02L100.87 209.712L101.158 209.42L101.419 209.104L101.707 208.81L101.978 208.503L102.252 208.198L102.534 207.901L102.798 207.586L103.084 207.292L103.368 206.996L103.629 206.679L103.909 206.38L104.182 206.074L104.474 205.786L104.738 205.471L105.021 205.175L105.322 204.895L105.589 204.583L105.864 204.278L106.147 203.982L106.436 203.691L106.734 203.409L107.005 203.1L107.292 202.807L107.584 202.52L107.871 202.227L108.153 201.929L108.435 201.631L108.74 201.356L109.027 201.064L109.313 200.77L109.602 200.479L109.91 200.208L110.177 199.894L110.473 199.61L110.766 199.324L111.078 199.055L111.366 198.764L111.65 198.468L111.918 198.157L112.195 197.854L112.486 197.565L112.762 197.262L113.046 196.966L113.329 196.67L113.601 196.363L113.893 196.074L114.158 195.761L114.426 195.45L114.684 195.132L114.967 194.835L115.229 194.519L115.498 194.209L115.76 193.894L116.021 193.578L116.269 193.251L116.55 192.951L116.796 192.623L117.066 192.315L117.307 191.982L117.588 191.682L117.849 191.366L118.106 191.046L118.391 190.752L118.69 190.471L118.996 190.2L119.311 189.939L119.649 189.709L120.007 189.513L120.377 189.336L120.776 189.243L121.184 189.201L121.593 189.176L122.003 189.159L122.411 189.122L122.82 189.094L123.229 189.062L123.636 189.018L124.042 188.955L124.448 188.901L124.857 188.868L125.265 188.827L125.669 188.756L126.077 188.708L126.484 188.659L126.892 188.626L127.299 188.571L127.709 188.548L128.116 188.496L128.527 188.498L128.935 188.457L129.345 188.442L129.755 188.437L130.165 188.413L130.575 188.403L130.984 188.387L131.394 188.373L131.804 188.362L132.212 188.311L132.622 188.305L133.032 188.289L133.441 188.256L133.848 188.206L134.256 188.168L134.663 188.123L135.071 188.084L135.477 188.026L135.883 187.97L136.292 187.931L136.692 187.832L137.102 187.801L137.503 187.711L137.908 187.646L138.311 187.575L138.72 187.536L139.122 187.452L139.532 187.42L139.935 187.34L140.34 187.279L140.743 187.201L141.151 187.154L141.554 187.084L141.959 187.019L142.367 186.97L142.77 186.896L143.18 186.863L143.587 186.815L143.99 186.735L144.399 186.7L144.802 186.623L145.21 186.581L145.617 186.527L146.024 186.481L146.432 186.44L146.839 186.391L147.247 186.346L147.653 186.294L148.059 186.233L148.468 186.206L148.876 186.16L149.284 186.116L149.69 186.058L150.099 186.027L150.508 185.996L150.916 185.957L151.327 185.96L151.735 185.91L152.144 185.887L152.553 185.849L152.963 185.84L153.372 185.819L153.783 185.822L154.192 185.78L154.602 185.783L155.012 185.775L155.422 185.764L155.831 185.745L156.241 185.738L156.652 185.751L157.061 185.774L157.47 185.803L157.88 185.827L158.282 185.912L158.691 185.949L159.091 186.041L159.497 186.104L159.895 186.201L160.298 186.28L160.692 186.394L161.094 186.476L161.492 186.573L161.89 186.673L162.293 186.751L162.695 186.828L163.095 186.92L163.493 187.021L163.897 187.091L164.305 187.136L164.709 187.207L165.114 187.276L165.525 187.286L165.93 187.36L166.341 187.364L166.75 187.398L167.159 187.421L167.568 187.459L167.978 187.459L168.388 187.482L168.798 187.461L169.208 187.457L169.618 187.487L170.028 187.484L170.438 187.48L170.848 187.497L171.257 187.518L171.668 187.526L172.076 187.567L172.48 187.638L172.885 187.703L173.293 187.749L173.697 187.823L174.096 187.92L174.492 188.024L174.894 188.109L175.283 188.24L175.675 188.361L176.076 188.453L176.464 188.585L176.842 188.748L177.23 188.88L177.609 189.037L177.989 189.189L178.366 189.35L178.739 189.522L179.106 189.704L179.489 189.853L179.858 190.032L180.208 190.249L180.582 190.418L180.94 190.619L181.293 190.827L181.662 191.007L182.033 191.181L182.396 191.373L182.772 191.535L183.142 191.712L183.524 191.862L183.901 192.024L184.269 192.206L184.662 192.329L185.041 192.485L185.42 192.642L185.801 192.794L186.186 192.935L186.585 193.036L186.967 193.187L187.36 193.304L187.738 193.466L188.135 193.571L188.521 193.712L188.916 193.82L189.308 193.942L189.69 194.093L190.084 194.207L190.475 194.329L190.875 194.425L191.259 194.571L191.656 194.676L192.044 194.808L192.436 194.929L192.835 195.024L193.226 195.147L193.629 195.224L194.027 195.324L194.432 195.391L194.837 195.458L195.243 195.514L195.65 195.57L196.061 195.582L196.466 195.648L196.877 195.657L197.283 195.718L197.694 195.724L198.102 195.768L198.512 195.777L198.92 195.828L199.33 195.84L199.738 195.882L200.147 195.915L200.557 195.936L200.963 195.995L201.371 196.032L201.775 196.105L202.181 196.162L202.584 196.239L202.985 196.328L203.38 196.436L203.784 196.514L204.168 196.66L204.567 196.762L204.94 196.934L205.315 197.099L205.684 197.277L206.05 197.463L206.413 197.654L206.747 197.894L207.107 198.092L207.455 198.309L207.784 198.555L208.116 198.795L208.455 199.026L208.803 199.245L209.153 199.458L209.495 199.683L209.832 199.918L210.176 200.141L210.533 200.344L210.888 200.55L211.043 200.606L211.12 200.67L211.442 200.696L211.827 200.831L212.191 201.019L212.523 201.261L212.814 201.552L213.107 201.837L213.373 202.15L213.62 202.477L213.864 202.807L214.08 203.157L214.299 203.504L214.508 203.856L214.728 204.203L214.957 204.543L215.172 204.892L215.395 205.236L215.626 205.574L216.134 206.218L216.424 206.506L216.71 206.801L216.952 207.133L217.212 207.451L217.446 207.787L217.702 208.109L217.905 208.467L218.145 208.799L218.376 209.138L218.608 209.476L218.843 209.813L219.076 210.15L219.291 210.5L219.563 210.809L219.79 211.151L220.04 211.477L220.331 211.768L220.608 212.069L220.87 212.387L221.186 212.649L221.494 212.921L221.843 213.137L222.177 213.376L222.505 213.618L222.839 213.858L223.143 214.134L223.423 214.435L223.73 214.707L224.022 214.996L224.332 215.263L224.644 215.53L224.984 215.76L225.329 215.981L225.713 216.131L226.11 216.221L226.486 216.38L226.845 216.58L227.181 216.816L227.524 217.041L227.849 217.293L228.207 217.494L228.587 217.649L228.963 217.813L229.349 217.951L229.735 218.09L230.108 218.261L230.492 218.408L230.847 218.616L231.187 218.848L231.485 219.129L231.812 219.375L232.129 219.638L232.484 219.844L232.845 220.039L233.196 220.251L233.55 220.459L233.922 220.632L234.285 220.823L234.66 220.989L235.036 221.153L235.4 221.343L235.775 221.511L236.141 221.696L236.482 221.926L236.829 222.143L237.176 222.362L237.519 222.587L237.845 222.836L238.166 223.092L238.506 223.322L238.842 223.556L239.176 223.794L239.529 224.003L239.868 224.235L240.227 224.435L240.61 224.585L240.99 224.737L241.094 224.785L241.075 224.687L241.082 224.375L241.034 223.967L240.971 223.562L240.906 223.158L240.852 222.751L240.748 222.354L240.645 221.957L240.535 221.562L240.403 221.174L240.282 220.782L240.14 220.398L239.995 220.014L239.827 219.64L239.642 219.274L239.469 218.902L239.289 218.534L239.106 218.168L238.911 217.807L238.751 217.43L238.404 216.687L238.274 216.297L238.113 215.919L237.974 215.534L237.802 215.16L237.684 214.766L237.517 214.391L237.356 214.013L237.187 213.639L237.011 213.27L236.829 212.902L236.656 212.528L236.408 212.2L236.177 211.861L235.913 211.66L235.822 211.619L235.505 211.622L235.101 211.563L234.703 211.465L234.319 211.319L233.958 211.123L233.592 210.939L233.242 210.725L232.901 210.496L232.56 210.269L232.233 210.021L231.898 209.785L231.561 209.55L231.208 209.341L230.84 209.161L230.469 208.989L230.092 208.827L229.721 208.652L229.351 208.476L228.999 208.263L228.635 208.074L228.273 207.88L227.949 207.628L227.637 207.363L227.353 207.069L227.024 206.823L226.722 206.542L226.384 206.31L226.046 206.077L225.702 205.854L225.351 205.641L224.997 205.435L224.644 205.224L224.249 205.114L223.865 204.966L223.482 204.822L223.088 204.704L222.709 204.545L222.351 204.342L221.973 204.183L221.613 203.986L221.237 203.821L220.887 203.605L220.528 203.408L220.153 203.239L219.793 203.043L219.446 202.822L219.079 202.638L218.724 202.433L218.359 202.248L217.997 202.054L217.625 201.882L217.261 201.692L216.888 201.521L216.509 201.363L216.12 201.232L215.729 201.11L215.34 200.98L214.942 200.884L214.547 200.772L214.14 200.718L213.731 200.687L213.323 200.638L212.914 200.622L212.504 200.618L212.094 200.596L212.08 200.606M237.985 213.732L238.071 213.784L238.275 214.023L238.596 214.279L238.933 214.514L239.273 214.741L239.613 214.972L239.981 215.154L240.348 215.335L240.721 215.505L241.104 215.652L241.483 215.808L241.871 215.941L242.261 216.068L242.658 216.169L243.061 216.249L243.461 216.337L243.863 216.412L244.268 216.479L244.672 216.546L245.068 216.657L245.472 216.73L245.879 216.78L246.284 216.844L246.695 216.859L247.097 216.936L247.496 217.036L247.846 217.251L248.192 217.469L248.52 217.715L248.85 217.958L249.192 218.183L249.522 218.428L249.797 218.732L250.094 219.018L250.33 219.354L250.585 219.676L250.888 219.953L251.203 220.21L251.549 220.431L251.945 220.542L252.336 220.665L252.739 220.746L253.12 220.9L253.472 221.099L253.822 221.313L254.172 221.523L254.524 221.736L254.898 221.903L255.251 222.111L255.583 222.351L255.856 222.658L256.092 222.993L256.26 223.366L256.412 223.748L256.693 224.517L256.811 224.911L256.882 225.315L256.948 225.72L256.954 226.131L256.976 226.539L256.935 226.947L256.838 227.346L256.766 227.75L256.724 228.157L256.773 228.56L257.06 228.857L256.824 229.155L256.424 229.255L256.013 229.276L255.603 229.29L255.193 229.259L254.784 229.285L254.374 229.313L253.964 229.31L253.554 229.304L253.144 229.328L252.734 229.322L252.324 229.335L251.914 229.34L251.504 229.308L251.094 229.29L250.686 229.247L250.283 229.165L249.473 229.041L249.068 228.972L248.671 228.869L248.279 228.748L247.881 228.649L247.489 228.53L247.104 228.388L246.715 228.258L246.345 228.079L245.974 227.907L245.593 227.754L245.23 227.561L244.88 227.348L244.537 227.123L244.182 226.915L243.87 226.647L243.542 226.402L243.236 226.13L242.924 225.864L242.637 225.571L242.353 225.275L242.099 224.953L241.823 224.649L241.602 224.303L241.44 224.094M256.983 228.585L257.029 228.673L257.028 228.994L257.125 229.393L257.256 229.781L257.406 230.162L257.567 230.539L257.792 230.883L258.03 231.216L258.288 231.534L258.572 231.829L258.855 232.125L259.157 232.402L259.464 232.675L259.785 232.93L260.114 233.175L260.43 233.436L260.746 233.698L261.054 233.969L261.36 234.242L261.634 234.548L261.923 234.838L262.205 235.137L262.436 235.476L262.679 235.808L262.898 236.154L263.145 236.482L263.346 236.841L263.598 237.166L263.855 237.486L264.13 237.789L264.427 238.072L264.743 238.332L265.068 238.583L265.443 238.755L265.76 239.017L266.064 239.293L266.377 239.559L266.651 239.865L266.873 240.212L267.117 240.542L267.289 240.913L267.345 241.019" stroke="black" stroke-linecap="round"/>
</g>
</g>
</g>
</svg>
